<ttFont>
    <TTGlyph name=".ttfautohint" xMin="0" yMin="0" xMax="0" yMax="0">
      <contour>
        <pt x="0" y="0" on="1"/>
      </contour>
    </TTGlyph>
    <TTGlyph name="A" xMin="5" yMin="-2" xMax="431" yMax="703">
      <contour>
        <pt x="433" y="6" on="0"/>
        <pt x="419" y="-2" on="0"/>
        <pt x="396" y="-2" on="1"/>
        <pt x="369" y="-2" on="0"/>
        <pt x="348" y="0" on="1"/>
        <pt x="306" y="178" on="1"/>
        <pt x="132" y="178" on="1"/>
        <pt x="93" y="14" on="1"/>
        <pt x="90" y="5" on="0"/>
        <pt x="77" y="-2" on="0"/>
        <pt x="55" y="-2" on="1"/>
        <pt x="34" y="-2" on="0"/>
        <pt x="5" y="1" on="1"/>
        <pt x="184" y="689" on="1"/>
        <pt x="187" y="703" on="0"/>
        <pt x="214" y="703" on="1"/>
        <pt x="237" y="703" on="0"/>
        <pt x="252" y="700" on="1"/>
        <pt x="431" y="15" on="1"/>
      </contour>
      <contour>
        <pt x="254" y="395" on="1"/>
        <pt x="225" y="517" on="0"/>
        <pt x="219" y="588" on="1"/>
        <pt x="208" y="499" on="0"/>
        <pt x="183" y="395" on="1"/>
        <pt x="149" y="251" on="1"/>
        <pt x="288" y="251" on="1"/>
      </contour>
    </TTGlyph>
    <TTGlyph name="AE" xMin="17" yMin="-2" xMax="596" yMax="700">
      <contour>
        <pt x="592" y="44" on="0"/>
        <pt x="591" y="8" on="0"/>
        <pt x="584" y="0" on="0"/>
        <pt x="576" y="0" on="1"/>
        <pt x="340" y="0" on="1"/>
        <pt x="340" y="178" on="1"/>
        <pt x="174" y="178" on="1"/>
        <pt x="105" y="14" on="1"/>
        <pt x="102" y="5" on="0"/>
        <pt x="87" y="-2" on="0"/>
        <pt x="68" y="-2" on="1"/>
        <pt x="45" y="-2" on="0"/>
        <pt x="17" y="1" on="1"/>
        <pt x="311" y="686" on="1"/>
        <pt x="317" y="700" on="0"/>
        <pt x="337" y="700" on="1"/>
        <pt x="356" y="700" on="1"/>
        <pt x="596" y="700" on="1"/>
        <pt x="596" y="672" on="0"/>
        <pt x="595" y="636" on="0"/>
        <pt x="589" y="627" on="0"/>
        <pt x="581" y="627" on="1"/>
        <pt x="420" y="627" on="1"/>
        <pt x="420" y="418" on="1"/>
        <pt x="571" y="418" on="1"/>
        <pt x="571" y="391" on="0"/>
        <pt x="570" y="355" on="0"/>
        <pt x="564" y="344" on="0"/>
        <pt x="556" y="344" on="1"/>
        <pt x="420" y="344" on="1"/>
        <pt x="420" y="73" on="1"/>
        <pt x="592" y="73" on="1"/>
      </contour>
      <contour>
        <pt x="340" y="615" on="1"/>
        <pt x="304" y="490" on="0"/>
        <pt x="264" y="392" on="1"/>
        <pt x="205" y="251" on="1"/>
        <pt x="340" y="251" on="1"/>
      </contour>
    </TTGlyph>
    <TTGlyph name="Aacute" xMin="5" yMin="-2" xMax="431" yMax="922">
      <component glyphName=".ttfautohint" x="5" y="0" flags="0x0"/>
      <component glyphName="A" x="0" y="0" flags="0x1000"/>
      <component glyphName="acute" x="90" y="200" flags="0x1000"/>
    </TTGlyph>
    <TTGlyph name="Abreve" xMin="5" yMin="-2" xMax="431" yMax="913">
      <component glyphName=".ttfautohint" x="5" y="0" flags="0x0"/>
      <component glyphName="A" x="0" y="0" flags="0x1000"/>
      <component glyphName="breve" x="84" y="200" flags="0x1000"/>
    </TTGlyph>
    <TTGlyph name="Acircumflex" xMin="5" yMin="-2" xMax="431" yMax="911">
      <component glyphName=".ttfautohint" x="5" y="0" flags="0x0"/>
      <component glyphName="A" x="0" y="0" flags="0x1000"/>
      <component glyphName="circumflex" x="84" y="200" flags="0x1000"/>
    </TTGlyph>
    <TTGlyph name="Adieresis" xMin="5" yMin="-2" xMax="431" yMax="889">
      <component glyphName=".ttfautohint" x="5" y="0" flags="0x0"/>
      <component glyphName="A" x="0" y="0" flags="0x1000"/>
      <component glyphName="dieresis" x="84" y="200" flags="0x1000"/>
    </TTGlyph>
    <TTGlyph name="Agrave" xMin="5" yMin="-2" xMax="431" yMax="916">
      <component glyphName=".ttfautohint" x="5" y="0" flags="0x0"/>
      <component glyphName="A" x="0" y="0" flags="0x1000"/>
      <component glyphName="grave" x="90" y="200" flags="0x1000"/>
    </TTGlyph>
    <TTGlyph name="Amacron" xMin="5" yMin="-2" xMax="431" yMax="863">
      <component glyphName=".ttfautohint" x="5" y="0" flags="0x0"/>
      <component glyphName="A" x="0" y="0" flags="0x1000"/>
      <component glyphName="macron" x="84" y="200" flags="0x1000"/>
    </TTGlyph>
    <TTGlyph name="Aogonek" xMin="5" yMin="-195" xMax="430" yMax="703">
      <contour>
        <pt x="187" y="703" on="0"/>
        <pt x="214" y="703" on="1"/>
        <pt x="237" y="703" on="0"/>
        <pt x="252" y="700" on="1"/>
        <pt x="429" y="24" on="1"/>
        <pt x="430" y="20" on="0"/>
        <pt x="430" y="15" on="1"/>
        <pt x="430" y="7" on="0"/>
        <pt x="420" y="-2" on="1"/>
        <pt x="358" y="-50" on="0"/>
        <pt x="358" y="-100" on="1"/>
        <pt x="358" y="-137" on="0"/>
        <pt x="391" y="-137" on="1"/>
        <pt x="408" y="-137" on="0"/>
        <pt x="419" y="-129" on="1"/>
        <pt x="428" y="-146" on="0"/>
        <pt x="428" y="-163" on="1"/>
        <pt x="428" y="-195" on="0"/>
        <pt x="368" y="-195" on="1"/>
        <pt x="286" y="-195" on="0"/>
        <pt x="286" y="-110" on="1"/>
        <pt x="286" y="-77" on="0"/>
        <pt x="321" y="-17" on="0"/>
        <pt x="347" y="5" on="1"/>
        <pt x="306" y="178" on="1"/>
        <pt x="132" y="178" on="1"/>
        <pt x="93" y="14" on="1"/>
        <pt x="90" y="5" on="0"/>
        <pt x="77" y="-2" on="0"/>
        <pt x="55" y="-2" on="1"/>
        <pt x="34" y="-2" on="0"/>
        <pt x="5" y="1" on="1"/>
        <pt x="184" y="689" on="1"/>
      </contour>
      <contour>
        <pt x="225" y="517" on="0"/>
        <pt x="219" y="588" on="1"/>
        <pt x="208" y="499" on="0"/>
        <pt x="183" y="395" on="1"/>
        <pt x="148" y="251" on="1"/>
        <pt x="290" y="251" on="1"/>
        <pt x="254" y="395" on="1"/>
      </contour>
    </TTGlyph>
    <TTGlyph name="Aring" xMin="5" yMin="-2" xMax="431" yMax="937">
      <component glyphName=".ttfautohint" x="5" y="0" flags="0x0"/>
      <component glyphName="A" x="0" y="0" flags="0x1000"/>
      <component glyphName="ring" x="84" y="200" flags="0x1000"/>
    </TTGlyph>
    <TTGlyph name="Atilde" xMin="5" yMin="-2" xMax="431" yMax="887">
      <component glyphName=".ttfautohint" x="5" y="0" flags="0x0"/>
      <component glyphName="A" x="0" y="0" flags="0x1000"/>
      <component glyphName="tilde" x="84" y="200" flags="0x1000"/>
    </TTGlyph>
    <TTGlyph name="B" xMin="44" yMin="0" xMax="360" yMax="700">
      <contour>
        <pt x="44" y="700" on="0"/>
        <pt x="70" y="700" on="1"/>
        <pt x="169" y="700" on="1"/>
        <pt x="337" y="700" on="0"/>
        <pt x="337" y="546" on="1"/>
        <pt x="337" y="470" on="0"/>
        <pt x="279" y="389" on="0"/>
        <pt x="242" y="384" on="1"/>
        <pt x="289" y="381" on="0"/>
        <pt x="360" y="318" on="0"/>
        <pt x="360" y="238" on="1"/>
        <pt x="360" y="118" on="0"/>
        <pt x="253" y="0" on="0"/>
        <pt x="170" y="0" on="1"/>
        <pt x="44" y="0" on="1"/>
        <pt x="44" y="681" on="1"/>
      </contour>
      <contour>
        <pt x="209" y="414" on="0"/>
        <pt x="249" y="472" on="0"/>
        <pt x="249" y="530" on="1"/>
        <pt x="249" y="629" on="0"/>
        <pt x="175" y="629" on="1"/>
        <pt x="125" y="629" on="1"/>
        <pt x="125" y="414" on="1"/>
        <pt x="175" y="414" on="1"/>
      </contour>
      <contour>
        <pt x="212" y="71" on="0"/>
        <pt x="265" y="150" on="0"/>
        <pt x="265" y="231" on="1"/>
        <pt x="265" y="280" on="0"/>
        <pt x="242" y="330" on="0"/>
        <pt x="203" y="345" on="0"/>
        <pt x="172" y="345" on="1"/>
        <pt x="125" y="345" on="1"/>
        <pt x="125" y="71" on="1"/>
        <pt x="171" y="71" on="1"/>
      </contour>
    </TTGlyph>
    <TTGlyph name="C" xMin="30" yMin="-10" xMax="321" yMax="710">
      <contour>
        <pt x="277" y="710" on="0"/>
        <pt x="321" y="678" on="0"/>
        <pt x="321" y="655" on="1"/>
        <pt x="321" y="628" on="0"/>
        <pt x="308" y="606" on="1"/>
        <pt x="277" y="631" on="0"/>
        <pt x="243" y="631" on="1"/>
        <pt x="206" y="631" on="0"/>
        <pt x="150" y="584" on="0"/>
        <pt x="115" y="450" on="0"/>
        <pt x="115" y="325" on="1"/>
        <pt x="115" y="227" on="0"/>
        <pt x="139" y="119" on="0"/>
        <pt x="183" y="79" on="0"/>
        <pt x="215" y="79" on="1"/>
        <pt x="243" y="79" on="0"/>
        <pt x="293" y="98" on="0"/>
        <pt x="308" y="111" on="1"/>
        <pt x="320" y="85" on="0"/>
        <pt x="320" y="62" on="1"/>
        <pt x="320" y="32" on="0"/>
        <pt x="250" y="-10" on="0"/>
        <pt x="196" y="-10" on="1"/>
        <pt x="142" y="-10" on="0"/>
        <pt x="71" y="37" on="0"/>
        <pt x="30" y="182" on="0"/>
        <pt x="30" y="321" on="1"/>
        <pt x="30" y="480" on="0"/>
        <pt x="88" y="652" on="0"/>
        <pt x="173" y="710" on="0"/>
        <pt x="227" y="710" on="1"/>
      </contour>
    </TTGlyph>
    <TTGlyph name="Cacute" xMin="30" yMin="-10" xMax="321" yMax="922">
      <component glyphName=".ttfautohint" x="30" y="0" flags="0x0"/>
      <component glyphName="C" x="0" y="0" flags="0x1000"/>
      <component glyphName="acute" x="73" y="200" flags="0x1000"/>
    </TTGlyph>
    <TTGlyph name="Ccaron" xMin="30" yMin="-10" xMax="321" yMax="919">
      <component glyphName=".ttfautohint" x="30" y="0" flags="0x0"/>
      <component glyphName="C" x="0" y="0" flags="0x1000"/>
      <component glyphName="caron" x="66" y="200" flags="0x1000"/>
    </TTGlyph>
    <TTGlyph name="Ccedilla" xMin="30" yMin="-206" xMax="321" yMax="710">
      <contour>
        <pt x="128" y="-5" on="0"/>
        <pt x="66" y="50" on="0"/>
        <pt x="30" y="192" on="0"/>
        <pt x="30" y="321" on="1"/>
        <pt x="30" y="480" on="0"/>
        <pt x="88" y="652" on="0"/>
        <pt x="173" y="710" on="0"/>
        <pt x="227" y="710" on="1"/>
        <pt x="277" y="710" on="0"/>
        <pt x="321" y="678" on="0"/>
        <pt x="321" y="655" on="1"/>
        <pt x="321" y="628" on="0"/>
        <pt x="308" y="606" on="1"/>
        <pt x="277" y="631" on="0"/>
        <pt x="243" y="631" on="1"/>
        <pt x="206" y="631" on="0"/>
        <pt x="150" y="584" on="0"/>
        <pt x="115" y="450" on="0"/>
        <pt x="115" y="325" on="1"/>
        <pt x="115" y="227" on="0"/>
        <pt x="139" y="119" on="0"/>
        <pt x="183" y="79" on="0"/>
        <pt x="215" y="79" on="1"/>
        <pt x="243" y="79" on="0"/>
        <pt x="293" y="98" on="0"/>
        <pt x="308" y="111" on="1"/>
        <pt x="320" y="85" on="0"/>
        <pt x="320" y="62" on="1"/>
        <pt x="320" y="36" on="0"/>
        <pt x="264" y="-4" on="0"/>
        <pt x="220" y="-8" on="1"/>
        <pt x="210" y="-59" on="1"/>
        <pt x="211" y="-58" on="0"/>
        <pt x="227" y="-58" on="1"/>
        <pt x="247" y="-58" on="0"/>
        <pt x="276" y="-90" on="0"/>
        <pt x="276" y="-122" on="1"/>
        <pt x="276" y="-160" on="0"/>
        <pt x="231" y="-206" on="0"/>
        <pt x="196" y="-206" on="1"/>
        <pt x="177" y="-206" on="0"/>
        <pt x="140" y="-194" on="0"/>
        <pt x="140" y="-193" on="1"/>
        <pt x="141" y="-188" on="0"/>
        <pt x="149" y="-156" on="0"/>
        <pt x="153" y="-152" on="1"/>
        <pt x="156" y="-149" on="0"/>
        <pt x="187" y="-163" on="0"/>
        <pt x="198" y="-163" on="1"/>
        <pt x="229" y="-163" on="0"/>
        <pt x="229" y="-129" on="1"/>
        <pt x="229" y="-95" on="0"/>
        <pt x="199" y="-95" on="1"/>
        <pt x="183" y="-95" on="0"/>
        <pt x="161" y="-100" on="0"/>
        <pt x="158" y="-101" on="1"/>
        <pt x="175" y="-9" on="1"/>
      </contour>
    </TTGlyph>
    <TTGlyph name="D" xMin="44" yMin="0" xMax="364" yMax="700">
      <contour>
        <pt x="237" y="700" on="0"/>
        <pt x="321" y="643" on="0"/>
        <pt x="364" y="506" on="0"/>
        <pt x="364" y="386" on="1"/>
        <pt x="364" y="242" on="0"/>
        <pt x="319" y="73" on="0"/>
        <pt x="233" y="0" on="0"/>
        <pt x="169" y="0" on="1"/>
        <pt x="44" y="0" on="1"/>
        <pt x="44" y="681" on="1"/>
        <pt x="44" y="700" on="0"/>
        <pt x="71" y="700" on="1"/>
        <pt x="169" y="700" on="1"/>
      </contour>
      <contour>
        <pt x="201" y="77" on="0"/>
        <pt x="245" y="124" on="0"/>
        <pt x="273" y="263" on="0"/>
        <pt x="273" y="394" on="1"/>
        <pt x="273" y="485" on="0"/>
        <pt x="251" y="586" on="0"/>
        <pt x="207" y="626" on="0"/>
        <pt x="171" y="626" on="1"/>
        <pt x="125" y="626" on="1"/>
        <pt x="125" y="77" on="1"/>
        <pt x="171" y="77" on="1"/>
      </contour>
    </TTGlyph>
    <TTGlyph name="Dcaron" xMin="44" yMin="0" xMax="364" yMax="919">
      <component glyphName=".ttfautohint" x="44" y="0" flags="0x0"/>
      <component glyphName="D" x="0" y="0" flags="0x1000"/>
      <component glyphName="caron" x="44" y="200" flags="0x1000"/>
    </TTGlyph>
    <TTGlyph name="Dcroat" xMin="44" yMin="0" xMax="364" yMax="863">
      <component glyphName=".ttfautohint" x="44" y="0" flags="0x0"/>
      <component glyphName="D" x="0" y="0" flags="0x1000"/>
      <component glyphName="macron" x="44" y="200" flags="0x1000"/>
    </TTGlyph>
    <TTGlyph name="Delta" xMin="24" yMin="0" xMax="408" yMax="704">
      <contour>
        <pt x="175" y="704" on="0"/>
        <pt x="222" y="704" on="1"/>
        <pt x="249" y="704" on="0"/>
        <pt x="264" y="691" on="1"/>
        <pt x="408" y="0" on="1"/>
        <pt x="24" y="0" on="1"/>
        <pt x="166" y="653" on="1"/>
      </contour>
      <contour>
        <pt x="220" y="591" on="1"/>
        <pt x="216" y="591" on="1"/>
        <pt x="115" y="76" on="1"/>
        <pt x="320" y="76" on="1"/>
      </contour>
    </TTGlyph>
    <TTGlyph name="E" xMin="45" yMin="0" xMax="301" yMax="700">
      <contour>
        <pt x="297" y="44" on="0"/>
        <pt x="296" y="8" on="0"/>
        <pt x="289" y="0" on="0"/>
        <pt x="281" y="0" on="1"/>
        <pt x="45" y="0" on="1"/>
        <pt x="45" y="684" on="1"/>
        <pt x="45" y="688" on="0"/>
        <pt x="51" y="700" on="0"/>
        <pt x="61" y="700" on="1"/>
        <pt x="301" y="700" on="1"/>
        <pt x="301" y="672" on="0"/>
        <pt x="300" y="636" on="0"/>
        <pt x="294" y="627" on="0"/>
        <pt x="286" y="627" on="1"/>
        <pt x="125" y="627" on="1"/>
        <pt x="125" y="418" on="1"/>
        <pt x="276" y="418" on="1"/>
        <pt x="276" y="391" on="0"/>
        <pt x="275" y="355" on="0"/>
        <pt x="269" y="344" on="0"/>
        <pt x="261" y="344" on="1"/>
        <pt x="125" y="344" on="1"/>
        <pt x="125" y="73" on="1"/>
        <pt x="297" y="73" on="1"/>
      </contour>
    </TTGlyph>
    <TTGlyph name="Eacute" xMin="45" yMin="0" xMax="301" yMax="922">
      <component glyphName=".ttfautohint" x="45" y="0" flags="0x0"/>
      <component glyphName="E" x="0" y="0" flags="0x1000"/>
      <component glyphName="acute" x="42" y="200" flags="0x1000"/>
    </TTGlyph>
    <TTGlyph name="Ecaron" xMin="45" yMin="0" xMax="301" yMax="919">
      <component glyphName=".ttfautohint" x="45" y="0" flags="0x0"/>
      <component glyphName="E" x="0" y="0" flags="0x1000"/>
      <component glyphName="caron" x="35" y="200" flags="0x1000"/>
    </TTGlyph>
    <TTGlyph name="Ecircumflex" xMin="43" yMin="0" xMax="301" yMax="911">
      <component glyphName=".ttfautohint" x="43" y="0" flags="0x0"/>
      <component glyphName="E" x="0" y="0" flags="0x1000"/>
      <component glyphName="circumflex" x="35" y="200" flags="0x1000"/>
    </TTGlyph>
    <TTGlyph name="Edieresis" xMin="45" yMin="0" xMax="301" yMax="889">
      <component glyphName=".ttfautohint" x="45" y="0" flags="0x0"/>
      <component glyphName="E" x="0" y="0" flags="0x1000"/>
      <component glyphName="dieresis" x="35" y="200" flags="0x1000"/>
    </TTGlyph>
    <TTGlyph name="Edotaccent" xMin="45" yMin="0" xMax="301" yMax="892">
      <component glyphName=".ttfautohint" x="45" y="0" flags="0x0"/>
      <component glyphName="E" x="0" y="0" flags="0x1000"/>
      <component glyphName="dotaccent" x="35" y="200" flags="0x1000"/>
    </TTGlyph>
    <TTGlyph name="Egrave" xMin="45" yMin="0" xMax="301" yMax="916">
      <component glyphName=".ttfautohint" x="45" y="0" flags="0x0"/>
      <component glyphName="E" x="0" y="0" flags="0x1000"/>
      <component glyphName="grave" x="42" y="200" flags="0x1000"/>
    </TTGlyph>
    <TTGlyph name="Emacron" xMin="36" yMin="0" xMax="303" yMax="863">
      <component glyphName=".ttfautohint" x="36" y="0" flags="0x0"/>
      <component glyphName="E" x="0" y="0" flags="0x1000"/>
      <component glyphName="macron" x="35" y="200" flags="0x1000"/>
    </TTGlyph>
    <TTGlyph name="Eogonek" xMin="45" yMin="-195" xMax="301" yMax="700">
      <contour>
        <pt x="297" y="45" on="0"/>
        <pt x="295" y="12" on="0"/>
        <pt x="290" y="2" on="0"/>
        <pt x="283" y="-4" on="1"/>
        <pt x="258" y="-23" on="0"/>
        <pt x="221" y="-74" on="0"/>
        <pt x="221" y="-100" on="1"/>
        <pt x="221" y="-137" on="0"/>
        <pt x="254" y="-137" on="1"/>
        <pt x="269" y="-137" on="0"/>
        <pt x="283" y="-129" on="1"/>
        <pt x="292" y="-149" on="0"/>
        <pt x="292" y="-163" on="1"/>
        <pt x="292" y="-195" on="0"/>
        <pt x="231" y="-195" on="1"/>
        <pt x="149" y="-195" on="0"/>
        <pt x="149" y="-111" on="1"/>
        <pt x="149" y="-49" on="0"/>
        <pt x="205" y="0" on="1"/>
        <pt x="45" y="0" on="1"/>
        <pt x="45" y="684" on="1"/>
        <pt x="45" y="688" on="0"/>
        <pt x="51" y="700" on="0"/>
        <pt x="61" y="700" on="1"/>
        <pt x="301" y="700" on="1"/>
        <pt x="301" y="672" on="0"/>
        <pt x="300" y="636" on="0"/>
        <pt x="294" y="627" on="0"/>
        <pt x="286" y="627" on="1"/>
        <pt x="125" y="627" on="1"/>
        <pt x="125" y="418" on="1"/>
        <pt x="276" y="418" on="1"/>
        <pt x="276" y="391" on="0"/>
        <pt x="275" y="355" on="0"/>
        <pt x="269" y="344" on="0"/>
        <pt x="261" y="344" on="1"/>
        <pt x="125" y="344" on="1"/>
        <pt x="125" y="73" on="1"/>
        <pt x="297" y="73" on="1"/>
      </contour>
    </TTGlyph>
    <TTGlyph name="Eth" xMin="5" yMin="0" xMax="364" yMax="700">
      <contour>
        <pt x="237" y="700" on="0"/>
        <pt x="321" y="644" on="0"/>
        <pt x="364" y="510" on="0"/>
        <pt x="364" y="394" on="1"/>
        <pt x="364" y="247" on="0"/>
        <pt x="319" y="73" on="0"/>
        <pt x="233" y="0" on="0"/>
        <pt x="169" y="0" on="1"/>
        <pt x="44" y="0" on="1"/>
        <pt x="44" y="331" on="1"/>
        <pt x="5" y="331" on="1"/>
        <pt x="5" y="374" on="0"/>
        <pt x="10" y="401" on="0"/>
        <pt x="21" y="401" on="1"/>
        <pt x="44" y="401" on="1"/>
        <pt x="44" y="681" on="1"/>
        <pt x="44" y="700" on="0"/>
        <pt x="71" y="700" on="1"/>
        <pt x="169" y="700" on="1"/>
      </contour>
      <contour>
        <pt x="201" y="77" on="0"/>
        <pt x="245" y="124" on="0"/>
        <pt x="273" y="263" on="0"/>
        <pt x="273" y="394" on="1"/>
        <pt x="273" y="485" on="0"/>
        <pt x="251" y="586" on="0"/>
        <pt x="207" y="626" on="0"/>
        <pt x="171" y="626" on="1"/>
        <pt x="125" y="626" on="1"/>
        <pt x="125" y="401" on="1"/>
        <pt x="205" y="401" on="1"/>
        <pt x="205" y="359" on="0"/>
        <pt x="200" y="331" on="0"/>
        <pt x="188" y="331" on="1"/>
        <pt x="125" y="331" on="1"/>
        <pt x="125" y="77" on="1"/>
        <pt x="171" y="77" on="1"/>
      </contour>
    </TTGlyph>
    <TTGlyph name="Euro" xMin="16" yMin="-9" xMax="395" yMax="606">
      <contour>
        <pt x="196" y="144" on="0"/>
        <pt x="223" y="88" on="0"/>
        <pt x="261" y="69" on="0"/>
        <pt x="289" y="69" on="1"/>
        <pt x="344" y="69" on="0"/>
        <pt x="377" y="95" on="1"/>
        <pt x="389" y="73" on="0"/>
        <pt x="389" y="43" on="1"/>
        <pt x="389" y="32" on="0"/>
        <pt x="358" y="8" on="0"/>
        <pt x="305" y="-9" on="0"/>
        <pt x="274" y="-9" on="1"/>
        <pt x="223" y="-9" on="0"/>
        <pt x="155" y="22" on="0"/>
        <pt x="111" y="113" on="0"/>
        <pt x="105" y="198" on="1"/>
        <pt x="16" y="198" on="1"/>
        <pt x="16" y="237" on="0"/>
        <pt x="28" y="265" on="0"/>
        <pt x="48" y="265" on="1"/>
        <pt x="102" y="265" on="1"/>
        <pt x="102" y="274" on="1"/>
        <pt x="102" y="309" on="0"/>
        <pt x="105" y="340" on="1"/>
        <pt x="16" y="340" on="1"/>
        <pt x="16" y="378" on="0"/>
        <pt x="28" y="407" on="0"/>
        <pt x="48" y="407" on="1"/>
        <pt x="112" y="407" on="1"/>
        <pt x="131" y="522" on="0"/>
        <pt x="230" y="606" on="0"/>
        <pt x="297" y="606" on="1"/>
        <pt x="331" y="606" on="0"/>
        <pt x="375" y="592" on="0"/>
        <pt x="395" y="574" on="0"/>
        <pt x="395" y="566" on="1"/>
        <pt x="395" y="528" on="0"/>
        <pt x="382" y="512" on="1"/>
        <pt x="374" y="519" on="0"/>
        <pt x="335" y="532" on="0"/>
        <pt x="316" y="532" on="1"/>
        <pt x="226" y="532" on="0"/>
        <pt x="199" y="407" on="1"/>
        <pt x="343" y="407" on="1"/>
        <pt x="343" y="368" on="0"/>
        <pt x="331" y="340" on="0"/>
        <pt x="311" y="340" on="1"/>
        <pt x="190" y="340" on="1"/>
        <pt x="188" y="302" on="0"/>
        <pt x="188" y="277" on="1"/>
        <pt x="188" y="265" on="1"/>
        <pt x="310" y="265" on="1"/>
        <pt x="310" y="227" on="0"/>
        <pt x="298" y="198" on="0"/>
        <pt x="278" y="198" on="1"/>
        <pt x="191" y="198" on="1"/>
      </contour>
    </TTGlyph>
    <TTGlyph name="F" xMin="45" yMin="0" xMax="301" yMax="700">
      <contour>
        <pt x="301" y="672" on="0"/>
        <pt x="300" y="639" on="0"/>
        <pt x="294" y="631" on="0"/>
        <pt x="286" y="631" on="1"/>
        <pt x="125" y="631" on="1"/>
        <pt x="125" y="418" on="1"/>
        <pt x="276" y="418" on="1"/>
        <pt x="276" y="391" on="0"/>
        <pt x="275" y="355" on="0"/>
        <pt x="269" y="344" on="0"/>
        <pt x="261" y="344" on="1"/>
        <pt x="125" y="344" on="1"/>
        <pt x="125" y="16" on="1"/>
        <pt x="125" y="1" on="0"/>
        <pt x="125" y="1" on="0"/>
        <pt x="125" y="1" on="0"/>
        <pt x="125" y="16" on="1"/>
        <pt x="125" y="0" on="0"/>
        <pt x="110" y="0" on="1"/>
        <pt x="45" y="0" on="1"/>
        <pt x="45" y="684" on="1"/>
        <pt x="45" y="688" on="0"/>
        <pt x="51" y="700" on="0"/>
        <pt x="61" y="700" on="1"/>
        <pt x="301" y="700" on="1"/>
      </contour>
    </TTGlyph>
    <TTGlyph name="G" xMin="30" yMin="-10" xMax="355" yMax="710">
      <contour>
        <pt x="301" y="-10" on="0"/>
        <pt x="218" y="-10" on="1"/>
        <pt x="148" y="-10" on="0"/>
        <pt x="68" y="47" on="0"/>
        <pt x="30" y="195" on="0"/>
        <pt x="30" y="334" on="1"/>
        <pt x="30" y="485" on="0"/>
        <pt x="81" y="649" on="0"/>
        <pt x="173" y="710" on="0"/>
        <pt x="245" y="710" on="1"/>
        <pt x="293" y="710" on="0"/>
        <pt x="352" y="679" on="0"/>
        <pt x="352" y="659" on="1"/>
        <pt x="352" y="635" on="0"/>
        <pt x="341" y="607" on="1"/>
        <pt x="310" y="631" on="0"/>
        <pt x="261" y="631" on="1"/>
        <pt x="208" y="631" on="0"/>
        <pt x="146" y="578" on="0"/>
        <pt x="116" y="452" on="0"/>
        <pt x="116" y="340" on="1"/>
        <pt x="116" y="225" on="0"/>
        <pt x="140" y="108" on="0"/>
        <pt x="184" y="69" on="0"/>
        <pt x="220" y="69" on="1"/>
        <pt x="244" y="69" on="0"/>
        <pt x="275" y="85" on="0"/>
        <pt x="280" y="94" on="1"/>
        <pt x="280" y="343" on="1"/>
        <pt x="205" y="343" on="1"/>
        <pt x="205" y="394" on="1"/>
        <pt x="205" y="410" on="0"/>
        <pt x="224" y="410" on="1"/>
        <pt x="355" y="410" on="1"/>
        <pt x="355" y="35" on="1"/>
      </contour>
    </TTGlyph>
    <TTGlyph name="Gamma" xMin="57" yMin="0" xMax="301" yMax="700">
      <component glyphName=".ttfautohint" x="57" y="0" flags="0x0"/>
      <component glyphName="uni0413" x="0" y="0" flags="0x1000"/>
    </TTGlyph>
    <TTGlyph name="Gbreve" xMin="30" yMin="-10" xMax="355" yMax="913">
      <component glyphName=".ttfautohint" x="30" y="0" flags="0x0"/>
      <component glyphName="G" x="0" y="0" flags="0x1000"/>
      <component glyphName="breve" x="86" y="200" flags="0x1000"/>
    </TTGlyph>
    <TTGlyph name="Gcommaaccent" xMin="30" yMin="-255" xMax="355" yMax="710">
      <component glyphName=".ttfautohint" x="30" y="0" flags="0x0"/>
      <component glyphName="G" x="0" y="0" flags="0x1000"/>
      <component glyphName="commaaccentcomb" x="77" y="0" flags="0x1000"/>
    </TTGlyph>
    <TTGlyph name="H" xMin="44" yMin="0" xMax="365" yMax="700">
      <contour>
        <pt x="365" y="7" on="0"/>
        <pt x="358" y="1" on="0"/>
        <pt x="319" y="0" on="0"/>
        <pt x="285" y="0" on="1"/>
        <pt x="285" y="339" on="1"/>
        <pt x="125" y="339" on="1"/>
        <pt x="125" y="16" on="1"/>
        <pt x="125" y="7" on="0"/>
        <pt x="118" y="1" on="0"/>
        <pt x="78" y="0" on="0"/>
        <pt x="44" y="0" on="1"/>
        <pt x="44" y="684" on="1"/>
        <pt x="44" y="693" on="0"/>
        <pt x="51" y="699" on="0"/>
        <pt x="91" y="700" on="0"/>
        <pt x="125" y="700" on="1"/>
        <pt x="125" y="415" on="1"/>
        <pt x="285" y="415" on="1"/>
        <pt x="285" y="684" on="1"/>
        <pt x="285" y="693" on="0"/>
        <pt x="292" y="699" on="0"/>
        <pt x="331" y="700" on="0"/>
        <pt x="365" y="700" on="1"/>
        <pt x="365" y="16" on="1"/>
      </contour>
    </TTGlyph>
    <TTGlyph name="I" xMin="44" yMin="0" xMax="126" yMax="700">
      <contour>
        <pt x="44" y="683" on="0"/>
        <pt x="52" y="697" on="0"/>
        <pt x="81" y="700" on="0"/>
        <pt x="126" y="700" on="1"/>
        <pt x="126" y="16" on="1"/>
        <pt x="126" y="7" on="0"/>
        <pt x="118" y="1" on="0"/>
        <pt x="78" y="0" on="0"/>
        <pt x="44" y="0" on="1"/>
        <pt x="44" y="663" on="1"/>
      </contour>
    </TTGlyph>
    <TTGlyph name="IJ" xMin="44" yMin="-9" xMax="425" yMax="700">
      <component glyphName=".ttfautohint" x="44" y="0" flags="0x0"/>
      <component glyphName="I" x="0" y="0" flags="0x1000"/>
      <component glyphName="J" x="169" y="0" flags="0x1000"/>
    </TTGlyph>
    <TTGlyph name="Iacute" xMin="6" yMin="0" xMax="177" yMax="922">
      <component glyphName=".ttfautohint" x="6" y="0" flags="0x0"/>
      <component glyphName="I" x="0" y="0" flags="0x1000"/>
      <component glyphName="acute" x="-43" y="200" flags="0x1000"/>
    </TTGlyph>
    <TTGlyph name="Icircumflex" xMin="-42" yMin="0" xMax="211" yMax="911">
      <component glyphName=".ttfautohint" x="0" y="0" flags="0x0"/>
      <component glyphName="I" x="0" y="0" flags="0x1000"/>
      <component glyphName="circumflex" x="-50" y="200" flags="0x1000"/>
    </TTGlyph>
    <TTGlyph name="Idieresis" xMin="-16" yMin="0" xMax="186" yMax="889">
      <component glyphName=".ttfautohint" x="0" y="0" flags="0x0"/>
      <component glyphName="I" x="0" y="0" flags="0x1000"/>
      <component glyphName="dieresis" x="-50" y="200" flags="0x1000"/>
    </TTGlyph>
    <TTGlyph name="Idotaccent" xMin="42" yMin="0" xMax="128" yMax="892">
      <component glyphName=".ttfautohint" x="42" y="0" flags="0x0"/>
      <component glyphName="I" x="0" y="0" flags="0x1000"/>
      <component glyphName="dotaccent" x="-50" y="200" flags="0x1000"/>
    </TTGlyph>
    <TTGlyph name="Igrave" xMin="6" yMin="0" xMax="177" yMax="916">
      <component glyphName=".ttfautohint" x="6" y="0" flags="0x0"/>
      <component glyphName="I" x="0" y="0" flags="0x1000"/>
      <component glyphName="grave" x="-43" y="200" flags="0x1000"/>
    </TTGlyph>
    <TTGlyph name="Imacron" xMin="-49" yMin="0" xMax="218" yMax="863">
      <component glyphName=".ttfautohint" x="0" y="0" flags="0x0"/>
      <component glyphName="I" x="0" y="0" flags="0x1000"/>
      <component glyphName="macron" x="-50" y="200" flags="0x1000"/>
    </TTGlyph>
    <TTGlyph name="Iogonek" xMin="-11" yMin="-195" xMax="132" yMax="700">
      <contour>
        <pt x="125" y="6" on="0"/>
        <pt x="114" y="-4" on="1"/>
        <pt x="61" y="-52" on="0"/>
        <pt x="61" y="-102" on="1"/>
        <pt x="61" y="-136" on="0"/>
        <pt x="95" y="-136" on="1"/>
        <pt x="111" y="-136" on="0"/>
        <pt x="122" y="-129" on="1"/>
        <pt x="132" y="-146" on="0"/>
        <pt x="132" y="-162" on="1"/>
        <pt x="132" y="-178" on="0"/>
        <pt x="100" y="-195" on="0"/>
        <pt x="74" y="-195" on="1"/>
        <pt x="-11" y="-195" on="0"/>
        <pt x="-11" y="-114" on="1"/>
        <pt x="-11" y="-79" on="0"/>
        <pt x="18" y="-25" on="0"/>
        <pt x="44" y="4" on="1"/>
        <pt x="44" y="663" on="1"/>
        <pt x="44" y="683" on="0"/>
        <pt x="52" y="697" on="0"/>
        <pt x="80" y="700" on="0"/>
        <pt x="125" y="700" on="1"/>
        <pt x="125" y="16" on="1"/>
      </contour>
    </TTGlyph>
    <TTGlyph name="J" xMin="14" yMin="-9" xMax="256" yMax="700">
      <contour>
        <pt x="174" y="684" on="0"/>
        <pt x="181" y="697" on="0"/>
        <pt x="210" y="700" on="0"/>
        <pt x="256" y="700" on="1"/>
        <pt x="256" y="165" on="1"/>
        <pt x="256" y="82" on="0"/>
        <pt x="196" y="-9" on="0"/>
        <pt x="119" y="-9" on="1"/>
        <pt x="63" y="-9" on="0"/>
        <pt x="14" y="25" on="0"/>
        <pt x="14" y="50" on="1"/>
        <pt x="14" y="70" on="0"/>
        <pt x="26" y="96" on="1"/>
        <pt x="61" y="63" on="0"/>
        <pt x="109" y="63" on="1"/>
        <pt x="138" y="63" on="0"/>
        <pt x="165" y="89" on="0"/>
        <pt x="174" y="139" on="0"/>
        <pt x="174" y="183" on="1"/>
        <pt x="174" y="663" on="1"/>
      </contour>
    </TTGlyph>
    <TTGlyph name="K" xMin="42" yMin="-2" xMax="371" yMax="701">
      <contour>
        <pt x="313" y="701" on="0"/>
        <pt x="335" y="701" on="1"/>
        <pt x="371" y="701" on="0"/>
        <pt x="371" y="686" on="1"/>
        <pt x="371" y="683" on="0"/>
        <pt x="368" y="677" on="1"/>
        <pt x="206" y="398" on="1"/>
        <pt x="326" y="307" on="0"/>
        <pt x="367" y="18" on="1"/>
        <pt x="368" y="6" on="0"/>
        <pt x="355" y="-2" on="0"/>
        <pt x="334" y="-2" on="1"/>
        <pt x="308" y="-2" on="0"/>
        <pt x="278" y="1" on="1"/>
        <pt x="254" y="128" on="0"/>
        <pt x="204" y="275" on="0"/>
        <pt x="164" y="318" on="1"/>
        <pt x="151" y="333" on="0"/>
        <pt x="124" y="345" on="1"/>
        <pt x="124" y="16" on="1"/>
        <pt x="124" y="7" on="0"/>
        <pt x="117" y="1" on="0"/>
        <pt x="77" y="0" on="0"/>
        <pt x="42" y="0" on="1"/>
        <pt x="42" y="684" on="1"/>
        <pt x="42" y="693" on="0"/>
        <pt x="49" y="699" on="0"/>
        <pt x="89" y="700" on="0"/>
        <pt x="124" y="700" on="1"/>
        <pt x="124" y="399" on="1"/>
        <pt x="284" y="695" on="1"/>
      </contour>
    </TTGlyph>
    <TTGlyph name="Kcommaaccent" xMin="42" yMin="-255" xMax="371" yMax="701">
      <component glyphName=".ttfautohint" x="42" y="0" flags="0x0"/>
      <component glyphName="K" x="0" y="0" flags="0x1000"/>
      <component glyphName="commaaccentcomb" x="60" y="0" flags="0x1000"/>
    </TTGlyph>
    <TTGlyph name="L" xMin="44" yMin="0" xMax="297" yMax="700">
      <contour>
        <pt x="297" y="16" on="1"/>
        <pt x="297" y="0" on="0"/>
        <pt x="281" y="0" on="1"/>
        <pt x="44" y="0" on="1"/>
        <pt x="44" y="677" on="1"/>
        <pt x="44" y="690" on="0"/>
        <pt x="52" y="698" on="0"/>
        <pt x="80" y="700" on="0"/>
        <pt x="125" y="700" on="1"/>
        <pt x="125" y="76" on="1"/>
        <pt x="297" y="76" on="1"/>
      </contour>
    </TTGlyph>
    <TTGlyph name="Lacute" xMin="40" yMin="0" xMax="297" yMax="922">
      <component glyphName=".ttfautohint" x="40" y="0" flags="0x0"/>
      <component glyphName="L" x="0" y="0" flags="0x1000"/>
      <component glyphName="acute" x="-9" y="200" flags="0x1000"/>
    </TTGlyph>
    <TTGlyph name="Lcaron" xMin="44" yMin="0" xMax="314" yMax="700">
      <contour>
        <pt x="297" y="16" on="1"/>
        <pt x="297" y="0" on="0"/>
        <pt x="281" y="0" on="1"/>
        <pt x="44" y="0" on="1"/>
        <pt x="44" y="677" on="1"/>
        <pt x="44" y="690" on="0"/>
        <pt x="52" y="698" on="0"/>
        <pt x="80" y="700" on="0"/>
        <pt x="125" y="700" on="1"/>
        <pt x="125" y="76" on="1"/>
        <pt x="297" y="76" on="1"/>
      </contour>
      <contour>
        <pt x="209" y="644" on="0"/>
        <pt x="238" y="674" on="0"/>
        <pt x="260" y="674" on="1"/>
        <pt x="314" y="674" on="0"/>
        <pt x="314" y="615" on="1"/>
        <pt x="314" y="581" on="0"/>
        <pt x="286" y="506" on="0"/>
        <pt x="249" y="454" on="0"/>
        <pt x="239" y="454" on="1"/>
        <pt x="213" y="454" on="0"/>
        <pt x="208" y="477" on="1"/>
        <pt x="221" y="502" on="0"/>
        <pt x="230" y="542" on="0"/>
        <pt x="233" y="573" on="1"/>
        <pt x="209" y="587" on="0"/>
        <pt x="209" y="622" on="1"/>
      </contour>
    </TTGlyph>
    <TTGlyph name="Lcommaaccent" xMin="44" yMin="-255" xMax="297" yMax="700">
      <component glyphName=".ttfautohint" x="44" y="0" flags="0x0"/>
      <component glyphName="L" x="0" y="0" flags="0x1000"/>
      <component glyphName="commaaccentcomb" x="22" y="0" flags="0x1000"/>
    </TTGlyph>
    <TTGlyph name="Ldot" xMin="44" yMin="0" xMax="297" yMax="700">
      <contour>
        <pt x="297" y="16" on="1"/>
        <pt x="297" y="0" on="0"/>
        <pt x="281" y="0" on="1"/>
        <pt x="44" y="0" on="1"/>
        <pt x="44" y="677" on="1"/>
        <pt x="44" y="690" on="0"/>
        <pt x="52" y="698" on="0"/>
        <pt x="80" y="700" on="0"/>
        <pt x="125" y="700" on="1"/>
        <pt x="125" y="76" on="1"/>
        <pt x="297" y="76" on="1"/>
      </contour>
      <contour>
        <pt x="176" y="349" on="0"/>
        <pt x="206" y="382" on="0"/>
        <pt x="231" y="382" on="1"/>
        <pt x="287" y="382" on="0"/>
        <pt x="287" y="325" on="1"/>
        <pt x="287" y="300" on="0"/>
        <pt x="257" y="268" on="0"/>
        <pt x="231" y="268" on="1"/>
        <pt x="176" y="268" on="0"/>
        <pt x="176" y="325" on="1"/>
      </contour>
    </TTGlyph>
    <TTGlyph name="Lslash" xMin="4" yMin="0" xMax="310" yMax="700">
      <contour>
        <pt x="310" y="16" on="1"/>
        <pt x="310" y="12" on="0"/>
        <pt x="304" y="0" on="0"/>
        <pt x="294" y="0" on="1"/>
        <pt x="56" y="0" on="1"/>
        <pt x="56" y="315" on="1"/>
        <pt x="14" y="303" on="1"/>
        <pt x="4" y="346" on="0"/>
        <pt x="4" y="358" on="1"/>
        <pt x="4" y="373" on="0"/>
        <pt x="14" y="376" on="1"/>
        <pt x="56" y="388" on="1"/>
        <pt x="56" y="677" on="1"/>
        <pt x="56" y="690" on="0"/>
        <pt x="64" y="698" on="0"/>
        <pt x="93" y="700" on="0"/>
        <pt x="138" y="700" on="1"/>
        <pt x="138" y="410" on="1"/>
        <pt x="228" y="434" on="1"/>
        <pt x="238" y="391" on="0"/>
        <pt x="238" y="378" on="1"/>
        <pt x="238" y="363" on="0"/>
        <pt x="228" y="362" on="1"/>
        <pt x="138" y="337" on="1"/>
        <pt x="138" y="76" on="1"/>
        <pt x="310" y="76" on="1"/>
      </contour>
    </TTGlyph>
    <TTGlyph name="M" xMin="44" yMin="0" xMax="445" yMax="700">
      <contour>
        <pt x="367" y="693" on="0"/>
        <pt x="373" y="700" on="0"/>
        <pt x="380" y="700" on="1"/>
        <pt x="445" y="700" on="1"/>
        <pt x="445" y="16" on="1"/>
        <pt x="445" y="7" on="0"/>
        <pt x="438" y="1" on="0"/>
        <pt x="398" y="0" on="0"/>
        <pt x="363" y="0" on="1"/>
        <pt x="366" y="245" on="1"/>
        <pt x="368" y="333" on="0"/>
        <pt x="384" y="543" on="1"/>
        <pt x="337" y="365" on="0"/>
        <pt x="319" y="315" on="1"/>
        <pt x="266" y="161" on="1"/>
        <pt x="263" y="153" on="0"/>
        <pt x="255" y="153" on="1"/>
        <pt x="220" y="153" on="1"/>
        <pt x="168" y="315" on="1"/>
        <pt x="155" y="354" on="0"/>
        <pt x="104" y="541" on="1"/>
        <pt x="103" y="540" on="1"/>
        <pt x="106" y="509" on="0"/>
        <pt x="121" y="315" on="0"/>
        <pt x="123" y="249" on="1"/>
        <pt x="123" y="16" on="1"/>
        <pt x="123" y="7" on="0"/>
        <pt x="114" y="1" on="0"/>
        <pt x="76" y="0" on="0"/>
        <pt x="44" y="0" on="1"/>
        <pt x="44" y="684" on="1"/>
        <pt x="44" y="700" on="0"/>
        <pt x="60" y="700" on="1"/>
        <pt x="118" y="700" on="1"/>
        <pt x="214" y="396" on="1"/>
        <pt x="225" y="362" on="0"/>
        <pt x="243" y="297" on="0"/>
        <pt x="246" y="285" on="1"/>
        <pt x="249" y="297" on="0"/>
        <pt x="266" y="361" on="0"/>
        <pt x="275" y="393" on="1"/>
        <pt x="364" y="684" on="1"/>
      </contour>
    </TTGlyph>
    <TTGlyph name="N" xMin="44" yMin="0" xMax="401" yMax="700">
      <contour>
        <pt x="320" y="693" on="0"/>
        <pt x="328" y="699" on="0"/>
        <pt x="368" y="700" on="0"/>
        <pt x="401" y="700" on="1"/>
        <pt x="401" y="16" on="1"/>
        <pt x="401" y="0" on="0"/>
        <pt x="384" y="0" on="1"/>
        <pt x="324" y="0" on="1"/>
        <pt x="209" y="275" on="1"/>
        <pt x="183" y="344" on="0"/>
        <pt x="114" y="559" on="1"/>
        <pt x="118" y="516" on="0"/>
        <pt x="124" y="314" on="0"/>
        <pt x="124" y="259" on="1"/>
        <pt x="124" y="16" on="1"/>
        <pt x="124" y="7" on="0"/>
        <pt x="117" y="1" on="0"/>
        <pt x="77" y="0" on="0"/>
        <pt x="44" y="0" on="1"/>
        <pt x="44" y="684" on="1"/>
        <pt x="44" y="700" on="0"/>
        <pt x="60" y="700" on="1"/>
        <pt x="121" y="700" on="1"/>
        <pt x="234" y="430" on="1"/>
        <pt x="245" y="402" on="0"/>
        <pt x="330" y="147" on="1"/>
        <pt x="330" y="149" on="1"/>
        <pt x="325" y="188" on="0"/>
        <pt x="320" y="393" on="0"/>
        <pt x="320" y="448" on="1"/>
        <pt x="320" y="684" on="1"/>
      </contour>
    </TTGlyph>
    <TTGlyph name="Nacute" xMin="44" yMin="0" xMax="401" yMax="922">
      <component glyphName=".ttfautohint" x="44" y="0" flags="0x0"/>
      <component glyphName="N" x="0" y="0" flags="0x1000"/>
      <component glyphName="acute" x="94" y="200" flags="0x1000"/>
    </TTGlyph>
    <TTGlyph name="Ncaron" xMin="44" yMin="0" xMax="401" yMax="919">
      <component glyphName=".ttfautohint" x="44" y="0" flags="0x0"/>
      <component glyphName="N" x="0" y="0" flags="0x1000"/>
      <component glyphName="caron" x="87" y="200" flags="0x1000"/>
    </TTGlyph>
    <TTGlyph name="Ncommaaccent" xMin="44" yMin="-255" xMax="401" yMax="700">
      <component glyphName=".ttfautohint" x="44" y="0" flags="0x0"/>
      <component glyphName="N" x="0" y="0" flags="0x1000"/>
      <component glyphName="commaaccentcomb" x="87" y="0" flags="0x1000"/>
    </TTGlyph>
    <TTGlyph name="Ntilde" xMin="44" yMin="0" xMax="401" yMax="887">
      <component glyphName=".ttfautohint" x="44" y="0" flags="0x0"/>
      <component glyphName="N" x="0" y="0" flags="0x1000"/>
      <component glyphName="tilde" x="88" y="200" flags="0x1000"/>
    </TTGlyph>
    <TTGlyph name="O" xMin="30" yMin="-10" xMax="399" yMax="710">
      <contour>
        <pt x="30" y="486" on="0"/>
        <pt x="71" y="642" on="0"/>
        <pt x="155" y="710" on="0"/>
        <pt x="222" y="710" on="1"/>
        <pt x="288" y="710" on="0"/>
        <pt x="364" y="645" on="0"/>
        <pt x="399" y="493" on="0"/>
        <pt x="399" y="357" on="1"/>
        <pt x="399" y="220" on="0"/>
        <pt x="360" y="60" on="0"/>
        <pt x="278" y="-10" on="0"/>
        <pt x="211" y="-10" on="1"/>
        <pt x="143" y="-10" on="0"/>
        <pt x="66" y="53" on="0"/>
        <pt x="30" y="210" on="0"/>
        <pt x="30" y="354" on="1"/>
      </contour>
      <contour>
        <pt x="121" y="238" on="0"/>
        <pt x="138" y="125" on="0"/>
        <pt x="178" y="73" on="0"/>
        <pt x="214" y="73" on="1"/>
        <pt x="251" y="73" on="0"/>
        <pt x="293" y="129" on="0"/>
        <pt x="312" y="251" on="0"/>
        <pt x="312" y="355" on="1"/>
        <pt x="312" y="459" on="0"/>
        <pt x="296" y="575" on="0"/>
        <pt x="256" y="627" on="0"/>
        <pt x="220" y="627" on="1"/>
        <pt x="184" y="627" on="0"/>
        <pt x="141" y="570" on="0"/>
        <pt x="121" y="443" on="0"/>
        <pt x="121" y="334" on="1"/>
      </contour>
    </TTGlyph>
    <TTGlyph name="OE" xMin="27" yMin="-9" xMax="572" yMax="709">
      <contour>
        <pt x="568" y="44" on="0"/>
        <pt x="567" y="8" on="0"/>
        <pt x="561" y="0" on="0"/>
        <pt x="553" y="0" on="1"/>
        <pt x="329" y="0" on="1"/>
        <pt x="329" y="41" on="1"/>
        <pt x="288" y="-9" on="0"/>
        <pt x="208" y="-9" on="1"/>
        <pt x="141" y="-9" on="0"/>
        <pt x="63" y="55" on="0"/>
        <pt x="27" y="211" on="0"/>
        <pt x="27" y="353" on="1"/>
        <pt x="27" y="483" on="0"/>
        <pt x="67" y="639" on="0"/>
        <pt x="150" y="709" on="0"/>
        <pt x="216" y="709" on="1"/>
        <pt x="291" y="709" on="0"/>
        <pt x="329" y="668" on="1"/>
        <pt x="329" y="684" on="1"/>
        <pt x="329" y="688" on="0"/>
        <pt x="336" y="700" on="0"/>
        <pt x="345" y="700" on="1"/>
        <pt x="572" y="700" on="1"/>
        <pt x="572" y="672" on="0"/>
        <pt x="571" y="636" on="0"/>
        <pt x="565" y="627" on="0"/>
        <pt x="557" y="627" on="1"/>
        <pt x="396" y="627" on="1"/>
        <pt x="396" y="418" on="1"/>
        <pt x="548" y="418" on="1"/>
        <pt x="548" y="391" on="0"/>
        <pt x="547" y="355" on="0"/>
        <pt x="541" y="344" on="0"/>
        <pt x="533" y="344" on="1"/>
        <pt x="396" y="344" on="1"/>
        <pt x="396" y="73" on="1"/>
        <pt x="568" y="73" on="1"/>
      </contour>
      <contour>
        <pt x="247" y="70" on="0"/>
        <pt x="288" y="127" on="0"/>
        <pt x="305" y="250" on="0"/>
        <pt x="305" y="355" on="1"/>
        <pt x="305" y="461" on="0"/>
        <pt x="291" y="578" on="0"/>
        <pt x="252" y="633" on="0"/>
        <pt x="216" y="633" on="1"/>
        <pt x="181" y="633" on="0"/>
        <pt x="137" y="574" on="0"/>
        <pt x="117" y="443" on="0"/>
        <pt x="117" y="334" on="1"/>
        <pt x="117" y="238" on="0"/>
        <pt x="134" y="124" on="0"/>
        <pt x="175" y="70" on="0"/>
        <pt x="211" y="70" on="1"/>
      </contour>
    </TTGlyph>
    <TTGlyph name="Oacute" xMin="30" yMin="-10" xMax="399" yMax="922">
      <component glyphName=".ttfautohint" x="30" y="0" flags="0x0"/>
      <component glyphName="O" x="0" y="0" flags="0x1000"/>
      <component glyphName="acute" x="87" y="200" flags="0x1000"/>
    </TTGlyph>
    <TTGlyph name="Ocircumflex" xMin="30" yMin="-10" xMax="399" yMax="911">
      <component glyphName=".ttfautohint" x="30" y="0" flags="0x0"/>
      <component glyphName="O" x="0" y="0" flags="0x1000"/>
      <component glyphName="circumflex" x="80" y="200" flags="0x1000"/>
    </TTGlyph>
    <TTGlyph name="Odieresis" xMin="30" yMin="-10" xMax="399" yMax="889">
      <component glyphName=".ttfautohint" x="30" y="0" flags="0x0"/>
      <component glyphName="O" x="0" y="0" flags="0x1000"/>
      <component glyphName="dieresis" x="80" y="200" flags="0x1000"/>
    </TTGlyph>
    <TTGlyph name="Ograve" xMin="30" yMin="-10" xMax="399" yMax="916">
      <component glyphName=".ttfautohint" x="30" y="0" flags="0x0"/>
      <component glyphName="O" x="0" y="0" flags="0x1000"/>
      <component glyphName="grave" x="87" y="200" flags="0x1000"/>
    </TTGlyph>
    <TTGlyph name="Ohm" xMin="36" yMin="0" xMax="400" yMax="710">
      <component glyphName=".ttfautohint" x="36" y="0" flags="0x0"/>
      <component glyphName="Omega" x="0" y="0" flags="0x1000"/>
    </TTGlyph>
    <TTGlyph name="Ohungarumlaut" xMin="30" yMin="-10" xMax="399" yMax="920">
      <component glyphName=".ttfautohint" x="30" y="0" flags="0x0"/>
      <component glyphName="O" x="0" y="0" flags="0x1000"/>
      <component glyphName="hungarumlaut" x="99" y="200" flags="0x1000"/>
    </TTGlyph>
    <TTGlyph name="Omacron" xMin="30" yMin="-10" xMax="399" yMax="863">
      <component glyphName=".ttfautohint" x="30" y="0" flags="0x0"/>
      <component glyphName="O" x="0" y="0" flags="0x1000"/>
      <component glyphName="macron" x="80" y="200" flags="0x1000"/>
    </TTGlyph>
    <TTGlyph name="Omega" xMin="36" yMin="0" xMax="400" yMax="710">
      <contour>
        <pt x="316" y="174" on="0"/>
        <pt x="316" y="349" on="1"/>
        <pt x="316" y="499" on="0"/>
        <pt x="271" y="625" on="0"/>
        <pt x="221" y="625" on="1"/>
        <pt x="187" y="625" on="0"/>
        <pt x="143" y="581" on="0"/>
        <pt x="121" y="471" on="0"/>
        <pt x="121" y="372" on="1"/>
        <pt x="121" y="265" on="0"/>
        <pt x="163" y="65" on="0"/>
        <pt x="192" y="0" on="1"/>
        <pt x="42" y="0" on="1"/>
        <pt x="36" y="16" on="0"/>
        <pt x="36" y="36" on="1"/>
        <pt x="36" y="76" on="0"/>
        <pt x="62" y="76" on="1"/>
        <pt x="113" y="76" on="1"/>
        <pt x="84" y="119" on="0"/>
        <pt x="39" y="278" on="0"/>
        <pt x="39" y="385" on="1"/>
        <pt x="39" y="555" on="0"/>
        <pt x="130" y="710" on="0"/>
        <pt x="231" y="710" on="1"/>
        <pt x="294" y="710" on="0"/>
        <pt x="366" y="644" on="0"/>
        <pt x="398" y="505" on="0"/>
        <pt x="398" y="388" on="1"/>
        <pt x="398" y="275" on="0"/>
        <pt x="351" y="112" on="0"/>
        <pt x="322" y="76" on="1"/>
        <pt x="392" y="76" on="1"/>
        <pt x="400" y="56" on="0"/>
        <pt x="400" y="39" on="1"/>
        <pt x="400" y="24" on="0"/>
        <pt x="386" y="0" on="0"/>
        <pt x="372" y="0" on="1"/>
        <pt x="243" y="0" on="1"/>
      </contour>
    </TTGlyph>
    <TTGlyph name="Oslash" xMin="24" yMin="-16" xMax="414" yMax="719">
      <contour>
        <pt x="416" y="686" on="0"/>
        <pt x="381" y="584" on="1"/>
        <pt x="403" y="505" on="0"/>
        <pt x="403" y="357" on="1"/>
        <pt x="403" y="220" on="0"/>
        <pt x="363" y="60" on="0"/>
        <pt x="281" y="-10" on="0"/>
        <pt x="214" y="-10" on="1"/>
        <pt x="134" y="-10" on="0"/>
        <pt x="94" y="35" on="1"/>
        <pt x="103" y="59" on="0"/>
        <pt x="73" y="-16" on="1"/>
        <pt x="59" y="-16" on="0"/>
        <pt x="26" y="-2" on="0"/>
        <pt x="24" y="9" on="1"/>
        <pt x="23" y="16" on="0"/>
        <pt x="59" y="103" on="1"/>
        <pt x="33" y="184" on="0"/>
        <pt x="33" y="354" on="1"/>
        <pt x="33" y="486" on="0"/>
        <pt x="73" y="642" on="0"/>
        <pt x="156" y="710" on="0"/>
        <pt x="222" y="710" on="1"/>
        <pt x="302" y="710" on="0"/>
        <pt x="341" y="664" on="1"/>
        <pt x="359" y="712" on="0"/>
        <pt x="363" y="719" on="1"/>
        <pt x="367" y="719" on="0"/>
        <pt x="390" y="714" on="0"/>
        <pt x="412" y="703" on="0"/>
        <pt x="414" y="694" on="1"/>
      </contour>
      <contour>
        <pt x="261" y="628" on="0"/>
        <pt x="222" y="628" on="1"/>
        <pt x="186" y="628" on="0"/>
        <pt x="144" y="571" on="0"/>
        <pt x="124" y="443" on="0"/>
        <pt x="124" y="334" on="1"/>
        <pt x="124" y="232" on="0"/>
        <pt x="131" y="176" on="1"/>
        <pt x="281" y="599" on="1"/>
      </contour>
      <contour>
        <pt x="247" y="73" on="0"/>
        <pt x="291" y="117" on="0"/>
        <pt x="315" y="239" on="0"/>
        <pt x="315" y="355" on="1"/>
        <pt x="315" y="464" on="0"/>
        <pt x="307" y="517" on="1"/>
        <pt x="243" y="332" on="0"/>
        <pt x="157" y="98" on="1"/>
        <pt x="176" y="73" on="0"/>
        <pt x="211" y="73" on="1"/>
      </contour>
    </TTGlyph>
    <TTGlyph name="Otilde" xMin="30" yMin="-10" xMax="399" yMax="887">
      <component glyphName=".ttfautohint" x="30" y="0" flags="0x0"/>
      <component glyphName="O" x="0" y="0" flags="0x1000"/>
      <component glyphName="tilde" x="80" y="200" flags="0x1000"/>
    </TTGlyph>
    <TTGlyph name="P" xMin="44" yMin="0" xMax="343" yMax="700">
      <contour>
        <pt x="254" y="700" on="0"/>
        <pt x="343" y="606" on="0"/>
        <pt x="343" y="503" on="1"/>
        <pt x="343" y="387" on="0"/>
        <pt x="242" y="284" on="0"/>
        <pt x="160" y="284" on="1"/>
        <pt x="124" y="284" on="1"/>
        <pt x="124" y="16" on="1"/>
        <pt x="124" y="7" on="0"/>
        <pt x="117" y="1" on="0"/>
        <pt x="77" y="0" on="0"/>
        <pt x="44" y="0" on="1"/>
        <pt x="44" y="684" on="1"/>
        <pt x="44" y="700" on="0"/>
        <pt x="60" y="700" on="1"/>
        <pt x="159" y="700" on="1"/>
      </contour>
      <contour>
        <pt x="212" y="359" on="0"/>
        <pt x="254" y="430" on="0"/>
        <pt x="254" y="512" on="1"/>
        <pt x="254" y="629" on="0"/>
        <pt x="174" y="629" on="1"/>
        <pt x="124" y="629" on="1"/>
        <pt x="124" y="359" on="1"/>
        <pt x="168" y="359" on="1"/>
      </contour>
    </TTGlyph>
    <TTGlyph name="Pi" xMin="57" yMin="0" xMax="368" yMax="700">
      <component glyphName=".ttfautohint" x="57" y="0" flags="0x0"/>
      <component glyphName="uni041F" x="0" y="0" flags="0x1000"/>
    </TTGlyph>
    <TTGlyph name="Q" xMin="30" yMin="-137" xMax="410" yMax="710">
      <contour>
        <pt x="410" y="-71" on="0"/>
        <pt x="410" y="-97" on="1"/>
        <pt x="410" y="-118" on="0"/>
        <pt x="353" y="-137" on="0"/>
        <pt x="320" y="-137" on="1"/>
        <pt x="269" y="-137" on="0"/>
        <pt x="207" y="-76" on="0"/>
        <pt x="190" y="-9" on="1"/>
        <pt x="131" y="-5" on="0"/>
        <pt x="62" y="64" on="0"/>
        <pt x="30" y="218" on="0"/>
        <pt x="30" y="354" on="1"/>
        <pt x="30" y="486" on="0"/>
        <pt x="71" y="642" on="0"/>
        <pt x="155" y="710" on="0"/>
        <pt x="222" y="710" on="1"/>
        <pt x="288" y="710" on="0"/>
        <pt x="364" y="645" on="0"/>
        <pt x="399" y="493" on="0"/>
        <pt x="399" y="357" on="1"/>
        <pt x="399" y="194" on="0"/>
        <pt x="343" y="27" on="0"/>
        <pt x="282" y="2" on="1"/>
        <pt x="289" y="-38" on="0"/>
        <pt x="312" y="-70" on="0"/>
        <pt x="335" y="-70" on="1"/>
        <pt x="372" y="-70" on="0"/>
        <pt x="398" y="-53" on="1"/>
      </contour>
      <contour>
        <pt x="121" y="238" on="0"/>
        <pt x="138" y="125" on="0"/>
        <pt x="178" y="73" on="0"/>
        <pt x="214" y="73" on="1"/>
        <pt x="251" y="73" on="0"/>
        <pt x="293" y="129" on="0"/>
        <pt x="312" y="251" on="0"/>
        <pt x="312" y="355" on="1"/>
        <pt x="312" y="459" on="0"/>
        <pt x="296" y="575" on="0"/>
        <pt x="256" y="627" on="0"/>
        <pt x="220" y="627" on="1"/>
        <pt x="184" y="627" on="0"/>
        <pt x="141" y="570" on="0"/>
        <pt x="121" y="443" on="0"/>
        <pt x="121" y="334" on="1"/>
      </contour>
    </TTGlyph>
    <TTGlyph name="R" xMin="44" yMin="-2" xMax="350" yMax="700">
      <contour>
        <pt x="254" y="700" on="0"/>
        <pt x="343" y="606" on="0"/>
        <pt x="343" y="503" on="1"/>
        <pt x="343" y="356" on="0"/>
        <pt x="256" y="307" on="1"/>
        <pt x="338" y="196" on="0"/>
        <pt x="350" y="18" on="1"/>
        <pt x="350" y="6" on="0"/>
        <pt x="336" y="-2" on="0"/>
        <pt x="309" y="-2" on="1"/>
        <pt x="298" y="-2" on="0"/>
        <pt x="262" y="0" on="1"/>
        <pt x="255" y="112" on="0"/>
        <pt x="206" y="251" on="0"/>
        <pt x="179" y="285" on="1"/>
        <pt x="160" y="284" on="1"/>
        <pt x="124" y="284" on="1"/>
        <pt x="124" y="16" on="1"/>
        <pt x="124" y="7" on="0"/>
        <pt x="117" y="1" on="0"/>
        <pt x="77" y="0" on="0"/>
        <pt x="44" y="0" on="1"/>
        <pt x="44" y="684" on="1"/>
        <pt x="44" y="688" on="0"/>
        <pt x="50" y="700" on="0"/>
        <pt x="60" y="700" on="1"/>
        <pt x="159" y="700" on="1"/>
      </contour>
      <contour>
        <pt x="212" y="359" on="0"/>
        <pt x="254" y="428" on="0"/>
        <pt x="254" y="506" on="1"/>
        <pt x="254" y="567" on="0"/>
        <pt x="217" y="629" on="0"/>
        <pt x="174" y="629" on="1"/>
        <pt x="124" y="629" on="1"/>
        <pt x="124" y="359" on="1"/>
        <pt x="168" y="359" on="1"/>
      </contour>
    </TTGlyph>
    <TTGlyph name="Racute" xMin="44" yMin="-2" xMax="350" yMax="922">
      <component glyphName=".ttfautohint" x="44" y="0" flags="0x0"/>
      <component glyphName="R" x="0" y="0" flags="0x1000"/>
      <component glyphName="acute" x="38" y="200" flags="0x1000"/>
    </TTGlyph>
    <TTGlyph name="Rcaron" xMin="44" yMin="-2" xMax="350" yMax="919">
      <component glyphName=".ttfautohint" x="44" y="0" flags="0x0"/>
      <component glyphName="R" x="0" y="0" flags="0x1000"/>
      <component glyphName="caron" x="32" y="200" flags="0x1000"/>
    </TTGlyph>
    <TTGlyph name="Rcommaaccent" xMin="44" yMin="-255" xMax="350" yMax="700">
      <component glyphName=".ttfautohint" x="44" y="0" flags="0x0"/>
      <component glyphName="R" x="0" y="0" flags="0x1000"/>
      <component glyphName="commaaccentcomb" x="51" y="0" flags="0x1000"/>
    </TTGlyph>
    <TTGlyph name="S" xMin="25" yMin="-10" xMax="335" yMax="710">
      <contour>
        <pt x="55" y="464" on="0"/>
        <pt x="26" y="531" on="0"/>
        <pt x="26" y="567" on="1"/>
        <pt x="26" y="632" on="0"/>
        <pt x="117" y="710" on="0"/>
        <pt x="198" y="710" on="1"/>
        <pt x="329" y="710" on="0"/>
        <pt x="329" y="660" on="1"/>
        <pt x="329" y="635" on="0"/>
        <pt x="309" y="614" on="1"/>
        <pt x="298" y="623" on="0"/>
        <pt x="243" y="638" on="0"/>
        <pt x="211" y="638" on="1"/>
        <pt x="166" y="638" on="0"/>
        <pt x="113" y="602" on="0"/>
        <pt x="113" y="569" on="1"/>
        <pt x="113" y="543" on="0"/>
        <pt x="135" y="500" on="0"/>
        <pt x="159" y="470" on="1"/>
        <pt x="268" y="347" on="1"/>
        <pt x="306" y="302" on="0"/>
        <pt x="335" y="226" on="0"/>
        <pt x="335" y="178" on="1"/>
        <pt x="335" y="93" on="0"/>
        <pt x="252" y="-10" on="0"/>
        <pt x="157" y="-10" on="1"/>
        <pt x="94" y="-10" on="0"/>
        <pt x="25" y="26" on="0"/>
        <pt x="25" y="49" on="1"/>
        <pt x="25" y="80" on="0"/>
        <pt x="46" y="107" on="1"/>
        <pt x="85" y="72" on="0"/>
        <pt x="149" y="72" on="1"/>
        <pt x="248" y="72" on="0"/>
        <pt x="248" y="174" on="1"/>
        <pt x="248" y="210" on="0"/>
        <pt x="222" y="267" on="0"/>
        <pt x="189" y="306" on="1"/>
        <pt x="89" y="423" on="1"/>
      </contour>
    </TTGlyph>
    <TTGlyph name="Sacute" xMin="25" yMin="-10" xMax="335" yMax="922">
      <component glyphName=".ttfautohint" x="25" y="0" flags="0x0"/>
      <component glyphName="S" x="0" y="0" flags="0x1000"/>
      <component glyphName="acute" x="51" y="200" flags="0x1000"/>
    </TTGlyph>
    <TTGlyph name="Scaron" xMin="25" yMin="-10" xMax="335" yMax="919">
      <component glyphName=".ttfautohint" x="25" y="0" flags="0x0"/>
      <component glyphName="S" x="0" y="0" flags="0x1000"/>
      <component glyphName="caron" x="44" y="200" flags="0x1000"/>
    </TTGlyph>
    <TTGlyph name="Scedilla" xMin="25" yMin="-206" xMax="335" yMax="710">
      <contour>
        <pt x="306" y="302" on="0"/>
        <pt x="335" y="226" on="0"/>
        <pt x="335" y="178" on="1"/>
        <pt x="335" y="12" on="0"/>
        <pt x="194" y="-8" on="1"/>
        <pt x="184" y="-59" on="1"/>
        <pt x="185" y="-58" on="0"/>
        <pt x="201" y="-58" on="1"/>
        <pt x="221" y="-58" on="0"/>
        <pt x="250" y="-90" on="0"/>
        <pt x="250" y="-122" on="1"/>
        <pt x="250" y="-160" on="0"/>
        <pt x="205" y="-206" on="0"/>
        <pt x="170" y="-206" on="1"/>
        <pt x="151" y="-206" on="0"/>
        <pt x="114" y="-194" on="0"/>
        <pt x="114" y="-193" on="1"/>
        <pt x="115" y="-188" on="0"/>
        <pt x="123" y="-156" on="0"/>
        <pt x="127" y="-152" on="1"/>
        <pt x="130" y="-149" on="0"/>
        <pt x="161" y="-163" on="0"/>
        <pt x="172" y="-163" on="1"/>
        <pt x="203" y="-163" on="0"/>
        <pt x="203" y="-129" on="1"/>
        <pt x="203" y="-95" on="0"/>
        <pt x="173" y="-95" on="1"/>
        <pt x="157" y="-95" on="0"/>
        <pt x="135" y="-100" on="0"/>
        <pt x="132" y="-101" on="1"/>
        <pt x="149" y="-10" on="1"/>
        <pt x="89" y="-9" on="0"/>
        <pt x="25" y="27" on="0"/>
        <pt x="25" y="49" on="1"/>
        <pt x="25" y="80" on="0"/>
        <pt x="46" y="107" on="1"/>
        <pt x="85" y="72" on="0"/>
        <pt x="149" y="72" on="1"/>
        <pt x="248" y="72" on="0"/>
        <pt x="248" y="174" on="1"/>
        <pt x="248" y="210" on="0"/>
        <pt x="222" y="267" on="0"/>
        <pt x="189" y="306" on="1"/>
        <pt x="89" y="423" on="1"/>
        <pt x="55" y="464" on="0"/>
        <pt x="26" y="531" on="0"/>
        <pt x="26" y="567" on="1"/>
        <pt x="26" y="632" on="0"/>
        <pt x="117" y="710" on="0"/>
        <pt x="198" y="710" on="1"/>
        <pt x="329" y="710" on="0"/>
        <pt x="329" y="660" on="1"/>
        <pt x="329" y="635" on="0"/>
        <pt x="309" y="614" on="1"/>
        <pt x="298" y="623" on="0"/>
        <pt x="243" y="638" on="0"/>
        <pt x="211" y="638" on="1"/>
        <pt x="166" y="638" on="0"/>
        <pt x="113" y="602" on="0"/>
        <pt x="113" y="569" on="1"/>
        <pt x="113" y="543" on="0"/>
        <pt x="135" y="500" on="0"/>
        <pt x="159" y="470" on="1"/>
        <pt x="268" y="347" on="1"/>
      </contour>
    </TTGlyph>
    <TTGlyph name="Scommaaccent" xMin="25" yMin="-255" xMax="335" yMax="710">
      <component glyphName=".ttfautohint" x="25" y="0" flags="0x0"/>
      <component glyphName="S" x="0" y="0" flags="0x1000"/>
      <component glyphName="commaaccentcomb" x="44" y="0" flags="0x1000"/>
    </TTGlyph>
    <TTGlyph name="T" xMin="8" yMin="0" xMax="365" yMax="700">
      <contour>
        <pt x="365" y="641" on="1"/>
        <pt x="365" y="624" on="0"/>
        <pt x="348" y="624" on="1"/>
        <pt x="225" y="624" on="1"/>
        <pt x="225" y="16" on="1"/>
        <pt x="225" y="7" on="0"/>
        <pt x="217" y="1" on="0"/>
        <pt x="177" y="0" on="0"/>
        <pt x="144" y="0" on="1"/>
        <pt x="144" y="624" on="1"/>
        <pt x="8" y="624" on="1"/>
        <pt x="8" y="684" on="1"/>
        <pt x="8" y="700" on="0"/>
        <pt x="25" y="700" on="1"/>
        <pt x="365" y="700" on="1"/>
      </contour>
    </TTGlyph>
    <TTGlyph name="Tcaron" xMin="8" yMin="0" xMax="365" yMax="919">
      <component glyphName=".ttfautohint" x="8" y="0" flags="0x0"/>
      <component glyphName="T" x="0" y="0" flags="0x1000"/>
      <component glyphName="caron" x="51" y="200" flags="0x1000"/>
    </TTGlyph>
    <TTGlyph name="Tcedilla" xMin="8" yMin="-206" xMax="365" yMax="700">
      <contour>
        <pt x="365" y="641" on="1"/>
        <pt x="365" y="624" on="0"/>
        <pt x="348" y="624" on="1"/>
        <pt x="225" y="624" on="1"/>
        <pt x="225" y="16" on="1"/>
        <pt x="225" y="8" on="0"/>
        <pt x="217" y="2" on="0"/>
        <pt x="202" y="1" on="1"/>
        <pt x="190" y="-59" on="1"/>
        <pt x="191" y="-58" on="0"/>
        <pt x="207" y="-58" on="1"/>
        <pt x="228" y="-58" on="0"/>
        <pt x="257" y="-90" on="0"/>
        <pt x="257" y="-122" on="1"/>
        <pt x="257" y="-160" on="0"/>
        <pt x="212" y="-206" on="0"/>
        <pt x="177" y="-206" on="1"/>
        <pt x="158" y="-206" on="0"/>
        <pt x="121" y="-194" on="0"/>
        <pt x="121" y="-193" on="1"/>
        <pt x="122" y="-188" on="0"/>
        <pt x="130" y="-156" on="0"/>
        <pt x="134" y="-152" on="1"/>
        <pt x="137" y="-149" on="0"/>
        <pt x="167" y="-163" on="0"/>
        <pt x="178" y="-163" on="1"/>
        <pt x="210" y="-163" on="0"/>
        <pt x="210" y="-129" on="1"/>
        <pt x="210" y="-95" on="0"/>
        <pt x="180" y="-95" on="1"/>
        <pt x="164" y="-95" on="0"/>
        <pt x="141" y="-100" on="0"/>
        <pt x="138" y="-101" on="1"/>
        <pt x="157" y="0" on="1"/>
        <pt x="144" y="0" on="1"/>
        <pt x="144" y="624" on="1"/>
        <pt x="8" y="624" on="1"/>
        <pt x="8" y="684" on="1"/>
        <pt x="8" y="700" on="0"/>
        <pt x="25" y="700" on="1"/>
        <pt x="365" y="700" on="1"/>
      </contour>
    </TTGlyph>
    <TTGlyph name="Thorn" xMin="44" yMin="0" xMax="343" yMax="700">
      <contour>
        <pt x="254" y="566" on="0"/>
        <pt x="343" y="472" on="0"/>
        <pt x="343" y="369" on="1"/>
        <pt x="343" y="253" on="0"/>
        <pt x="242" y="150" on="0"/>
        <pt x="160" y="150" on="1"/>
        <pt x="124" y="150" on="1"/>
        <pt x="124" y="16" on="1"/>
        <pt x="124" y="7" on="0"/>
        <pt x="115" y="1" on="0"/>
        <pt x="76" y="0" on="0"/>
        <pt x="44" y="0" on="1"/>
        <pt x="44" y="680" on="1"/>
        <pt x="44" y="693" on="0"/>
        <pt x="64" y="700" on="0"/>
        <pt x="98" y="700" on="1"/>
        <pt x="124" y="700" on="1"/>
        <pt x="124" y="566" on="1"/>
        <pt x="159" y="566" on="1"/>
      </contour>
      <contour>
        <pt x="168" y="225" on="1"/>
        <pt x="212" y="225" on="0"/>
        <pt x="254" y="296" on="0"/>
        <pt x="254" y="378" on="1"/>
        <pt x="254" y="495" on="0"/>
        <pt x="174" y="495" on="1"/>
        <pt x="149" y="495" on="0"/>
        <pt x="128" y="494" on="0"/>
        <pt x="124" y="494" on="1"/>
        <pt x="124" y="227" on="1"/>
      </contour>
    </TTGlyph>
    <TTGlyph name="U" xMin="44" yMin="-10" xMax="394" yMax="700">
      <contour>
        <pt x="127" y="133" on="0"/>
        <pt x="165" y="65" on="0"/>
        <pt x="224" y="65" on="1"/>
        <pt x="280" y="65" on="0"/>
        <pt x="312" y="82" on="1"/>
        <pt x="312" y="683" on="1"/>
        <pt x="312" y="692" on="0"/>
        <pt x="320" y="698" on="0"/>
        <pt x="360" y="700" on="0"/>
        <pt x="394" y="700" on="1"/>
        <pt x="394" y="26" on="1"/>
        <pt x="373" y="12" on="0"/>
        <pt x="278" y="-10" on="0"/>
        <pt x="224" y="-10" on="1"/>
        <pt x="148" y="-10" on="0"/>
        <pt x="69" y="46" on="0"/>
        <pt x="44" y="137" on="0"/>
        <pt x="44" y="205" on="1"/>
        <pt x="44" y="683" on="1"/>
        <pt x="44" y="692" on="0"/>
        <pt x="51" y="698" on="0"/>
        <pt x="92" y="700" on="0"/>
        <pt x="127" y="700" on="1"/>
        <pt x="127" y="202" on="1"/>
      </contour>
    </TTGlyph>
    <TTGlyph name="Uacute" xMin="44" yMin="-10" xMax="394" yMax="922">
      <component glyphName=".ttfautohint" x="44" y="0" flags="0x0"/>
      <component glyphName="U" x="0" y="0" flags="0x1000"/>
      <component glyphName="acute" x="91" y="200" flags="0x1000"/>
    </TTGlyph>
    <TTGlyph name="Ucircumflex" xMin="44" yMin="-10" xMax="394" yMax="911">
      <component glyphName=".ttfautohint" x="44" y="0" flags="0x0"/>
      <component glyphName="U" x="0" y="0" flags="0x1000"/>
      <component glyphName="circumflex" x="84" y="200" flags="0x1000"/>
    </TTGlyph>
    <TTGlyph name="Udieresis" xMin="44" yMin="-10" xMax="394" yMax="889">
      <component glyphName=".ttfautohint" x="44" y="0" flags="0x0"/>
      <component glyphName="U" x="0" y="0" flags="0x1000"/>
      <component glyphName="dieresis" x="84" y="200" flags="0x1000"/>
    </TTGlyph>
    <TTGlyph name="Ugrave" xMin="44" yMin="-10" xMax="394" yMax="916">
      <component glyphName=".ttfautohint" x="44" y="0" flags="0x0"/>
      <component glyphName="U" x="0" y="0" flags="0x1000"/>
      <component glyphName="grave" x="91" y="200" flags="0x1000"/>
    </TTGlyph>
    <TTGlyph name="Uhungarumlaut" xMin="44" yMin="-10" xMax="394" yMax="920">
      <component glyphName=".ttfautohint" x="44" y="0" flags="0x0"/>
      <component glyphName="U" x="0" y="0" flags="0x1000"/>
      <component glyphName="hungarumlaut" x="103" y="200" flags="0x1000"/>
    </TTGlyph>
    <TTGlyph name="Umacron" xMin="44" yMin="-10" xMax="394" yMax="863">
      <component glyphName=".ttfautohint" x="44" y="0" flags="0x0"/>
      <component glyphName="U" x="0" y="0" flags="0x1000"/>
      <component glyphName="macron" x="84" y="200" flags="0x1000"/>
    </TTGlyph>
    <TTGlyph name="Uogonek" xMin="44" yMin="-195" xMax="394" yMax="700">
      <contour>
        <pt x="363" y="2" on="0"/>
        <pt x="319" y="-72" on="0"/>
        <pt x="319" y="-100" on="1"/>
        <pt x="319" y="-137" on="0"/>
        <pt x="352" y="-137" on="1"/>
        <pt x="367" y="-137" on="0"/>
        <pt x="380" y="-129" on="1"/>
        <pt x="389" y="-149" on="0"/>
        <pt x="389" y="-163" on="1"/>
        <pt x="389" y="-195" on="0"/>
        <pt x="329" y="-195" on="1"/>
        <pt x="247" y="-195" on="0"/>
        <pt x="247" y="-110" on="1"/>
        <pt x="247" y="-60" on="0"/>
        <pt x="290" y="-4" on="1"/>
        <pt x="262" y="-10" on="0"/>
        <pt x="224" y="-10" on="1"/>
        <pt x="148" y="-10" on="0"/>
        <pt x="69" y="46" on="0"/>
        <pt x="44" y="137" on="0"/>
        <pt x="44" y="205" on="1"/>
        <pt x="44" y="683" on="1"/>
        <pt x="44" y="692" on="0"/>
        <pt x="51" y="698" on="0"/>
        <pt x="92" y="700" on="0"/>
        <pt x="127" y="700" on="1"/>
        <pt x="127" y="202" on="1"/>
        <pt x="127" y="133" on="0"/>
        <pt x="165" y="65" on="0"/>
        <pt x="224" y="65" on="1"/>
        <pt x="280" y="65" on="0"/>
        <pt x="312" y="82" on="1"/>
        <pt x="312" y="683" on="1"/>
        <pt x="312" y="692" on="0"/>
        <pt x="320" y="698" on="0"/>
        <pt x="360" y="700" on="0"/>
        <pt x="394" y="700" on="1"/>
        <pt x="394" y="26" on="1"/>
      </contour>
    </TTGlyph>
    <TTGlyph name="Uring" xMin="44" yMin="-10" xMax="394" yMax="937">
      <component glyphName=".ttfautohint" x="44" y="0" flags="0x0"/>
      <component glyphName="U" x="0" y="0" flags="0x1000"/>
      <component glyphName="ring" x="84" y="200" flags="0x1000"/>
    </TTGlyph>
    <TTGlyph name="V" xMin="5" yMin="-7" xMax="416" yMax="700">
      <contour>
        <pt x="233" y="-7" on="0"/>
        <pt x="194" y="-7" on="1"/>
        <pt x="161" y="-7" on="0"/>
        <pt x="146" y="51" on="1"/>
        <pt x="122" y="153" on="0"/>
        <pt x="23" y="601" on="0"/>
        <pt x="7" y="676" on="1"/>
        <pt x="5" y="689" on="1"/>
        <pt x="5" y="700" on="0"/>
        <pt x="24" y="700" on="1"/>
        <pt x="90" y="700" on="1"/>
        <pt x="174" y="312" on="1"/>
        <pt x="187" y="246" on="0"/>
        <pt x="208" y="106" on="1"/>
        <pt x="214" y="69" on="1"/>
        <pt x="232" y="215" on="0"/>
        <pt x="250" y="312" on="1"/>
        <pt x="325" y="676" on="1"/>
        <pt x="328" y="689" on="0"/>
        <pt x="336" y="700" on="0"/>
        <pt x="346" y="700" on="1"/>
        <pt x="416" y="700" on="1"/>
        <pt x="262" y="-3" on="1"/>
      </contour>
    </TTGlyph>
    <TTGlyph name="W" xMin="5" yMin="-8" xMax="650" yMax="700">
      <contour>
        <pt x="518" y="-3" on="1"/>
        <pt x="471" y="-8" on="0"/>
        <pt x="451" y="-8" on="1"/>
        <pt x="419" y="-8" on="0"/>
        <pt x="408" y="49" on="1"/>
        <pt x="356" y="276" on="1"/>
        <pt x="344" y="337" on="0"/>
        <pt x="325" y="505" on="1"/>
        <pt x="306" y="342" on="0"/>
        <pt x="296" y="277" on="1"/>
        <pt x="241" y="-3" on="1"/>
        <pt x="208" y="-7" on="0"/>
        <pt x="167" y="-7" on="1"/>
        <pt x="140" y="-7" on="0"/>
        <pt x="126" y="54" on="1"/>
        <pt x="105" y="158" on="0"/>
        <pt x="21" y="602" on="0"/>
        <pt x="7" y="676" on="1"/>
        <pt x="5" y="684" on="0"/>
        <pt x="5" y="687" on="1"/>
        <pt x="5" y="700" on="0"/>
        <pt x="24" y="700" on="1"/>
        <pt x="90" y="700" on="1"/>
        <pt x="163" y="311" on="1"/>
        <pt x="178" y="220" on="0"/>
        <pt x="193" y="88" on="1"/>
        <pt x="198" y="88" on="1"/>
        <pt x="203" y="187" on="0"/>
        <pt x="224" y="311" on="1"/>
        <pt x="286" y="642" on="1"/>
        <pt x="289" y="656" on="0"/>
        <pt x="296" y="666" on="0"/>
        <pt x="307" y="666" on="1"/>
        <pt x="342" y="666" on="1"/>
        <pt x="364" y="666" on="1"/>
        <pt x="435" y="311" on="1"/>
        <pt x="448" y="246" on="0"/>
        <pt x="461" y="126" on="1"/>
        <pt x="465" y="88" on="1"/>
        <pt x="471" y="88" on="1"/>
        <pt x="482" y="220" on="0"/>
        <pt x="496" y="311" on="1"/>
        <pt x="561" y="676" on="1"/>
        <pt x="563" y="689" on="0"/>
        <pt x="570" y="700" on="0"/>
        <pt x="581" y="700" on="1"/>
        <pt x="650" y="700" on="1"/>
      </contour>
    </TTGlyph>
    <TTGlyph name="Wacute" xMin="5" yMin="-8" xMax="650" yMax="922">
      <component glyphName=".ttfautohint" x="5" y="0" flags="0x0"/>
      <component glyphName="W" x="0" y="0" flags="0x1000"/>
      <component glyphName="acute" x="199" y="200" flags="0x1000"/>
    </TTGlyph>
    <TTGlyph name="Wcircumflex" xMin="5" yMin="-8" xMax="650" yMax="911">
      <component glyphName=".ttfautohint" x="5" y="0" flags="0x0"/>
      <component glyphName="W" x="0" y="0" flags="0x1000"/>
      <component glyphName="circumflex" x="193" y="200" flags="0x1000"/>
    </TTGlyph>
    <TTGlyph name="Wdieresis" xMin="5" yMin="-8" xMax="650" yMax="889">
      <component glyphName=".ttfautohint" x="5" y="0" flags="0x0"/>
      <component glyphName="W" x="0" y="0" flags="0x1000"/>
      <component glyphName="dieresis" x="193" y="200" flags="0x1000"/>
    </TTGlyph>
    <TTGlyph name="Wgrave" xMin="5" yMin="-8" xMax="650" yMax="916">
      <component glyphName=".ttfautohint" x="5" y="0" flags="0x0"/>
      <component glyphName="W" x="0" y="0" flags="0x1000"/>
      <component glyphName="grave" x="199" y="200" flags="0x1000"/>
    </TTGlyph>
    <TTGlyph name="X" xMin="9" yMin="0" xMax="413" yMax="700">
      <contour>
        <pt x="413" y="11" on="0"/>
        <pt x="413" y="7" on="1"/>
        <pt x="413" y="0" on="0"/>
        <pt x="403" y="0" on="1"/>
        <pt x="315" y="0" on="1"/>
        <pt x="261" y="135" on="1"/>
        <pt x="231" y="213" on="0"/>
        <pt x="207" y="284" on="1"/>
        <pt x="180" y="203" on="0"/>
        <pt x="151" y="135" on="1"/>
        <pt x="97" y="10" on="1"/>
        <pt x="91" y="0" on="0"/>
        <pt x="79" y="0" on="1"/>
        <pt x="9" y="0" on="1"/>
        <pt x="162" y="362" on="1"/>
        <pt x="36" y="686" on="1"/>
        <pt x="33" y="694" on="0"/>
        <pt x="42" y="699" on="0"/>
        <pt x="91" y="700" on="0"/>
        <pt x="131" y="700" on="1"/>
        <pt x="172" y="586" on="1"/>
        <pt x="190" y="537" on="0"/>
        <pt x="221" y="436" on="1"/>
        <pt x="247" y="523" on="0"/>
        <pt x="271" y="586" on="1"/>
        <pt x="310" y="687" on="1"/>
        <pt x="312" y="694" on="0"/>
        <pt x="321" y="699" on="0"/>
        <pt x="362" y="700" on="0"/>
        <pt x="397" y="700" on="1"/>
        <pt x="268" y="368" on="1"/>
        <pt x="412" y="13" on="1"/>
      </contour>
    </TTGlyph>
    <TTGlyph name="Y" xMin="6" yMin="0" xMax="360" yMax="700">
      <contour>
        <pt x="225" y="7" on="0"/>
        <pt x="218" y="1" on="0"/>
        <pt x="178" y="0" on="0"/>
        <pt x="144" y="0" on="1"/>
        <pt x="144" y="284" on="1"/>
        <pt x="6" y="687" on="1"/>
        <pt x="4" y="694" on="0"/>
        <pt x="12" y="699" on="0"/>
        <pt x="58" y="700" on="0"/>
        <pt x="97" y="700" on="1"/>
        <pt x="137" y="563" on="1"/>
        <pt x="152" y="516" on="0"/>
        <pt x="185" y="376" on="0"/>
        <pt x="187" y="353" on="1"/>
        <pt x="189" y="375" on="0"/>
        <pt x="223" y="516" on="0"/>
        <pt x="238" y="563" on="1"/>
        <pt x="273" y="685" on="1"/>
        <pt x="275" y="693" on="0"/>
        <pt x="284" y="699" on="0"/>
        <pt x="325" y="700" on="0"/>
        <pt x="360" y="700" on="1"/>
        <pt x="225" y="288" on="1"/>
        <pt x="225" y="16" on="1"/>
      </contour>
    </TTGlyph>
    <TTGlyph name="Yacute" xMin="6" yMin="0" xMax="360" yMax="922">
      <component glyphName=".ttfautohint" x="6" y="0" flags="0x0"/>
      <component glyphName="Y" x="0" y="0" flags="0x1000"/>
      <component glyphName="acute" x="54" y="200" flags="0x1000"/>
    </TTGlyph>
    <TTGlyph name="Ycircumflex" xMin="6" yMin="0" xMax="360" yMax="911">
      <component glyphName=".ttfautohint" x="6" y="0" flags="0x0"/>
      <component glyphName="Y" x="0" y="0" flags="0x1000"/>
      <component glyphName="circumflex" x="48" y="200" flags="0x1000"/>
    </TTGlyph>
    <TTGlyph name="Ydieresis" xMin="6" yMin="0" xMax="360" yMax="889">
      <component glyphName=".ttfautohint" x="6" y="0" flags="0x0"/>
      <component glyphName="Y" x="0" y="0" flags="0x1000"/>
      <component glyphName="dieresis" x="48" y="200" flags="0x1000"/>
    </TTGlyph>
    <TTGlyph name="Ygrave" xMin="6" yMin="0" xMax="360" yMax="916">
      <component glyphName=".ttfautohint" x="6" y="0" flags="0x0"/>
      <component glyphName="Y" x="0" y="0" flags="0x1000"/>
      <component glyphName="grave" x="54" y="200" flags="0x1000"/>
    </TTGlyph>
    <TTGlyph name="Z" xMin="19" yMin="0" xMax="361" yMax="700">
      <contour>
        <pt x="37" y="700" on="0"/>
        <pt x="54" y="700" on="1"/>
        <pt x="352" y="700" on="1"/>
        <pt x="360" y="689" on="0"/>
        <pt x="360" y="674" on="1"/>
        <pt x="360" y="656" on="0"/>
        <pt x="352" y="637" on="1"/>
        <pt x="108" y="72" on="1"/>
        <pt x="302" y="72" on="1"/>
        <pt x="343" y="72" on="0"/>
        <pt x="361" y="80" on="1"/>
        <pt x="361" y="16" on="1"/>
        <pt x="361" y="0" on="0"/>
        <pt x="345" y="0" on="1"/>
        <pt x="32" y="0" on="1"/>
        <pt x="19" y="11" on="0"/>
        <pt x="19" y="31" on="1"/>
        <pt x="19" y="50" on="0"/>
        <pt x="27" y="67" on="1"/>
        <pt x="267" y="628" on="1"/>
        <pt x="80" y="628" on="1"/>
        <pt x="49" y="628" on="0"/>
        <pt x="37" y="625" on="1"/>
        <pt x="37" y="683" on="1"/>
      </contour>
    </TTGlyph>
    <TTGlyph name="Zacute" xMin="19" yMin="0" xMax="361" yMax="922">
      <component glyphName=".ttfautohint" x="19" y="0" flags="0x0"/>
      <component glyphName="Z" x="0" y="0" flags="0x1000"/>
      <component glyphName="acute" x="64" y="200" flags="0x1000"/>
    </TTGlyph>
    <TTGlyph name="Zcaron" xMin="19" yMin="0" xMax="361" yMax="919">
      <component glyphName=".ttfautohint" x="19" y="0" flags="0x0"/>
      <component glyphName="Z" x="0" y="0" flags="0x1000"/>
      <component glyphName="caron" x="58" y="200" flags="0x1000"/>
    </TTGlyph>
    <TTGlyph name="Zdotaccent" xMin="19" yMin="0" xMax="361" yMax="892">
      <component glyphName=".ttfautohint" x="19" y="0" flags="0x0"/>
      <component glyphName="Z" x="0" y="0" flags="0x1000"/>
      <component glyphName="dotaccent" x="58" y="200" flags="0x1000"/>
    </TTGlyph>
    <TTGlyph name="a" xMin="29" yMin="-10" xMax="317" yMax="510">
      <contour>
        <pt x="317" y="115" on="0"/>
        <pt x="311" y="24" on="1"/>
        <pt x="255" y="-10" on="0"/>
        <pt x="167" y="-10" on="1"/>
        <pt x="125" y="-10" on="0"/>
        <pt x="66" y="12" on="0"/>
        <pt x="29" y="78" on="0"/>
        <pt x="29" y="142" on="1"/>
        <pt x="29" y="237" on="0"/>
        <pt x="102" y="306" on="0"/>
        <pt x="163" y="306" on="1"/>
        <pt x="210" y="306" on="0"/>
        <pt x="236" y="293" on="1"/>
        <pt x="236" y="372" on="1"/>
        <pt x="236" y="406" on="0"/>
        <pt x="206" y="432" on="0"/>
        <pt x="174" y="432" on="1"/>
        <pt x="97" y="432" on="0"/>
        <pt x="41" y="409" on="1"/>
        <pt x="30" y="430" on="0"/>
        <pt x="30" y="456" on="1"/>
        <pt x="30" y="476" on="0"/>
        <pt x="41" y="483" on="1"/>
        <pt x="56" y="493" on="0"/>
        <pt x="142" y="510" on="0"/>
        <pt x="194" y="510" on="1"/>
        <pt x="259" y="510" on="0"/>
        <pt x="317" y="454" on="0"/>
        <pt x="317" y="388" on="1"/>
        <pt x="317" y="335" on="1"/>
      </contour>
      <contour>
        <pt x="217" y="246" on="0"/>
        <pt x="189" y="246" on="1"/>
        <pt x="153" y="246" on="0"/>
        <pt x="113" y="204" on="0"/>
        <pt x="113" y="144" on="1"/>
        <pt x="113" y="93" on="0"/>
        <pt x="146" y="58" on="0"/>
        <pt x="180" y="58" on="1"/>
        <pt x="215" y="58" on="0"/>
        <pt x="233" y="74" on="1"/>
        <pt x="236" y="108" on="0"/>
        <pt x="236" y="236" on="1"/>
      </contour>
    </TTGlyph>
    <TTGlyph name="aacute" xMin="29" yMin="-10" xMax="317" yMax="722">
      <component glyphName=".ttfautohint" x="29" y="0" flags="0x0"/>
      <component glyphName="a" x="0" y="0" flags="0x1000"/>
      <component glyphName="acute" x="47" y="0" flags="0x1000"/>
    </TTGlyph>
    <TTGlyph name="abreve" xMin="29" yMin="-10" xMax="317" yMax="713">
      <component glyphName=".ttfautohint" x="29" y="0" flags="0x0"/>
      <component glyphName="a" x="0" y="0" flags="0x1000"/>
      <component glyphName="breve" x="40" y="0" flags="0x1000"/>
    </TTGlyph>
    <TTGlyph name="acircumflex" xMin="29" yMin="-10" xMax="317" yMax="711">
      <component glyphName=".ttfautohint" x="29" y="0" flags="0x0"/>
      <component glyphName="a" x="0" y="0" flags="0x1000"/>
      <component glyphName="circumflex" x="40" y="0" flags="0x1000"/>
    </TTGlyph>
    <TTGlyph name="acute" xMin="49" yMin="560" xMax="220" yMax="722">
      <contour>
        <pt x="72" y="560" on="0"/>
        <pt x="58" y="580" on="0"/>
        <pt x="50" y="602" on="0"/>
        <pt x="49" y="605" on="1"/>
        <pt x="81" y="641" on="0"/>
        <pt x="176" y="722" on="0"/>
        <pt x="183" y="722" on="1"/>
        <pt x="196" y="722" on="0"/>
        <pt x="216" y="683" on="0"/>
        <pt x="220" y="661" on="1"/>
        <pt x="208" y="648" on="0"/>
        <pt x="106" y="574" on="0"/>
        <pt x="80" y="560" on="1"/>
      </contour>
    </TTGlyph>
    <TTGlyph name="adieresis" xMin="29" yMin="-10" xMax="317" yMax="689">
      <component glyphName=".ttfautohint" x="29" y="0" flags="0x0"/>
      <component glyphName="a" x="0" y="0" flags="0x1000"/>
      <component glyphName="dieresis" x="40" y="0" flags="0x1000"/>
    </TTGlyph>
    <TTGlyph name="ae" xMin="29" yMin="-9" xMax="545" yMax="510">
      <contour>
        <pt x="478" y="69" on="0"/>
        <pt x="532" y="100" on="1"/>
        <pt x="539" y="79" on="0"/>
        <pt x="539" y="28" on="1"/>
        <pt x="539" y="21" on="0"/>
        <pt x="500" y="4" on="0"/>
        <pt x="436" y="-9" on="0"/>
        <pt x="401" y="-9" on="1"/>
        <pt x="334" y="-9" on="0"/>
        <pt x="302" y="20" on="1"/>
        <pt x="254" y="-9" on="0"/>
        <pt x="166" y="-9" on="1"/>
        <pt x="123" y="-9" on="0"/>
        <pt x="66" y="12" on="0"/>
        <pt x="29" y="80" on="0"/>
        <pt x="29" y="148" on="1"/>
        <pt x="29" y="319" on="0"/>
        <pt x="160" y="319" on="1"/>
        <pt x="210" y="319" on="0"/>
        <pt x="236" y="306" on="1"/>
        <pt x="236" y="378" on="1"/>
        <pt x="236" y="412" on="0"/>
        <pt x="200" y="438" on="0"/>
        <pt x="168" y="438" on="1"/>
        <pt x="93" y="438" on="0"/>
        <pt x="42" y="411" on="1"/>
        <pt x="32" y="429" on="0"/>
        <pt x="32" y="459" on="1"/>
        <pt x="32" y="473" on="0"/>
        <pt x="42" y="483" on="1"/>
        <pt x="58" y="494" on="0"/>
        <pt x="138" y="510" on="0"/>
        <pt x="197" y="510" on="1"/>
        <pt x="238" y="510" on="0"/>
        <pt x="286" y="483" on="0"/>
        <pt x="296" y="453" on="1"/>
        <pt x="317" y="487" on="0"/>
        <pt x="376" y="510" on="0"/>
        <pt x="418" y="510" on="1"/>
        <pt x="545" y="510" on="0"/>
        <pt x="545" y="351" on="1"/>
        <pt x="545" y="270" on="0"/>
        <pt x="534" y="220" on="1"/>
        <pt x="488" y="214" on="0"/>
        <pt x="447" y="214" on="1"/>
        <pt x="386" y="214" on="0"/>
        <pt x="324" y="225" on="1"/>
        <pt x="324" y="157" on="0"/>
        <pt x="343" y="90" on="0"/>
        <pt x="378" y="69" on="0"/>
        <pt x="410" y="69" on="1"/>
      </contour>
      <contour>
        <pt x="337" y="439" on="0"/>
        <pt x="326" y="290" on="1"/>
        <pt x="382" y="277" on="0"/>
        <pt x="427" y="277" on="1"/>
        <pt x="446" y="277" on="0"/>
        <pt x="462" y="280" on="1"/>
        <pt x="467" y="303" on="0"/>
        <pt x="467" y="342" on="1"/>
        <pt x="466" y="397" on="0"/>
        <pt x="442" y="439" on="0"/>
        <pt x="409" y="439" on="1"/>
      </contour>
      <contour>
        <pt x="217" y="258" on="0"/>
        <pt x="189" y="258" on="1"/>
        <pt x="154" y="258" on="0"/>
        <pt x="113" y="211" on="0"/>
        <pt x="113" y="149" on="1"/>
        <pt x="113" y="110" on="0"/>
        <pt x="129" y="70" on="0"/>
        <pt x="156" y="58" on="0"/>
        <pt x="178" y="58" on="1"/>
        <pt x="195" y="58" on="0"/>
        <pt x="230" y="67" on="0"/>
        <pt x="236" y="74" on="1"/>
        <pt x="236" y="250" on="1"/>
      </contour>
    </TTGlyph>
    <TTGlyph name="agrave" xMin="29" yMin="-10" xMax="317" yMax="716">
      <component glyphName=".ttfautohint" x="29" y="0" flags="0x0"/>
      <component glyphName="a" x="0" y="0" flags="0x1000"/>
      <component glyphName="grave" x="47" y="0" flags="0x1000"/>
    </TTGlyph>
    <TTGlyph name="amacron" xMin="29" yMin="-10" xMax="317" yMax="663">
      <component glyphName=".ttfautohint" x="29" y="0" flags="0x0"/>
      <component glyphName="a" x="0" y="0" flags="0x1000"/>
      <component glyphName="macron" x="40" y="0" flags="0x1000"/>
    </TTGlyph>
    <TTGlyph name="ampersand" xMin="27" yMin="-10" xMax="488" yMax="706">
      <contour>
        <pt x="411" y="405" on="0"/>
        <pt x="429" y="343" on="0"/>
        <pt x="429" y="281" on="1"/>
        <pt x="429" y="195" on="0"/>
        <pt x="404" y="128" on="1"/>
        <pt x="459" y="68" on="0"/>
        <pt x="488" y="55" on="1"/>
        <pt x="485" y="31" on="0"/>
        <pt x="450" y="-10" on="0"/>
        <pt x="435" y="-10" on="1"/>
        <pt x="421" y="-10" on="0"/>
        <pt x="362" y="54" on="1"/>
        <pt x="306" y="-10" on="0"/>
        <pt x="212" y="-10" on="1"/>
        <pt x="27" y="-10" on="0"/>
        <pt x="27" y="170" on="1"/>
        <pt x="27" y="230" on="0"/>
        <pt x="90" y="328" on="0"/>
        <pt x="139" y="358" on="1"/>
        <pt x="61" y="494" on="0"/>
        <pt x="61" y="568" on="1"/>
        <pt x="61" y="636" on="0"/>
        <pt x="148" y="706" on="0"/>
        <pt x="228" y="706" on="1"/>
        <pt x="293" y="706" on="0"/>
        <pt x="377" y="678" on="0"/>
        <pt x="377" y="659" on="1"/>
        <pt x="377" y="644" on="0"/>
        <pt x="366" y="610" on="0"/>
        <pt x="357" y="600" on="1"/>
        <pt x="307" y="635" on="0"/>
        <pt x="237" y="635" on="1"/>
        <pt x="193" y="635" on="0"/>
        <pt x="146" y="604" on="0"/>
        <pt x="146" y="558" on="1"/>
        <pt x="146" y="507" on="0"/>
        <pt x="264" y="301" on="0"/>
        <pt x="343" y="201" on="1"/>
        <pt x="351" y="240" on="0"/>
        <pt x="351" y="291" on="1"/>
        <pt x="351" y="423" on="0"/>
        <pt x="291" y="496" on="1"/>
        <pt x="332" y="504" on="0"/>
        <pt x="405" y="504" on="1"/>
        <pt x="447" y="504" on="0"/>
        <pt x="483" y="501" on="1"/>
        <pt x="483" y="499" on="0"/>
        <pt x="485" y="481" on="0"/>
        <pt x="485" y="472" on="1"/>
        <pt x="485" y="453" on="0"/>
        <pt x="469" y="435" on="0"/>
        <pt x="443" y="436" on="1"/>
        <pt x="394" y="436" on="1"/>
      </contour>
      <contour>
        <pt x="274" y="66" on="0"/>
        <pt x="309" y="115" on="1"/>
        <pt x="242" y="196" on="0"/>
        <pt x="174" y="300" on="1"/>
        <pt x="110" y="254" on="0"/>
        <pt x="110" y="168" on="1"/>
        <pt x="110" y="124" on="0"/>
        <pt x="156" y="66" on="0"/>
        <pt x="207" y="66" on="1"/>
      </contour>
    </TTGlyph>
    <TTGlyph name="ampersand.ss03" xMin="39" yMin="-53" xMax="415" yMax="759">
      <contour>
        <pt x="204" y="334" on="0"/>
        <pt x="128" y="270" on="0"/>
        <pt x="128" y="223" on="1"/>
        <pt x="128" y="183" on="0"/>
        <pt x="184" y="139" on="0"/>
        <pt x="238" y="139" on="1"/>
        <pt x="285" y="139" on="0"/>
        <pt x="360" y="185" on="0"/>
        <pt x="381" y="216" on="1"/>
        <pt x="394" y="202" on="0"/>
        <pt x="415" y="163" on="0"/>
        <pt x="415" y="149" on="1"/>
        <pt x="415" y="137" on="0"/>
        <pt x="383" y="99" on="0"/>
        <pt x="318" y="65" on="0"/>
        <pt x="271" y="59" on="1"/>
        <pt x="271" y="-21" on="1"/>
        <pt x="271" y="-40" on="0"/>
        <pt x="238" y="-53" on="0"/>
        <pt x="198" y="-53" on="1"/>
        <pt x="198" y="57" on="1"/>
        <pt x="39" y="68" on="0"/>
        <pt x="39" y="215" on="1"/>
        <pt x="39" y="274" on="0"/>
        <pt x="98" y="350" on="0"/>
        <pt x="145" y="366" on="1"/>
        <pt x="53" y="382" on="0"/>
        <pt x="53" y="484" on="1"/>
        <pt x="53" y="551" on="0"/>
        <pt x="137" y="638" on="0"/>
        <pt x="207" y="646" on="1"/>
        <pt x="207" y="728" on="1"/>
        <pt x="207" y="747" on="0"/>
        <pt x="241" y="759" on="0"/>
        <pt x="281" y="759" on="1"/>
        <pt x="281" y="645" on="1"/>
        <pt x="321" y="640" on="0"/>
        <pt x="380" y="611" on="0"/>
        <pt x="411" y="578" on="0"/>
        <pt x="411" y="568" on="1"/>
        <pt x="411" y="555" on="0"/>
        <pt x="394" y="516" on="0"/>
        <pt x="383" y="502" on="1"/>
        <pt x="334" y="570" on="0"/>
        <pt x="251" y="570" on="1"/>
        <pt x="198" y="570" on="0"/>
        <pt x="136" y="521" on="0"/>
        <pt x="136" y="480" on="1"/>
        <pt x="136" y="410" on="0"/>
        <pt x="221" y="408" on="1"/>
        <pt x="254" y="408" on="0"/>
        <pt x="282" y="413" on="1"/>
        <pt x="272" y="337" on="1"/>
      </contour>
    </TTGlyph>
    <TTGlyph name="ampersand.ss04" xMin="34" yMin="-9" xMax="620" yMax="686">
      <contour>
        <pt x="394" y="392" on="0"/>
        <pt x="186" y="378" on="0"/>
        <pt x="117" y="378" on="1"/>
        <pt x="117" y="312" on="0"/>
        <pt x="138" y="248" on="0"/>
        <pt x="173" y="231" on="0"/>
        <pt x="201" y="231" on="1"/>
        <pt x="240" y="231" on="0"/>
        <pt x="305" y="271" on="0"/>
        <pt x="321" y="296" on="1"/>
        <pt x="323" y="294" on="0"/>
        <pt x="332" y="277" on="0"/>
        <pt x="341" y="251" on="0"/>
        <pt x="341" y="238" on="1"/>
        <pt x="341" y="224" on="0"/>
        <pt x="303" y="186" on="0"/>
        <pt x="235" y="159" on="0"/>
        <pt x="192" y="159" on="1"/>
        <pt x="138" y="159" on="0"/>
        <pt x="69" y="202" on="0"/>
        <pt x="34" y="307" on="0"/>
        <pt x="34" y="399" on="1"/>
        <pt x="34" y="543" on="0"/>
        <pt x="115" y="686" on="0"/>
        <pt x="211" y="686" on="1"/>
        <pt x="263" y="686" on="0"/>
        <pt x="336" y="620" on="0"/>
        <pt x="336" y="547" on="1"/>
        <pt x="336" y="512" on="0"/>
        <pt x="318" y="454" on="0"/>
        <pt x="302" y="448" on="1"/>
        <pt x="333" y="452" on="0"/>
        <pt x="411" y="464" on="0"/>
        <pt x="427" y="466" on="1"/>
        <pt x="427" y="533" on="1"/>
        <pt x="427" y="580" on="0"/>
        <pt x="464" y="609" on="0"/>
        <pt x="508" y="609" on="1"/>
        <pt x="508" y="475" on="1"/>
        <pt x="547" y="480" on="0"/>
        <pt x="603" y="488" on="0"/>
        <pt x="612" y="490" on="1"/>
        <pt x="612" y="445" on="0"/>
        <pt x="597" y="414" on="0"/>
        <pt x="574" y="411" on="1"/>
        <pt x="567" y="410" on="0"/>
        <pt x="527" y="405" on="0"/>
        <pt x="508" y="403" on="1"/>
        <pt x="508" y="148" on="1"/>
        <pt x="508" y="96" on="0"/>
        <pt x="525" y="58" on="0"/>
        <pt x="549" y="58" on="1"/>
        <pt x="575" y="58" on="0"/>
        <pt x="616" y="67" on="0"/>
        <pt x="616" y="68" on="1"/>
        <pt x="617" y="64" on="0"/>
        <pt x="620" y="39" on="0"/>
        <pt x="620" y="25" on="1"/>
        <pt x="620" y="11" on="0"/>
        <pt x="574" y="-9" on="0"/>
        <pt x="523" y="-9" on="1"/>
        <pt x="486" y="-9" on="0"/>
        <pt x="446" y="15" on="0"/>
        <pt x="427" y="81" on="0"/>
        <pt x="427" y="144" on="1"/>
        <pt x="427" y="395" on="1"/>
      </contour>
      <contour>
        <pt x="261" y="621" on="0"/>
        <pt x="209" y="621" on="1"/>
        <pt x="171" y="621" on="0"/>
        <pt x="121" y="526" on="0"/>
        <pt x="117" y="439" on="1"/>
        <pt x="142" y="439" on="0"/>
        <pt x="211" y="446" on="0"/>
        <pt x="222" y="448" on="1"/>
        <pt x="245" y="454" on="0"/>
        <pt x="261" y="509" on="0"/>
        <pt x="261" y="535" on="1"/>
      </contour>
    </TTGlyph>
    <TTGlyph name="aogonek" xMin="29" yMin="-195" xMax="317" yMax="510">
      <contour>
        <pt x="236" y="406" on="0"/>
        <pt x="206" y="432" on="0"/>
        <pt x="174" y="432" on="1"/>
        <pt x="97" y="432" on="0"/>
        <pt x="41" y="409" on="1"/>
        <pt x="30" y="430" on="0"/>
        <pt x="30" y="456" on="1"/>
        <pt x="30" y="476" on="0"/>
        <pt x="41" y="483" on="1"/>
        <pt x="56" y="493" on="0"/>
        <pt x="142" y="510" on="0"/>
        <pt x="194" y="510" on="1"/>
        <pt x="259" y="510" on="0"/>
        <pt x="317" y="454" on="0"/>
        <pt x="317" y="388" on="1"/>
        <pt x="317" y="335" on="1"/>
        <pt x="317" y="115" on="0"/>
        <pt x="311" y="24" on="1"/>
        <pt x="281" y="0" on="0"/>
        <pt x="240" y="-66" on="0"/>
        <pt x="240" y="-96" on="1"/>
        <pt x="240" y="-136" on="0"/>
        <pt x="273" y="-136" on="1"/>
        <pt x="290" y="-136" on="0"/>
        <pt x="302" y="-129" on="1"/>
        <pt x="310" y="-147" on="0"/>
        <pt x="310" y="-159" on="1"/>
        <pt x="310" y="-162" on="1"/>
        <pt x="310" y="-168" on="0"/>
        <pt x="308" y="-174" on="1"/>
        <pt x="298" y="-195" on="0"/>
        <pt x="251" y="-195" on="1"/>
        <pt x="168" y="-195" on="0"/>
        <pt x="168" y="-107" on="1"/>
        <pt x="168" y="-55" on="0"/>
        <pt x="207" y="-7" on="1"/>
        <pt x="189" y="-10" on="0"/>
        <pt x="167" y="-10" on="1"/>
        <pt x="125" y="-10" on="0"/>
        <pt x="66" y="12" on="0"/>
        <pt x="29" y="78" on="0"/>
        <pt x="29" y="142" on="1"/>
        <pt x="29" y="237" on="0"/>
        <pt x="102" y="306" on="0"/>
        <pt x="163" y="306" on="1"/>
        <pt x="210" y="306" on="0"/>
        <pt x="236" y="293" on="1"/>
        <pt x="236" y="372" on="1"/>
      </contour>
      <contour>
        <pt x="153" y="246" on="0"/>
        <pt x="113" y="204" on="0"/>
        <pt x="113" y="144" on="1"/>
        <pt x="113" y="93" on="0"/>
        <pt x="146" y="58" on="0"/>
        <pt x="180" y="58" on="1"/>
        <pt x="215" y="58" on="0"/>
        <pt x="233" y="74" on="1"/>
        <pt x="236" y="108" on="0"/>
        <pt x="236" y="236" on="1"/>
        <pt x="217" y="246" on="0"/>
        <pt x="189" y="246" on="1"/>
      </contour>
    </TTGlyph>
    <TTGlyph name="apple" xMin="41" yMin="-10" xMax="760" yMax="709">
      <contour>
        <pt x="509" y="709" on="0"/>
        <pt x="671" y="620" on="0"/>
        <pt x="760" y="458" on="0"/>
        <pt x="760" y="349" on="1"/>
        <pt x="760" y="241" on="0"/>
        <pt x="671" y="78" on="0"/>
        <pt x="508" y="-10" on="0"/>
        <pt x="400" y="-10" on="1"/>
        <pt x="292" y="-10" on="0"/>
        <pt x="129" y="78" on="0"/>
        <pt x="41" y="241" on="0"/>
        <pt x="41" y="349" on="1"/>
        <pt x="41" y="457" on="0"/>
        <pt x="129" y="620" on="0"/>
        <pt x="292" y="709" on="0"/>
        <pt x="400" y="709" on="1"/>
      </contour>
      <contour>
        <pt x="383" y="578" on="0"/>
        <pt x="349" y="545" on="0"/>
        <pt x="349" y="515" on="1"/>
        <pt x="349" y="485" on="0"/>
        <pt x="380" y="445" on="0"/>
        <pt x="414" y="417" on="1"/>
        <pt x="459" y="379" on="0"/>
        <pt x="476" y="356" on="1"/>
        <pt x="499" y="384" on="0"/>
        <pt x="539" y="417" on="1"/>
        <pt x="573" y="444" on="0"/>
        <pt x="605" y="485" on="0"/>
        <pt x="605" y="515" on="1"/>
        <pt x="605" y="545" on="0"/>
        <pt x="570" y="578" on="0"/>
        <pt x="543" y="578" on="1"/>
        <pt x="500" y="578" on="0"/>
        <pt x="476" y="534" on="1"/>
        <pt x="452" y="578" on="0"/>
        <pt x="410" y="578" on="1"/>
      </contour>
      <contour>
        <pt x="294" y="539" on="0"/>
        <pt x="300" y="539" on="1"/>
        <pt x="314" y="538" on="1"/>
        <pt x="320" y="538" on="0"/>
        <pt x="331" y="548" on="0"/>
        <pt x="331" y="556" on="1"/>
        <pt x="331" y="574" on="0"/>
        <pt x="310" y="574" on="1"/>
        <pt x="301" y="574" on="0"/>
        <pt x="282" y="571" on="0"/>
        <pt x="275" y="571" on="1"/>
        <pt x="267" y="571" on="0"/>
        <pt x="248" y="574" on="0"/>
        <pt x="240" y="574" on="1"/>
        <pt x="217" y="574" on="0"/>
        <pt x="217" y="556" on="1"/>
        <pt x="217" y="549" on="0"/>
        <pt x="228" y="538" on="0"/>
        <pt x="235" y="538" on="1"/>
        <pt x="249" y="539" on="1"/>
        <pt x="254" y="539" on="0"/>
        <pt x="254" y="527" on="1"/>
        <pt x="254" y="415" on="1"/>
        <pt x="254" y="403" on="0"/>
        <pt x="249" y="403" on="1"/>
        <pt x="235" y="404" on="1"/>
        <pt x="227" y="404" on="0"/>
        <pt x="217" y="395" on="0"/>
        <pt x="217" y="388" on="1"/>
        <pt x="217" y="380" on="0"/>
        <pt x="228" y="368" on="0"/>
        <pt x="238" y="368" on="1"/>
        <pt x="249" y="368" on="0"/>
        <pt x="269" y="373" on="0"/>
        <pt x="276" y="373" on="1"/>
        <pt x="282" y="373" on="0"/>
        <pt x="301" y="368" on="0"/>
        <pt x="310" y="368" on="1"/>
        <pt x="331" y="368" on="0"/>
        <pt x="331" y="388" on="1"/>
        <pt x="331" y="404" on="0"/>
        <pt x="314" y="404" on="1"/>
        <pt x="300" y="403" on="1"/>
        <pt x="294" y="403" on="0"/>
        <pt x="294" y="415" on="1"/>
        <pt x="294" y="527" on="1"/>
      </contour>
      <contour>
        <pt x="627" y="294" on="0"/>
        <pt x="627" y="310" on="1"/>
        <pt x="627" y="329" on="0"/>
        <pt x="608" y="329" on="1"/>
        <pt x="599" y="329" on="0"/>
        <pt x="583" y="326" on="0"/>
        <pt x="575" y="326" on="1"/>
        <pt x="568" y="326" on="0"/>
        <pt x="551" y="329" on="0"/>
        <pt x="543" y="329" on="1"/>
        <pt x="533" y="329" on="0"/>
        <pt x="522" y="317" on="0"/>
        <pt x="522" y="310" on="1"/>
        <pt x="522" y="304" on="0"/>
        <pt x="532" y="294" on="0"/>
        <pt x="539" y="294" on="1"/>
        <pt x="547" y="294" on="1"/>
        <pt x="558" y="294" on="0"/>
        <pt x="558" y="282" on="1"/>
        <pt x="558" y="184" on="1"/>
        <pt x="488" y="311" on="1"/>
        <pt x="486" y="317" on="1"/>
        <pt x="484" y="329" on="0"/>
        <pt x="467" y="329" on="1"/>
        <pt x="461" y="329" on="0"/>
        <pt x="449" y="327" on="0"/>
        <pt x="442" y="327" on="1"/>
        <pt x="432" y="327" on="0"/>
        <pt x="419" y="329" on="0"/>
        <pt x="416" y="329" on="1"/>
        <pt x="402" y="329" on="0"/>
        <pt x="398" y="318" on="1"/>
        <pt x="393" y="329" on="0"/>
        <pt x="381" y="329" on="1"/>
        <pt x="373" y="329" on="0"/>
        <pt x="354" y="326" on="0"/>
        <pt x="346" y="326" on="1"/>
        <pt x="336" y="326" on="0"/>
        <pt x="320" y="329" on="0"/>
        <pt x="314" y="329" on="1"/>
        <pt x="294" y="329" on="0"/>
        <pt x="294" y="310" on="1"/>
        <pt x="294" y="293" on="0"/>
        <pt x="314" y="293" on="1"/>
        <pt x="319" y="294" on="1"/>
        <pt x="301" y="262" on="0"/>
        <pt x="302" y="264" on="1"/>
        <pt x="288" y="238" on="1"/>
        <pt x="255" y="294" on="1"/>
        <pt x="257" y="294" on="1"/>
        <pt x="278" y="294" on="0"/>
        <pt x="278" y="310" on="1"/>
        <pt x="278" y="329" on="0"/>
        <pt x="259" y="329" on="1"/>
        <pt x="252" y="329" on="0"/>
        <pt x="234" y="325" on="0"/>
        <pt x="228" y="325" on="1"/>
        <pt x="222" y="325" on="0"/>
        <pt x="199" y="329" on="0"/>
        <pt x="192" y="329" on="1"/>
        <pt x="173" y="329" on="0"/>
        <pt x="173" y="310" on="1"/>
        <pt x="173" y="293" on="0"/>
        <pt x="193" y="293" on="1"/>
        <pt x="204" y="294" on="1"/>
        <pt x="208" y="294" on="0"/>
        <pt x="209" y="293" on="1"/>
        <pt x="266" y="199" on="1"/>
        <pt x="266" y="165" on="1"/>
        <pt x="266" y="157" on="0"/>
        <pt x="261" y="157" on="1"/>
        <pt x="258" y="157" on="0"/>
        <pt x="251" y="160" on="0"/>
        <pt x="248" y="160" on="1"/>
        <pt x="230" y="160" on="0"/>
        <pt x="230" y="140" on="1"/>
        <pt x="230" y="124" on="0"/>
        <pt x="251" y="124" on="1"/>
        <pt x="258" y="124" on="0"/>
        <pt x="276" y="127" on="0"/>
        <pt x="285" y="127" on="1"/>
        <pt x="295" y="127" on="0"/>
        <pt x="312" y="124" on="0"/>
        <pt x="322" y="124" on="1"/>
        <pt x="344" y="124" on="0"/>
        <pt x="344" y="141" on="1"/>
        <pt x="344" y="160" on="0"/>
        <pt x="328" y="160" on="1"/>
        <pt x="323" y="160" on="0"/>
        <pt x="315" y="157" on="0"/>
        <pt x="313" y="157" on="1"/>
        <pt x="307" y="157" on="0"/>
        <pt x="307" y="165" on="1"/>
        <pt x="307" y="201" on="1"/>
        <pt x="364" y="292" on="1"/>
        <pt x="366" y="295" on="0"/>
        <pt x="368" y="295" on="1"/>
        <pt x="372" y="295" on="0"/>
        <pt x="378" y="294" on="0"/>
        <pt x="381" y="294" on="1"/>
        <pt x="393" y="294" on="0"/>
        <pt x="397" y="303" on="1"/>
        <pt x="404" y="294" on="0"/>
        <pt x="413" y="294" on="1"/>
        <pt x="418" y="294" on="0"/>
        <pt x="424" y="295" on="0"/>
        <pt x="426" y="295" on="1"/>
        <pt x="432" y="295" on="0"/>
        <pt x="432" y="282" on="1"/>
        <pt x="432" y="169" on="1"/>
        <pt x="432" y="157" on="0"/>
        <pt x="426" y="157" on="1"/>
        <pt x="423" y="157" on="0"/>
        <pt x="417" y="159" on="0"/>
        <pt x="413" y="159" on="1"/>
        <pt x="395" y="159" on="0"/>
        <pt x="395" y="141" on="1"/>
        <pt x="395" y="124" on="0"/>
        <pt x="416" y="124" on="1"/>
        <pt x="423" y="124" on="0"/>
        <pt x="442" y="127" on="0"/>
        <pt x="452" y="127" on="1"/>
        <pt x="460" y="127" on="0"/>
        <pt x="478" y="124" on="0"/>
        <pt x="485" y="124" on="1"/>
        <pt x="507" y="124" on="0"/>
        <pt x="507" y="140" on="1"/>
        <pt x="507" y="159" on="0"/>
        <pt x="489" y="159" on="1"/>
        <pt x="485" y="159" on="0"/>
        <pt x="479" y="157" on="0"/>
        <pt x="476" y="157" on="1"/>
        <pt x="470" y="157" on="0"/>
        <pt x="470" y="170" on="1"/>
        <pt x="470" y="267" on="1"/>
        <pt x="538" y="144" on="1"/>
        <pt x="550" y="120" on="0"/>
        <pt x="569" y="120" on="1"/>
        <pt x="596" y="120" on="0"/>
        <pt x="596" y="164" on="1"/>
        <pt x="596" y="282" on="1"/>
        <pt x="596" y="294" on="0"/>
        <pt x="603" y="294" on="1"/>
        <pt x="609" y="294" on="1"/>
      </contour>
    </TTGlyph>
    <TTGlyph name="approxequal" xMin="15" yMin="132" xMax="386" yMax="389">
      <contour>
        <pt x="70" y="389" on="0"/>
        <pt x="140" y="389" on="1"/>
        <pt x="175" y="389" on="0"/>
        <pt x="208" y="366" on="1"/>
        <pt x="225" y="355" on="0"/>
        <pt x="247" y="346" on="0"/>
        <pt x="265" y="346" on="1"/>
        <pt x="305" y="346" on="0"/>
        <pt x="335" y="380" on="1"/>
        <pt x="343" y="386" on="0"/>
        <pt x="350" y="386" on="1"/>
        <pt x="363" y="386" on="0"/>
        <pt x="373" y="373" on="1"/>
        <pt x="384" y="353" on="0"/>
        <pt x="381" y="331" on="1"/>
        <pt x="365" y="308" on="0"/>
        <pt x="301" y="272" on="0"/>
        <pt x="263" y="272" on="1"/>
        <pt x="240" y="272" on="0"/>
        <pt x="210" y="284" on="0"/>
        <pt x="191" y="295" on="1"/>
        <pt x="161" y="314" on="0"/>
        <pt x="135" y="314" on="1"/>
        <pt x="103" y="314" on="0"/>
        <pt x="64" y="291" on="1"/>
        <pt x="44" y="281" on="1"/>
        <pt x="33" y="280" on="0"/>
        <pt x="17" y="304" on="0"/>
        <pt x="16" y="326" on="1"/>
      </contour>
      <contour>
        <pt x="34" y="214" on="0"/>
        <pt x="96" y="249" on="0"/>
        <pt x="134" y="249" on="1"/>
        <pt x="170" y="249" on="0"/>
        <pt x="206" y="227" on="1"/>
        <pt x="224" y="216" on="0"/>
        <pt x="247" y="207" on="0"/>
        <pt x="265" y="207" on="1"/>
        <pt x="289" y="207" on="0"/>
        <pt x="331" y="228" on="1"/>
        <pt x="346" y="237" on="0"/>
        <pt x="355" y="239" on="1"/>
        <pt x="367" y="240" on="0"/>
        <pt x="384" y="217" on="0"/>
        <pt x="386" y="197" on="1"/>
        <pt x="369" y="172" on="0"/>
        <pt x="302" y="132" on="0"/>
        <pt x="259" y="132" on="1"/>
        <pt x="233" y="132" on="0"/>
        <pt x="202" y="145" on="0"/>
        <pt x="186" y="157" on="1"/>
        <pt x="159" y="176" on="0"/>
        <pt x="137" y="176" on="1"/>
        <pt x="104" y="176" on="0"/>
        <pt x="65" y="142" on="1"/>
        <pt x="60" y="138" on="0"/>
        <pt x="53" y="138" on="1"/>
        <pt x="39" y="138" on="0"/>
        <pt x="16" y="169" on="0"/>
        <pt x="15" y="191" on="1"/>
      </contour>
    </TTGlyph>
    <TTGlyph name="aring" xMin="29" yMin="-10" xMax="317" yMax="737">
      <component glyphName=".ttfautohint" x="29" y="0" flags="0x0"/>
      <component glyphName="a" x="0" y="0" flags="0x1000"/>
      <component glyphName="ring" x="40" y="0" flags="0x1000"/>
    </TTGlyph>
    <TTGlyph name="asciicircum" xMin="48" yMin="206" xMax="380" yMax="398">
      <contour>
        <pt x="94" y="208" on="0"/>
        <pt x="85" y="208" on="1"/>
        <pt x="69" y="208" on="0"/>
        <pt x="49" y="233" on="0"/>
        <pt x="48" y="249" on="1"/>
        <pt x="220" y="398" on="1"/>
        <pt x="366" y="270" on="1"/>
        <pt x="380" y="259" on="0"/>
        <pt x="380" y="244" on="1"/>
        <pt x="380" y="230" on="0"/>
        <pt x="358" y="208" on="0"/>
        <pt x="341" y="206" on="1"/>
        <pt x="212" y="294" on="1"/>
        <pt x="110" y="218" on="1"/>
      </contour>
    </TTGlyph>
    <TTGlyph name="asciitilde" xMin="11" yMin="212" xMax="391" yMax="329">
      <contour>
        <pt x="26" y="289" on="0"/>
        <pt x="97" y="329" on="0"/>
        <pt x="140" y="329" on="1"/>
        <pt x="163" y="329" on="0"/>
        <pt x="193" y="317" on="0"/>
        <pt x="212" y="306" on="1"/>
        <pt x="241" y="286" on="0"/>
        <pt x="270" y="286" on="1"/>
        <pt x="309" y="286" on="0"/>
        <pt x="341" y="320" on="1"/>
        <pt x="349" y="326" on="0"/>
        <pt x="356" y="326" on="1"/>
        <pt x="370" y="326" on="0"/>
        <pt x="390" y="298" on="0"/>
        <pt x="391" y="277" on="1"/>
        <pt x="373" y="252" on="0"/>
        <pt x="307" y="212" on="0"/>
        <pt x="263" y="212" on="1"/>
        <pt x="225" y="212" on="0"/>
        <pt x="185" y="237" on="1"/>
        <pt x="156" y="256" on="0"/>
        <pt x="132" y="256" on="1"/>
        <pt x="110" y="256" on="0"/>
        <pt x="73" y="233" on="1"/>
        <pt x="55" y="220" on="0"/>
        <pt x="46" y="218" on="1"/>
        <pt x="32" y="217" on="0"/>
        <pt x="12" y="243" on="0"/>
        <pt x="11" y="266" on="1"/>
      </contour>
    </TTGlyph>
    <TTGlyph name="asterisk" xMin="16" yMin="245" xMax="454" yMax="688">
      <contour>
        <pt x="255" y="501" on="0"/>
        <pt x="239" y="501" on="1"/>
        <pt x="231" y="501" on="0"/>
        <pt x="221" y="504" on="1"/>
        <pt x="199" y="667" on="1"/>
        <pt x="196" y="688" on="0"/>
        <pt x="229" y="688" on="1"/>
        <pt x="256" y="688" on="0"/>
        <pt x="278" y="677" on="1"/>
        <pt x="258" y="519" on="1"/>
      </contour>
      <contour>
        <pt x="441" y="566" on="0"/>
        <pt x="454" y="536" on="0"/>
        <pt x="454" y="521" on="1"/>
        <pt x="454" y="498" on="0"/>
        <pt x="439" y="494" on="1"/>
        <pt x="280" y="455" on="1"/>
        <pt x="269" y="469" on="0"/>
        <pt x="269" y="479" on="1"/>
        <pt x="269" y="489" on="0"/>
        <pt x="282" y="495" on="1"/>
        <pt x="431" y="575" on="1"/>
      </contour>
      <contour>
        <pt x="202" y="458" on="0"/>
        <pt x="183" y="458" on="1"/>
        <pt x="178" y="458" on="0"/>
        <pt x="175" y="459" on="1"/>
        <pt x="16" y="503" on="1"/>
        <pt x="15" y="532" on="0"/>
        <pt x="44" y="570" on="0"/>
        <pt x="60" y="570" on="1"/>
        <pt x="66" y="570" on="0"/>
        <pt x="69" y="568" on="1"/>
        <pt x="199" y="487" on="1"/>
      </contour>
      <contour>
        <pt x="246" y="410" on="0"/>
        <pt x="246" y="414" on="1"/>
        <pt x="246" y="425" on="0"/>
        <pt x="271" y="434" on="1"/>
        <pt x="386" y="299" on="1"/>
        <pt x="391" y="292" on="0"/>
        <pt x="391" y="288" on="1"/>
        <pt x="391" y="274" on="0"/>
        <pt x="349" y="248" on="0"/>
        <pt x="327" y="245" on="1"/>
        <pt x="249" y="404" on="1"/>
      </contour>
      <contour>
        <pt x="195" y="431" on="0"/>
        <pt x="202" y="431" on="1"/>
        <pt x="212" y="431" on="0"/>
        <pt x="224" y="415" on="1"/>
        <pt x="136" y="259" on="1"/>
        <pt x="129" y="250" on="0"/>
        <pt x="120" y="250" on="1"/>
        <pt x="107" y="250" on="0"/>
        <pt x="76" y="282" on="0"/>
        <pt x="66" y="300" on="1"/>
        <pt x="187" y="423" on="1"/>
      </contour>
    </TTGlyph>
    <TTGlyph name="at" xMin="47" yMin="-190" xMax="693" yMax="683">
      <contour>
        <pt x="494" y="104" on="0"/>
        <pt x="491" y="78" on="1"/>
        <pt x="508" y="72" on="0"/>
        <pt x="524" y="72" on="1"/>
        <pt x="545" y="72" on="0"/>
        <pt x="584" y="125" on="0"/>
        <pt x="610" y="244" on="0"/>
        <pt x="610" y="338" on="1"/>
        <pt x="610" y="441" on="0"/>
        <pt x="570" y="559" on="0"/>
        <pt x="476" y="611" on="0"/>
        <pt x="393" y="611" on="1"/>
        <pt x="303" y="611" on="0"/>
        <pt x="188" y="544" on="0"/>
        <pt x="129" y="387" on="0"/>
        <pt x="129" y="253" on="1"/>
        <pt x="129" y="106" on="0"/>
        <pt x="182" y="-53" on="0"/>
        <pt x="285" y="-112" on="0"/>
        <pt x="369" y="-112" on="1"/>
        <pt x="496" y="-112" on="0"/>
        <pt x="602" y="-68" on="1"/>
        <pt x="623" y="-100" on="0"/>
        <pt x="623" y="-126" on="1"/>
        <pt x="623" y="-141" on="0"/>
        <pt x="561" y="-171" on="0"/>
        <pt x="448" y="-190" on="0"/>
        <pt x="375" y="-190" on="1"/>
        <pt x="268" y="-190" on="0"/>
        <pt x="130" y="-128" on="0"/>
        <pt x="47" y="70" on="0"/>
        <pt x="47" y="264" on="1"/>
        <pt x="47" y="479" on="0"/>
        <pt x="231" y="683" on="0"/>
        <pt x="394" y="683" on="1"/>
        <pt x="545" y="683" on="0"/>
        <pt x="693" y="533" on="0"/>
        <pt x="693" y="359" on="1"/>
        <pt x="693" y="2" on="0"/>
        <pt x="533" y="2" on="1"/>
        <pt x="498" y="2" on="0"/>
        <pt x="471" y="25" on="1"/>
        <pt x="439" y="1" on="0"/>
        <pt x="359" y="1" on="1"/>
        <pt x="320" y="1" on="0"/>
        <pt x="268" y="23" on="0"/>
        <pt x="237" y="89" on="0"/>
        <pt x="237" y="151" on="1"/>
        <pt x="237" y="318" on="0"/>
        <pt x="364" y="318" on="1"/>
        <pt x="402" y="318" on="0"/>
        <pt x="423" y="307" on="1"/>
        <pt x="423" y="313" on="0"/>
        <pt x="425" y="351" on="0"/>
        <pt x="425" y="372" on="1"/>
        <pt x="425" y="403" on="0"/>
        <pt x="395" y="426" on="0"/>
        <pt x="364" y="426" on="1"/>
        <pt x="308" y="426" on="0"/>
        <pt x="264" y="402" on="1"/>
        <pt x="256" y="419" on="0"/>
        <pt x="256" y="448" on="1"/>
        <pt x="256" y="459" on="0"/>
        <pt x="265" y="468" on="1"/>
        <pt x="304" y="494" on="0"/>
        <pt x="391" y="494" on="1"/>
        <pt x="448" y="494" on="0"/>
        <pt x="502" y="442" on="0"/>
        <pt x="501" y="378" on="1"/>
        <pt x="496" y="177" on="1"/>
      </contour>
      <contour>
        <pt x="402" y="261" on="0"/>
        <pt x="388" y="261" on="1"/>
        <pt x="352" y="261" on="0"/>
        <pt x="314" y="211" on="0"/>
        <pt x="314" y="148" on="1"/>
        <pt x="314" y="98" on="0"/>
        <pt x="340" y="62" on="0"/>
        <pt x="368" y="62" on="1"/>
        <pt x="418" y="62" on="0"/>
        <pt x="419" y="114" on="1"/>
        <pt x="423" y="258" on="1"/>
      </contour>
    </TTGlyph>
    <TTGlyph name="atilde" xMin="28" yMin="-10" xMax="322" yMax="687">
      <component glyphName=".ttfautohint" x="28" y="0" flags="0x0"/>
      <component glyphName="a" x="0" y="0" flags="0x1000"/>
      <component glyphName="tilde" x="40" y="0" flags="0x1000"/>
    </TTGlyph>
    <TTGlyph name="b" xMin="48" yMin="-10" xMax="358" yMax="735">
      <contour>
        <pt x="48" y="717" on="0"/>
        <pt x="60" y="732" on="0"/>
        <pt x="90" y="735" on="0"/>
        <pt x="128" y="735" on="1"/>
        <pt x="128" y="475" on="1"/>
        <pt x="173" y="510" on="0"/>
        <pt x="235" y="510" on="1"/>
        <pt x="297" y="510" on="0"/>
        <pt x="358" y="420" on="0"/>
        <pt x="358" y="313" on="1"/>
        <pt x="358" y="120" on="0"/>
        <pt x="247" y="-10" on="0"/>
        <pt x="164" y="-10" on="1"/>
        <pt x="84" y="-10" on="0"/>
        <pt x="48" y="20" on="1"/>
        <pt x="48" y="698" on="1"/>
      </contour>
      <contour>
        <pt x="144" y="61" on="0"/>
        <pt x="175" y="61" on="1"/>
        <pt x="212" y="61" on="0"/>
        <pt x="268" y="160" on="0"/>
        <pt x="268" y="296" on="1"/>
        <pt x="268" y="374" on="0"/>
        <pt x="234" y="437" on="0"/>
        <pt x="198" y="437" on="1"/>
        <pt x="156" y="437" on="0"/>
        <pt x="128" y="409" on="1"/>
        <pt x="128" y="75" on="1"/>
      </contour>
    </TTGlyph>
    <TTGlyph name="backslash" xMin="10" yMin="-30" xMax="319" yMax="765">
      <contour>
        <pt x="319" y="-18" on="1"/>
        <pt x="319" y="-27" on="0"/>
        <pt x="291" y="-30" on="0"/>
        <pt x="237" y="-30" on="1"/>
        <pt x="12" y="743" on="1"/>
        <pt x="10" y="752" on="1"/>
        <pt x="10" y="761" on="0"/>
        <pt x="39" y="765" on="0"/>
        <pt x="91" y="765" on="1"/>
        <pt x="317" y="-10" on="1"/>
      </contour>
    </TTGlyph>
    <TTGlyph name="bar" xMin="122" yMin="-200" xMax="203" yMax="815">
      <contour>
        <pt x="203" y="-191" on="0"/>
        <pt x="195" y="-198" on="0"/>
        <pt x="155" y="-200" on="0"/>
        <pt x="122" y="-200" on="1"/>
        <pt x="122" y="793" on="1"/>
        <pt x="122" y="805" on="0"/>
        <pt x="130" y="813" on="0"/>
        <pt x="160" y="815" on="0"/>
        <pt x="203" y="815" on="1"/>
        <pt x="203" y="-180" on="1"/>
      </contour>
    </TTGlyph>
    <TTGlyph name="braceleft" xMin="41" yMin="-150" xMax="260" yMax="744">
      <contour>
        <pt x="260" y="722" on="0"/>
        <pt x="260" y="694" on="1"/>
        <pt x="260" y="669" on="0"/>
        <pt x="245" y="666" on="1"/>
        <pt x="171" y="660" on="0"/>
        <pt x="171" y="585" on="1"/>
        <pt x="171" y="579" on="0"/>
        <pt x="176" y="511" on="1"/>
        <pt x="182" y="445" on="0"/>
        <pt x="182" y="403" on="1"/>
        <pt x="182" y="357" on="0"/>
        <pt x="155" y="312" on="0"/>
        <pt x="128" y="300" on="1"/>
        <pt x="155" y="289" on="0"/>
        <pt x="182" y="247" on="0"/>
        <pt x="182" y="205" on="1"/>
        <pt x="182" y="164" on="0"/>
        <pt x="176" y="100" on="1"/>
        <pt x="171" y="30" on="0"/>
        <pt x="171" y="22" on="1"/>
        <pt x="171" y="-15" on="0"/>
        <pt x="189" y="-55" on="0"/>
        <pt x="223" y="-72" on="0"/>
        <pt x="253" y="-76" on="1"/>
        <pt x="255" y="-102" on="0"/>
        <pt x="255" y="-106" on="1"/>
        <pt x="255" y="-150" on="0"/>
        <pt x="227" y="-150" on="1"/>
        <pt x="154" y="-150" on="0"/>
        <pt x="89" y="-83" on="0"/>
        <pt x="89" y="-15" on="1"/>
        <pt x="89" y="8" on="0"/>
        <pt x="96" y="80" on="1"/>
        <pt x="103" y="136" on="0"/>
        <pt x="103" y="182" on="1"/>
        <pt x="103" y="220" on="0"/>
        <pt x="77" y="254" on="0"/>
        <pt x="48" y="260" on="1"/>
        <pt x="41" y="275" on="0"/>
        <pt x="41" y="293" on="1"/>
        <pt x="41" y="321" on="0"/>
        <pt x="58" y="333" on="1"/>
        <pt x="74" y="343" on="0"/>
        <pt x="92" y="361" on="0"/>
        <pt x="103" y="396" on="0"/>
        <pt x="103" y="427" on="1"/>
        <pt x="103" y="454" on="0"/>
        <pt x="96" y="536" on="1"/>
        <pt x="89" y="592" on="0"/>
        <pt x="89" y="626" on="1"/>
        <pt x="89" y="686" on="0"/>
        <pt x="172" y="743" on="0"/>
        <pt x="244" y="744" on="1"/>
      </contour>
    </TTGlyph>
    <TTGlyph name="braceright" xMin="18" yMin="-150" xMax="236" yMax="744">
      <contour>
        <pt x="18" y="-128" on="0"/>
        <pt x="18" y="-100" on="1"/>
        <pt x="18" y="-75" on="0"/>
        <pt x="33" y="-72" on="1"/>
        <pt x="106" y="-66" on="0"/>
        <pt x="106" y="8" on="1"/>
        <pt x="106" y="29" on="0"/>
        <pt x="102" y="83" on="1"/>
        <pt x="96" y="149" on="0"/>
        <pt x="96" y="191" on="1"/>
        <pt x="96" y="237" on="0"/>
        <pt x="122" y="282" on="0"/>
        <pt x="149" y="294" on="1"/>
        <pt x="122" y="305" on="0"/>
        <pt x="96" y="347" on="0"/>
        <pt x="96" y="389" on="1"/>
        <pt x="96" y="414" on="0"/>
        <pt x="101" y="494" on="1"/>
        <pt x="106" y="541" on="0"/>
        <pt x="106" y="573" on="1"/>
        <pt x="106" y="610" on="0"/>
        <pt x="88" y="649" on="0"/>
        <pt x="54" y="666" on="0"/>
        <pt x="25" y="670" on="1"/>
        <pt x="21" y="686" on="0"/>
        <pt x="21" y="701" on="1"/>
        <pt x="21" y="720" on="0"/>
        <pt x="37" y="744" on="0"/>
        <pt x="50" y="744" on="1"/>
        <pt x="123" y="744" on="0"/>
        <pt x="188" y="677" on="0"/>
        <pt x="188" y="609" on="1"/>
        <pt x="188" y="586" on="0"/>
        <pt x="181" y="514" on="1"/>
        <pt x="174" y="458" on="0"/>
        <pt x="174" y="412" on="1"/>
        <pt x="174" y="374" on="0"/>
        <pt x="200" y="340" on="0"/>
        <pt x="229" y="334" on="1"/>
        <pt x="236" y="317" on="0"/>
        <pt x="236" y="301" on="1"/>
        <pt x="236" y="272" on="0"/>
        <pt x="218" y="261" on="1"/>
        <pt x="201" y="250" on="0"/>
        <pt x="185" y="233" on="0"/>
        <pt x="174" y="198" on="0"/>
        <pt x="174" y="167" on="1"/>
        <pt x="174" y="119" on="0"/>
        <pt x="181" y="58" on="1"/>
        <pt x="188" y="-17" on="0"/>
        <pt x="188" y="-32" on="1"/>
        <pt x="188" y="-92" on="0"/>
        <pt x="104" y="-150" on="0"/>
        <pt x="33" y="-150" on="1"/>
      </contour>
    </TTGlyph>
    <TTGlyph name="bracketleft" xMin="122" yMin="-199" xMax="377" yMax="821">
      <contour>
        <pt x="377" y="785" on="0"/>
        <pt x="374" y="757" on="0"/>
        <pt x="363" y="747" on="0"/>
        <pt x="350" y="747" on="1"/>
        <pt x="203" y="747" on="1"/>
        <pt x="203" y="-123" on="1"/>
        <pt x="376" y="-123" on="1"/>
        <pt x="376" y="-161" on="0"/>
        <pt x="372" y="-192" on="0"/>
        <pt x="362" y="-199" on="0"/>
        <pt x="349" y="-199" on="1"/>
        <pt x="122" y="-199" on="1"/>
        <pt x="122" y="796" on="1"/>
        <pt x="122" y="808" on="0"/>
        <pt x="128" y="817" on="0"/>
        <pt x="153" y="821" on="0"/>
        <pt x="184" y="821" on="1"/>
        <pt x="377" y="821" on="1"/>
      </contour>
    </TTGlyph>
    <TTGlyph name="bracketright" xMin="9" yMin="-200" xMax="264" yMax="822">
      <contour>
        <pt x="9" y="-164" on="0"/>
        <pt x="12" y="-136" on="0"/>
        <pt x="23" y="-126" on="0"/>
        <pt x="36" y="-126" on="1"/>
        <pt x="183" y="-126" on="1"/>
        <pt x="183" y="746" on="1"/>
        <pt x="10" y="746" on="1"/>
        <pt x="10" y="784" on="0"/>
        <pt x="14" y="815" on="0"/>
        <pt x="24" y="822" on="0"/>
        <pt x="37" y="822" on="1"/>
        <pt x="264" y="822" on="1"/>
        <pt x="264" y="-175" on="1"/>
        <pt x="264" y="-187" on="0"/>
        <pt x="258" y="-196" on="0"/>
        <pt x="233" y="-200" on="0"/>
        <pt x="202" y="-200" on="1"/>
        <pt x="9" y="-200" on="1"/>
      </contour>
    </TTGlyph>
    <TTGlyph name="breve" xMin="5" yMin="557" xMax="264" yMax="713">
      <contour>
        <pt x="60" y="682" on="0"/>
        <pt x="101" y="634" on="0"/>
        <pt x="132" y="634" on="1"/>
        <pt x="162" y="634" on="0"/>
        <pt x="194" y="669" on="0"/>
        <pt x="209" y="700" on="1"/>
        <pt x="215" y="710" on="0"/>
        <pt x="224" y="710" on="1"/>
        <pt x="237" y="710" on="0"/>
        <pt x="262" y="684" on="0"/>
        <pt x="264" y="669" on="1"/>
        <pt x="226" y="557" on="0"/>
        <pt x="131" y="557" on="1"/>
        <pt x="98" y="557" on="0"/>
        <pt x="40" y="594" on="0"/>
        <pt x="5" y="646" on="0"/>
        <pt x="5" y="668" on="1"/>
        <pt x="5" y="684" on="0"/>
        <pt x="25" y="705" on="0"/>
        <pt x="49" y="713" on="1"/>
      </contour>
    </TTGlyph>
    <TTGlyph name="breve.cyr" xMin="6" yMin="569" xMax="275" yMax="713">
      <contour>
        <pt x="66" y="669" on="0"/>
        <pt x="102" y="624" on="0"/>
        <pt x="138" y="624" on="1"/>
        <pt x="171" y="624" on="0"/>
        <pt x="202" y="660" on="0"/>
        <pt x="215" y="701" on="1"/>
        <pt x="216" y="709" on="0"/>
        <pt x="226" y="709" on="1"/>
        <pt x="239" y="709" on="0"/>
        <pt x="271" y="686" on="0"/>
        <pt x="275" y="673" on="1"/>
        <pt x="253" y="620" on="0"/>
        <pt x="193" y="569" on="0"/>
        <pt x="136" y="569" on="1"/>
        <pt x="79" y="569" on="0"/>
        <pt x="10" y="630" on="0"/>
        <pt x="6" y="670" on="1"/>
        <pt x="5" y="700" on="0"/>
        <pt x="57" y="713" on="1"/>
      </contour>
    </TTGlyph>
    <TTGlyph name="brokenbar" xMin="73" yMin="-198" xMax="153" yMax="743">
      <contour>
        <pt x="153" y="337" on="0"/>
        <pt x="138" y="326" on="0"/>
        <pt x="112" y="326" on="1"/>
        <pt x="90" y="326" on="0"/>
        <pt x="73" y="330" on="1"/>
        <pt x="73" y="711" on="1"/>
        <pt x="73" y="729" on="0"/>
        <pt x="91" y="743" on="0"/>
        <pt x="115" y="743" on="1"/>
        <pt x="135" y="743" on="0"/>
        <pt x="153" y="737" on="1"/>
        <pt x="153" y="354" on="1"/>
      </contour>
      <contour>
        <pt x="153" y="-187" on="0"/>
        <pt x="138" y="-198" on="0"/>
        <pt x="112" y="-198" on="1"/>
        <pt x="89" y="-198" on="0"/>
        <pt x="73" y="-193" on="1"/>
        <pt x="73" y="192" on="1"/>
        <pt x="73" y="210" on="0"/>
        <pt x="91" y="225" on="0"/>
        <pt x="115" y="225" on="1"/>
        <pt x="135" y="225" on="0"/>
        <pt x="153" y="219" on="1"/>
        <pt x="153" y="-169" on="1"/>
      </contour>
    </TTGlyph>
    <TTGlyph name="bullet" xMin="41" yMin="208" xMax="189" yMax="361">
      <contour>
        <pt x="41" y="316" on="0"/>
        <pt x="81" y="361" on="0"/>
        <pt x="114" y="361" on="1"/>
        <pt x="189" y="361" on="0"/>
        <pt x="189" y="284" on="1"/>
        <pt x="189" y="251" on="0"/>
        <pt x="148" y="208" on="0"/>
        <pt x="114" y="208" on="1"/>
        <pt x="41" y="208" on="0"/>
        <pt x="41" y="284" on="1"/>
      </contour>
    </TTGlyph>
    <TTGlyph name="bulletoperator" xMin="41" yMin="208" xMax="189" yMax="361">
      <component glyphName=".ttfautohint" x="41" y="208" flags="0x0"/>
      <component glyphName="bullet" x="0" y="0" flags="0x1000"/>
    </TTGlyph>
    <TTGlyph name="c" xMin="31" yMin="-10" xMax="294" yMax="510">
      <contour>
        <pt x="294" y="442" on="0"/>
        <pt x="285" y="420" on="1"/>
        <pt x="251" y="439" on="0"/>
        <pt x="214" y="439" on="1"/>
        <pt x="170" y="439" on="0"/>
        <pt x="114" y="358" on="0"/>
        <pt x="114" y="238" on="1"/>
        <pt x="114" y="169" on="0"/>
        <pt x="133" y="92" on="0"/>
        <pt x="172" y="62" on="0"/>
        <pt x="204" y="62" on="1"/>
        <pt x="251" y="62" on="0"/>
        <pt x="284" y="85" on="1"/>
        <pt x="292" y="56" on="0"/>
        <pt x="292" y="41" on="1"/>
        <pt x="292" y="20" on="0"/>
        <pt x="228" y="-10" on="0"/>
        <pt x="180" y="-10" on="1"/>
        <pt x="128" y="-10" on="0"/>
        <pt x="64" y="29" on="0"/>
        <pt x="31" y="137" on="0"/>
        <pt x="31" y="239" on="1"/>
        <pt x="31" y="400" on="0"/>
        <pt x="131" y="510" on="0"/>
        <pt x="210" y="510" on="1"/>
        <pt x="246" y="510" on="0"/>
        <pt x="294" y="484" on="0"/>
        <pt x="294" y="465" on="1"/>
      </contour>
    </TTGlyph>
    <TTGlyph name="cacute" xMin="31" yMin="-10" xMax="294" yMax="722">
      <component glyphName=".ttfautohint" x="31" y="0" flags="0x0"/>
      <component glyphName="c" x="0" y="0" flags="0x1000"/>
      <component glyphName="acute" x="38" y="0" flags="0x1000"/>
    </TTGlyph>
    <TTGlyph name="caron" xMin="18" yMin="557" xMax="252" yMax="719">
      <contour>
        <pt x="128" y="557" on="0"/>
        <pt x="31" y="649" on="0"/>
        <pt x="18" y="668" on="1"/>
        <pt x="24" y="686" on="0"/>
        <pt x="46" y="719" on="0"/>
        <pt x="55" y="719" on="1"/>
        <pt x="63" y="719" on="0"/>
        <pt x="103" y="681" on="0"/>
        <pt x="139" y="639" on="0"/>
        <pt x="144" y="633" on="1"/>
        <pt x="160" y="656" on="0"/>
        <pt x="194" y="693" on="0"/>
        <pt x="217" y="714" on="0"/>
        <pt x="220" y="717" on="1"/>
        <pt x="252" y="698" on="0"/>
        <pt x="252" y="680" on="1"/>
        <pt x="252" y="671" on="0"/>
        <pt x="203" y="611" on="0"/>
        <pt x="149" y="557" on="0"/>
        <pt x="141" y="557" on="1"/>
      </contour>
    </TTGlyph>
    <TTGlyph name="ccaron" xMin="31" yMin="-10" xMax="294" yMax="719">
      <component glyphName=".ttfautohint" x="31" y="0" flags="0x0"/>
      <component glyphName="c" x="0" y="0" flags="0x1000"/>
      <component glyphName="caron" x="32" y="0" flags="0x1000"/>
    </TTGlyph>
    <TTGlyph name="ccedilla" xMin="31" yMin="-206" xMax="294" yMax="510">
      <contour>
        <pt x="102" y="-1" on="0"/>
        <pt x="55" y="48" on="0"/>
        <pt x="31" y="151" on="0"/>
        <pt x="31" y="239" on="1"/>
        <pt x="31" y="400" on="0"/>
        <pt x="131" y="510" on="0"/>
        <pt x="210" y="510" on="1"/>
        <pt x="246" y="510" on="0"/>
        <pt x="294" y="484" on="0"/>
        <pt x="294" y="465" on="1"/>
        <pt x="294" y="442" on="0"/>
        <pt x="285" y="420" on="1"/>
        <pt x="251" y="439" on="0"/>
        <pt x="214" y="439" on="1"/>
        <pt x="170" y="439" on="0"/>
        <pt x="114" y="358" on="0"/>
        <pt x="114" y="238" on="1"/>
        <pt x="114" y="169" on="0"/>
        <pt x="133" y="92" on="0"/>
        <pt x="172" y="62" on="0"/>
        <pt x="204" y="62" on="1"/>
        <pt x="251" y="62" on="0"/>
        <pt x="284" y="85" on="1"/>
        <pt x="292" y="56" on="0"/>
        <pt x="292" y="41" on="1"/>
        <pt x="292" y="20" on="0"/>
        <pt x="231" y="-9" on="0"/>
        <pt x="184" y="-10" on="1"/>
        <pt x="174" y="-59" on="1"/>
        <pt x="175" y="-58" on="0"/>
        <pt x="191" y="-58" on="1"/>
        <pt x="212" y="-58" on="0"/>
        <pt x="241" y="-90" on="0"/>
        <pt x="241" y="-122" on="1"/>
        <pt x="241" y="-160" on="0"/>
        <pt x="196" y="-206" on="0"/>
        <pt x="161" y="-206" on="1"/>
        <pt x="142" y="-206" on="0"/>
        <pt x="105" y="-194" on="0"/>
        <pt x="105" y="-193" on="1"/>
        <pt x="106" y="-188" on="0"/>
        <pt x="113" y="-156" on="0"/>
        <pt x="117" y="-152" on="1"/>
        <pt x="120" y="-149" on="0"/>
        <pt x="151" y="-163" on="0"/>
        <pt x="162" y="-163" on="1"/>
        <pt x="194" y="-163" on="0"/>
        <pt x="194" y="-129" on="1"/>
        <pt x="194" y="-95" on="0"/>
        <pt x="164" y="-95" on="1"/>
        <pt x="148" y="-95" on="0"/>
        <pt x="125" y="-100" on="0"/>
        <pt x="122" y="-101" on="1"/>
        <pt x="139" y="-7" on="1"/>
      </contour>
    </TTGlyph>
    <TTGlyph name="cedilla" xMin="70" yMin="-206" xMax="206" yMax="2">
      <contour>
        <pt x="141" y="-58" on="0"/>
        <pt x="157" y="-58" on="1"/>
        <pt x="177" y="-58" on="0"/>
        <pt x="206" y="-90" on="0"/>
        <pt x="206" y="-122" on="1"/>
        <pt x="206" y="-160" on="0"/>
        <pt x="161" y="-206" on="0"/>
        <pt x="126" y="-206" on="1"/>
        <pt x="107" y="-206" on="0"/>
        <pt x="70" y="-194" on="0"/>
        <pt x="70" y="-193" on="1"/>
        <pt x="71" y="-188" on="0"/>
        <pt x="79" y="-156" on="0"/>
        <pt x="83" y="-152" on="1"/>
        <pt x="86" y="-149" on="0"/>
        <pt x="117" y="-163" on="0"/>
        <pt x="128" y="-163" on="1"/>
        <pt x="159" y="-163" on="0"/>
        <pt x="159" y="-129" on="1"/>
        <pt x="159" y="-95" on="0"/>
        <pt x="129" y="-95" on="1"/>
        <pt x="113" y="-95" on="0"/>
        <pt x="91" y="-100" on="0"/>
        <pt x="88" y="-101" on="1"/>
        <pt x="107" y="2" on="1"/>
        <pt x="152" y="2" on="1"/>
        <pt x="140" y="-59" on="1"/>
      </contour>
    </TTGlyph>
    <TTGlyph name="cent" xMin="83" yMin="-133" xMax="345" yMax="626">
      <contour>
        <pt x="310" y="503" on="0"/>
        <pt x="345" y="484" on="0"/>
        <pt x="345" y="475" on="1"/>
        <pt x="345" y="437" on="0"/>
        <pt x="337" y="417" on="1"/>
        <pt x="305" y="435" on="0"/>
        <pt x="269" y="435" on="1"/>
        <pt x="239" y="435" on="0"/>
        <pt x="194" y="407" on="0"/>
        <pt x="164" y="317" on="0"/>
        <pt x="164" y="231" on="1"/>
        <pt x="164" y="156" on="0"/>
        <pt x="184" y="85" on="0"/>
        <pt x="221" y="64" on="0"/>
        <pt x="257" y="64" on="1"/>
        <pt x="277" y="64" on="0"/>
        <pt x="321" y="78" on="0"/>
        <pt x="335" y="88" on="1"/>
        <pt x="343" y="68" on="0"/>
        <pt x="343" y="37" on="1"/>
        <pt x="343" y="23" on="0"/>
        <pt x="294" y="-6" on="0"/>
        <pt x="263" y="-9" on="1"/>
        <pt x="263" y="-102" on="1"/>
        <pt x="263" y="-121" on="0"/>
        <pt x="230" y="-133" on="0"/>
        <pt x="190" y="-133" on="1"/>
        <pt x="190" y="-7" on="1"/>
        <pt x="154" y="-1" on="0"/>
        <pt x="108" y="42" on="0"/>
        <pt x="83" y="141" on="0"/>
        <pt x="83" y="228" on="1"/>
        <pt x="83" y="471" on="0"/>
        <pt x="213" y="504" on="1"/>
        <pt x="213" y="592" on="1"/>
        <pt x="213" y="611" on="0"/>
        <pt x="248" y="626" on="0"/>
        <pt x="286" y="626" on="1"/>
        <pt x="286" y="508" on="1"/>
      </contour>
    </TTGlyph>
    <TTGlyph name="circumflex" xMin="8" yMin="561" xMax="261" yMax="711">
      <contour>
        <pt x="129" y="711" on="0"/>
        <pt x="139" y="711" on="1"/>
        <pt x="154" y="711" on="0"/>
        <pt x="164" y="699" on="1"/>
        <pt x="171" y="692" on="0"/>
        <pt x="218" y="642" on="0"/>
        <pt x="261" y="591" on="0"/>
        <pt x="261" y="584" on="1"/>
        <pt x="261" y="574" on="0"/>
        <pt x="227" y="561" on="0"/>
        <pt x="204" y="561" on="1"/>
        <pt x="195" y="570" on="0"/>
        <pt x="146" y="623" on="0"/>
        <pt x="138" y="638" on="1"/>
        <pt x="134" y="632" on="0"/>
        <pt x="104" y="596" on="0"/>
        <pt x="71" y="562" on="0"/>
        <pt x="63" y="562" on="1"/>
        <pt x="27" y="562" on="0"/>
        <pt x="8" y="585" on="1"/>
        <pt x="122" y="708" on="1"/>
      </contour>
    </TTGlyph>
    <TTGlyph name="colon" xMin="38" yMin="-6" xMax="149" yMax="443">
      <contour>
        <pt x="38" y="410" on="0"/>
        <pt x="68" y="443" on="0"/>
        <pt x="93" y="443" on="1"/>
        <pt x="149" y="443" on="0"/>
        <pt x="149" y="386" on="1"/>
        <pt x="149" y="361" on="0"/>
        <pt x="119" y="329" on="0"/>
        <pt x="93" y="329" on="1"/>
        <pt x="38" y="329" on="0"/>
        <pt x="38" y="386" on="1"/>
      </contour>
      <contour>
        <pt x="38" y="75" on="0"/>
        <pt x="68" y="108" on="0"/>
        <pt x="93" y="108" on="1"/>
        <pt x="149" y="108" on="0"/>
        <pt x="149" y="51" on="1"/>
        <pt x="149" y="26" on="0"/>
        <pt x="119" y="-6" on="0"/>
        <pt x="93" y="-6" on="1"/>
        <pt x="38" y="-6" on="0"/>
        <pt x="38" y="51" on="1"/>
      </contour>
    </TTGlyph>
    <TTGlyph name="comma" xMin="38" yMin="-103" xMax="148" yMax="106">
      <contour>
        <pt x="43" y="77" on="0"/>
        <pt x="72" y="106" on="0"/>
        <pt x="94" y="106" on="1"/>
        <pt x="148" y="106" on="0"/>
        <pt x="148" y="47" on="1"/>
        <pt x="148" y="13" on="0"/>
        <pt x="118" y="-56" on="0"/>
        <pt x="80" y="-103" on="0"/>
        <pt x="70" y="-103" on="1"/>
        <pt x="43" y="-103" on="0"/>
        <pt x="38" y="-80" on="1"/>
        <pt x="54" y="-53" on="0"/>
        <pt x="65" y="-18" on="0"/>
        <pt x="67" y="5" on="1"/>
        <pt x="43" y="21" on="0"/>
        <pt x="43" y="54" on="1"/>
      </contour>
    </TTGlyph>
    <TTGlyph name="commaaccentcomb" xMin="79" yMin="-255" xMax="189" yMax="-46">
      <contour>
        <pt x="84" y="-76" on="0"/>
        <pt x="112" y="-46" on="0"/>
        <pt x="134" y="-46" on="1"/>
        <pt x="189" y="-46" on="0"/>
        <pt x="189" y="-105" on="1"/>
        <pt x="189" y="-139" on="0"/>
        <pt x="159" y="-208" on="0"/>
        <pt x="120" y="-255" on="0"/>
        <pt x="110" y="-255" on="1"/>
        <pt x="84" y="-255" on="0"/>
        <pt x="79" y="-232" on="1"/>
        <pt x="95" y="-206" on="0"/>
        <pt x="105" y="-171" on="0"/>
        <pt x="107" y="-147" on="1"/>
        <pt x="84" y="-132" on="0"/>
        <pt x="84" y="-98" on="1"/>
      </contour>
    </TTGlyph>
    <TTGlyph name="copyright" xMin="36" yMin="320" xMax="436" yMax="760">
      <contour>
        <pt x="36" y="760" on="0"/>
        <pt x="242" y="760" on="1"/>
        <pt x="343" y="760" on="0"/>
        <pt x="436" y="661" on="0"/>
        <pt x="436" y="543" on="1"/>
        <pt x="436" y="435" on="0"/>
        <pt x="332" y="320" on="0"/>
        <pt x="234" y="320" on="1"/>
        <pt x="133" y="320" on="0"/>
        <pt x="36" y="422" on="0"/>
        <pt x="36" y="541" on="1"/>
      </contour>
      <contour>
        <pt x="96" y="452" on="0"/>
        <pt x="163" y="378" on="0"/>
        <pt x="232" y="378" on="1"/>
        <pt x="296" y="378" on="0"/>
        <pt x="375" y="459" on="0"/>
        <pt x="375" y="544" on="1"/>
        <pt x="375" y="628" on="0"/>
        <pt x="309" y="705" on="0"/>
        <pt x="241" y="705" on="1"/>
        <pt x="96" y="705" on="0"/>
        <pt x="96" y="541" on="1"/>
      </contour>
      <contour>
        <pt x="294" y="644" on="0"/>
        <pt x="288" y="620" on="1"/>
        <pt x="268" y="628" on="0"/>
        <pt x="254" y="628" on="1"/>
        <pt x="231" y="628" on="0"/>
        <pt x="204" y="590" on="0"/>
        <pt x="204" y="529" on="1"/>
        <pt x="204" y="497" on="0"/>
        <pt x="213" y="466" on="0"/>
        <pt x="231" y="457" on="0"/>
        <pt x="247" y="457" on="1"/>
        <pt x="266" y="457" on="0"/>
        <pt x="286" y="467" on="1"/>
        <pt x="293" y="451" on="0"/>
        <pt x="293" y="437" on="1"/>
        <pt x="293" y="430" on="0"/>
        <pt x="261" y="416" on="0"/>
        <pt x="243" y="416" on="1"/>
        <pt x="211" y="416" on="0"/>
        <pt x="175" y="432" on="0"/>
        <pt x="157" y="481" on="0"/>
        <pt x="157" y="531" on="1"/>
        <pt x="157" y="613" on="0"/>
        <pt x="209" y="668" on="0"/>
        <pt x="249" y="668" on="1"/>
        <pt x="264" y="668" on="0"/>
        <pt x="294" y="657" on="0"/>
        <pt x="294" y="652" on="1"/>
      </contour>
    </TTGlyph>
    <TTGlyph name="currency" xMin="12" yMin="-2" xMax="560" yMax="546">
      <contour>
        <pt x="517" y="6" on="0"/>
        <pt x="507" y="6" on="1"/>
        <pt x="504" y="6" on="0"/>
        <pt x="498" y="10" on="1"/>
        <pt x="417" y="91" on="1"/>
        <pt x="371" y="52" on="0"/>
        <pt x="286" y="52" on="1"/>
        <pt x="202" y="52" on="0"/>
        <pt x="153" y="90" on="1"/>
        <pt x="62" y="-2" on="1"/>
        <pt x="37" y="23" on="0"/>
        <pt x="19" y="44" on="0"/>
        <pt x="19" y="52" on="1"/>
        <pt x="19" y="57" on="0"/>
        <pt x="24" y="60" on="1"/>
        <pt x="110" y="147" on="1"/>
        <pt x="87" y="198" on="0"/>
        <pt x="87" y="276" on="1"/>
        <pt x="87" y="350" on="0"/>
        <pt x="107" y="401" on="1"/>
        <pt x="12" y="496" on="1"/>
        <pt x="53" y="539" on="0"/>
        <pt x="65" y="539" on="1"/>
        <pt x="70" y="539" on="0"/>
        <pt x="73" y="535" on="1"/>
        <pt x="147" y="461" on="1"/>
        <pt x="198" y="506" on="0"/>
        <pt x="291" y="506" on="1"/>
        <pt x="380" y="506" on="0"/>
        <pt x="426" y="463" on="1"/>
        <pt x="510" y="546" on="1"/>
        <pt x="534" y="522" on="0"/>
        <pt x="552" y="501" on="0"/>
        <pt x="552" y="493" on="1"/>
        <pt x="552" y="488" on="0"/>
        <pt x="548" y="485" on="1"/>
        <pt x="466" y="403" on="1"/>
        <pt x="484" y="357" on="0"/>
        <pt x="484" y="286" on="1"/>
        <pt x="484" y="202" on="0"/>
        <pt x="460" y="148" on="1"/>
        <pt x="560" y="49" on="1"/>
      </contour>
      <contour>
        <pt x="407" y="121" on="0"/>
        <pt x="407" y="288" on="1"/>
        <pt x="407" y="439" on="0"/>
        <pt x="295" y="439" on="1"/>
        <pt x="230" y="439" on="0"/>
        <pt x="167" y="357" on="0"/>
        <pt x="167" y="271" on="1"/>
        <pt x="167" y="195" on="0"/>
        <pt x="226" y="121" on="0"/>
        <pt x="288" y="121" on="1"/>
      </contour>
    </TTGlyph>
    <TTGlyph name="d" xMin="31" yMin="-10" xMax="337" yMax="735">
      <contour>
        <pt x="256" y="717" on="0"/>
        <pt x="269" y="732" on="0"/>
        <pt x="299" y="735" on="0"/>
        <pt x="337" y="735" on="1"/>
        <pt x="337" y="20" on="1"/>
        <pt x="273" y="-10" on="0"/>
        <pt x="193" y="-10" on="1"/>
        <pt x="142" y="-10" on="0"/>
        <pt x="73" y="24" on="0"/>
        <pt x="31" y="130" on="0"/>
        <pt x="31" y="232" on="1"/>
        <pt x="31" y="373" on="0"/>
        <pt x="116" y="510" on="0"/>
        <pt x="184" y="510" on="1"/>
        <pt x="230" y="510" on="0"/>
        <pt x="256" y="490" on="1"/>
        <pt x="256" y="698" on="1"/>
      </contour>
      <contour>
        <pt x="239" y="440" on="0"/>
        <pt x="210" y="440" on="1"/>
        <pt x="120" y="440" on="0"/>
        <pt x="120" y="241" on="1"/>
        <pt x="120" y="168" on="0"/>
        <pt x="138" y="90" on="0"/>
        <pt x="170" y="62" on="0"/>
        <pt x="196" y="62" on="1"/>
        <pt x="234" y="62" on="0"/>
        <pt x="256" y="77" on="1"/>
        <pt x="256" y="427" on="1"/>
      </contour>
    </TTGlyph>
    <TTGlyph name="dagger" xMin="30" yMin="-6" xMax="399" yMax="707">
      <contour>
        <pt x="169" y="687" on="0"/>
        <pt x="198" y="707" on="0"/>
        <pt x="219" y="707" on="1"/>
        <pt x="246" y="707" on="0"/>
        <pt x="260" y="689" on="1"/>
        <pt x="238" y="513" on="1"/>
        <pt x="234" y="495" on="0"/>
        <pt x="217" y="495" on="1"/>
        <pt x="206" y="495" on="0"/>
        <pt x="196" y="502" on="1"/>
        <pt x="173" y="669" on="1"/>
      </contour>
      <contour>
        <pt x="365" y="517" on="0"/>
        <pt x="372" y="517" on="1"/>
        <pt x="385" y="517" on="0"/>
        <pt x="399" y="490" on="0"/>
        <pt x="399" y="471" on="1"/>
        <pt x="399" y="442" on="0"/>
        <pt x="382" y="428" on="1"/>
        <pt x="261" y="449" on="1"/>
        <pt x="245" y="455" on="0"/>
        <pt x="245" y="471" on="1"/>
        <pt x="245" y="483" on="0"/>
        <pt x="251" y="492" on="1"/>
        <pt x="361" y="515" on="1"/>
      </contour>
      <contour>
        <pt x="52" y="426" on="0"/>
        <pt x="30" y="453" on="0"/>
        <pt x="30" y="472" on="1"/>
        <pt x="30" y="501" on="0"/>
        <pt x="49" y="517" on="1"/>
        <pt x="170" y="494" on="1"/>
        <pt x="188" y="487" on="0"/>
        <pt x="188" y="472" on="1"/>
        <pt x="188" y="462" on="0"/>
        <pt x="181" y="451" on="1"/>
        <pt x="69" y="430" on="1"/>
      </contour>
      <contour>
        <pt x="261" y="15" on="0"/>
        <pt x="235" y="-6" on="0"/>
        <pt x="215" y="-6" on="1"/>
        <pt x="186" y="-6" on="0"/>
        <pt x="172" y="12" on="1"/>
        <pt x="194" y="425" on="1"/>
        <pt x="197" y="445" on="0"/>
        <pt x="215" y="445" on="1"/>
        <pt x="225" y="445" on="0"/>
        <pt x="237" y="437" on="1"/>
        <pt x="259" y="33" on="1"/>
      </contour>
    </TTGlyph>
    <TTGlyph name="daggerdbl" xMin="30" yMin="-3" xMax="399" yMax="707">
      <contour>
        <pt x="169" y="687" on="0"/>
        <pt x="198" y="707" on="0"/>
        <pt x="219" y="707" on="1"/>
        <pt x="246" y="707" on="0"/>
        <pt x="260" y="689" on="1"/>
        <pt x="238" y="513" on="1"/>
        <pt x="234" y="495" on="0"/>
        <pt x="217" y="495" on="1"/>
        <pt x="206" y="495" on="0"/>
        <pt x="196" y="502" on="1"/>
        <pt x="173" y="669" on="1"/>
      </contour>
      <contour>
        <pt x="365" y="517" on="0"/>
        <pt x="372" y="517" on="1"/>
        <pt x="385" y="517" on="0"/>
        <pt x="399" y="490" on="0"/>
        <pt x="399" y="471" on="1"/>
        <pt x="399" y="442" on="0"/>
        <pt x="382" y="428" on="1"/>
        <pt x="261" y="449" on="1"/>
        <pt x="245" y="455" on="0"/>
        <pt x="245" y="471" on="1"/>
        <pt x="245" y="483" on="0"/>
        <pt x="251" y="492" on="1"/>
        <pt x="361" y="515" on="1"/>
      </contour>
      <contour>
        <pt x="52" y="426" on="0"/>
        <pt x="30" y="453" on="0"/>
        <pt x="30" y="472" on="1"/>
        <pt x="30" y="501" on="0"/>
        <pt x="49" y="517" on="1"/>
        <pt x="170" y="494" on="1"/>
        <pt x="188" y="487" on="0"/>
        <pt x="188" y="472" on="1"/>
        <pt x="188" y="462" on="0"/>
        <pt x="181" y="451" on="1"/>
        <pt x="69" y="430" on="1"/>
      </contour>
      <contour>
        <pt x="189" y="446" on="0"/>
        <pt x="216" y="446" on="1"/>
        <pt x="229" y="446" on="0"/>
        <pt x="242" y="439" on="1"/>
        <pt x="242" y="270" on="1"/>
        <pt x="242" y="248" on="0"/>
        <pt x="216" y="248" on="1"/>
        <pt x="204" y="248" on="0"/>
        <pt x="189" y="254" on="1"/>
        <pt x="189" y="422" on="1"/>
      </contour>
      <contour>
        <pt x="62" y="176" on="0"/>
        <pt x="58" y="176" on="1"/>
        <pt x="45" y="176" on="0"/>
        <pt x="30" y="204" on="0"/>
        <pt x="30" y="223" on="1"/>
        <pt x="30" y="253" on="0"/>
        <pt x="48" y="266" on="1"/>
        <pt x="168" y="244" on="1"/>
        <pt x="185" y="240" on="0"/>
        <pt x="185" y="222" on="1"/>
        <pt x="185" y="215" on="0"/>
        <pt x="179" y="201" on="1"/>
        <pt x="68" y="179" on="1"/>
      </contour>
      <contour>
        <pt x="378" y="267" on="0"/>
        <pt x="399" y="239" on="0"/>
        <pt x="399" y="220" on="1"/>
        <pt x="399" y="193" on="0"/>
        <pt x="381" y="176" on="1"/>
        <pt x="260" y="199" on="1"/>
        <pt x="241" y="206" on="0"/>
        <pt x="241" y="222" on="1"/>
        <pt x="241" y="232" on="0"/>
        <pt x="248" y="242" on="1"/>
        <pt x="361" y="263" on="1"/>
      </contour>
      <contour>
        <pt x="261" y="17" on="0"/>
        <pt x="232" y="-3" on="0"/>
        <pt x="211" y="-3" on="1"/>
        <pt x="184" y="-3" on="0"/>
        <pt x="170" y="15" on="1"/>
        <pt x="192" y="181" on="1"/>
        <pt x="196" y="199" on="0"/>
        <pt x="214" y="199" on="1"/>
        <pt x="224" y="199" on="0"/>
        <pt x="234" y="192" on="1"/>
        <pt x="257" y="35" on="1"/>
      </contour>
    </TTGlyph>
    <TTGlyph name="dcaron" xMin="31" yMin="-10" xMax="486" yMax="735">
      <contour>
        <pt x="256" y="717" on="0"/>
        <pt x="269" y="732" on="0"/>
        <pt x="299" y="735" on="0"/>
        <pt x="337" y="735" on="1"/>
        <pt x="337" y="20" on="1"/>
        <pt x="273" y="-10" on="0"/>
        <pt x="193" y="-10" on="1"/>
        <pt x="142" y="-10" on="0"/>
        <pt x="73" y="24" on="0"/>
        <pt x="31" y="130" on="0"/>
        <pt x="31" y="232" on="1"/>
        <pt x="31" y="373" on="0"/>
        <pt x="116" y="510" on="0"/>
        <pt x="184" y="510" on="1"/>
        <pt x="230" y="510" on="0"/>
        <pt x="256" y="490" on="1"/>
        <pt x="256" y="698" on="1"/>
      </contour>
      <contour>
        <pt x="381" y="669" on="0"/>
        <pt x="409" y="698" on="0"/>
        <pt x="431" y="698" on="1"/>
        <pt x="486" y="698" on="0"/>
        <pt x="486" y="639" on="1"/>
        <pt x="486" y="605" on="0"/>
        <pt x="458" y="531" on="0"/>
        <pt x="421" y="479" on="0"/>
        <pt x="411" y="479" on="1"/>
        <pt x="385" y="479" on="0"/>
        <pt x="380" y="501" on="1"/>
        <pt x="400" y="540" on="0"/>
        <pt x="404" y="598" on="1"/>
        <pt x="381" y="612" on="0"/>
        <pt x="381" y="646" on="1"/>
      </contour>
      <contour>
        <pt x="239" y="440" on="0"/>
        <pt x="210" y="440" on="1"/>
        <pt x="120" y="440" on="0"/>
        <pt x="120" y="241" on="1"/>
        <pt x="120" y="168" on="0"/>
        <pt x="138" y="90" on="0"/>
        <pt x="170" y="62" on="0"/>
        <pt x="196" y="62" on="1"/>
        <pt x="234" y="62" on="0"/>
        <pt x="256" y="77" on="1"/>
        <pt x="256" y="427" on="1"/>
      </contour>
    </TTGlyph>
    <TTGlyph name="dcroat" xMin="31" yMin="-10" xMax="418" yMax="735">
      <contour>
        <pt x="418" y="636" on="0"/>
        <pt x="418" y="619" on="1"/>
        <pt x="418" y="601" on="0"/>
        <pt x="401" y="577" on="0"/>
        <pt x="387" y="577" on="1"/>
        <pt x="337" y="577" on="1"/>
        <pt x="337" y="20" on="1"/>
        <pt x="273" y="-10" on="0"/>
        <pt x="193" y="-10" on="1"/>
        <pt x="142" y="-10" on="0"/>
        <pt x="73" y="24" on="0"/>
        <pt x="31" y="130" on="0"/>
        <pt x="31" y="232" on="1"/>
        <pt x="31" y="373" on="0"/>
        <pt x="116" y="510" on="0"/>
        <pt x="184" y="510" on="1"/>
        <pt x="230" y="510" on="0"/>
        <pt x="256" y="490" on="1"/>
        <pt x="256" y="577" on="1"/>
        <pt x="156" y="577" on="1"/>
        <pt x="150" y="594" on="0"/>
        <pt x="150" y="614" on="1"/>
        <pt x="151" y="632" on="0"/>
        <pt x="168" y="653" on="0"/>
        <pt x="183" y="653" on="1"/>
        <pt x="256" y="653" on="1"/>
        <pt x="256" y="698" on="1"/>
        <pt x="256" y="717" on="0"/>
        <pt x="269" y="732" on="0"/>
        <pt x="299" y="735" on="0"/>
        <pt x="337" y="735" on="1"/>
        <pt x="337" y="653" on="1"/>
        <pt x="411" y="653" on="1"/>
      </contour>
      <contour>
        <pt x="239" y="440" on="0"/>
        <pt x="210" y="440" on="1"/>
        <pt x="120" y="440" on="0"/>
        <pt x="120" y="241" on="1"/>
        <pt x="120" y="168" on="0"/>
        <pt x="138" y="90" on="0"/>
        <pt x="170" y="62" on="0"/>
        <pt x="196" y="62" on="1"/>
        <pt x="234" y="62" on="0"/>
        <pt x="256" y="77" on="1"/>
        <pt x="256" y="427" on="1"/>
      </contour>
    </TTGlyph>
    <TTGlyph name="degree" xMin="84" yMin="553" xMax="276" yMax="746">
      <contour>
        <pt x="84" y="746" on="0"/>
        <pt x="184" y="746" on="1"/>
        <pt x="233" y="746" on="0"/>
        <pt x="276" y="704" on="0"/>
        <pt x="276" y="650" on="1"/>
        <pt x="276" y="553" on="0"/>
        <pt x="177" y="553" on="1"/>
        <pt x="129" y="553" on="0"/>
        <pt x="84" y="594" on="0"/>
        <pt x="84" y="649" on="1"/>
      </contour>
      <contour>
        <pt x="138" y="604" on="0"/>
        <pt x="179" y="604" on="1"/>
        <pt x="223" y="604" on="0"/>
        <pt x="223" y="650" on="1"/>
        <pt x="223" y="694" on="0"/>
        <pt x="184" y="694" on="1"/>
        <pt x="138" y="694" on="0"/>
        <pt x="138" y="648" on="1"/>
      </contour>
    </TTGlyph>
    <TTGlyph name="dieresis" xMin="34" yMin="572" xMax="236" yMax="689">
      <contour>
        <pt x="100" y="689" on="0"/>
        <pt x="117" y="665" on="0"/>
        <pt x="117" y="636" on="1"/>
        <pt x="117" y="572" on="0"/>
        <pt x="73" y="572" on="1"/>
        <pt x="34" y="572" on="0"/>
        <pt x="34" y="632" on="1"/>
        <pt x="34" y="689" on="0"/>
        <pt x="78" y="689" on="1"/>
      </contour>
      <contour>
        <pt x="219" y="689" on="0"/>
        <pt x="236" y="665" on="0"/>
        <pt x="236" y="636" on="1"/>
        <pt x="236" y="572" on="0"/>
        <pt x="193" y="572" on="1"/>
        <pt x="153" y="572" on="0"/>
        <pt x="153" y="630" on="1"/>
        <pt x="153" y="689" on="0"/>
        <pt x="197" y="689" on="1"/>
      </contour>
    </TTGlyph>
    <TTGlyph name="divide" xMin="34" yMin="81" xMax="384" yMax="478">
      <contour>
        <pt x="159" y="448" on="0"/>
        <pt x="185" y="478" on="0"/>
        <pt x="208" y="478" on="1"/>
        <pt x="258" y="478" on="0"/>
        <pt x="258" y="427" on="1"/>
        <pt x="258" y="405" on="0"/>
        <pt x="231" y="376" on="0"/>
        <pt x="208" y="376" on="1"/>
        <pt x="159" y="376" on="0"/>
        <pt x="159" y="427" on="1"/>
      </contour>
      <contour>
        <pt x="34" y="290" on="0"/>
        <pt x="39" y="317" on="0"/>
        <pt x="51" y="317" on="1"/>
        <pt x="384" y="317" on="1"/>
        <pt x="384" y="275" on="0"/>
        <pt x="379" y="247" on="0"/>
        <pt x="368" y="247" on="1"/>
        <pt x="34" y="247" on="1"/>
      </contour>
      <contour>
        <pt x="159" y="153" on="0"/>
        <pt x="185" y="183" on="0"/>
        <pt x="208" y="183" on="1"/>
        <pt x="258" y="183" on="0"/>
        <pt x="258" y="132" on="1"/>
        <pt x="258" y="110" on="0"/>
        <pt x="231" y="81" on="0"/>
        <pt x="208" y="81" on="1"/>
        <pt x="159" y="81" on="0"/>
        <pt x="159" y="132" on="1"/>
      </contour>
    </TTGlyph>
    <TTGlyph name="divisionslash" xMin="-94" yMin="-10" xMax="325" yMax="710">
      <component glyphName=".ttfautohint" x="0" y="0" flags="0x0"/>
      <component glyphName="fraction" x="0" y="0" flags="0x1000"/>
    </TTGlyph>
    <TTGlyph name="dollar" xMin="53" yMin="-122" xMax="363" yMax="737">
      <contour>
        <pt x="363" y="231" on="0"/>
        <pt x="363" y="157" on="1"/>
        <pt x="363" y="19" on="0"/>
        <pt x="237" y="-3" on="1"/>
        <pt x="237" y="-91" on="1"/>
        <pt x="237" y="-110" on="0"/>
        <pt x="204" y="-122" on="0"/>
        <pt x="164" y="-122" on="1"/>
        <pt x="164" y="-7" on="1"/>
        <pt x="128" y="-5" on="0"/>
        <pt x="78" y="10" on="0"/>
        <pt x="53" y="29" on="0"/>
        <pt x="53" y="37" on="1"/>
        <pt x="53" y="46" on="0"/>
        <pt x="66" y="91" on="0"/>
        <pt x="74" y="102" on="1"/>
        <pt x="111" y="72" on="0"/>
        <pt x="181" y="72" on="1"/>
        <pt x="274" y="72" on="0"/>
        <pt x="274" y="158" on="1"/>
        <pt x="274" y="186" on="0"/>
        <pt x="250" y="230" on="0"/>
        <pt x="219" y="264" on="1"/>
        <pt x="107" y="377" on="1"/>
        <pt x="53" y="434" on="0"/>
        <pt x="53" y="488" on="1"/>
        <pt x="53" y="541" on="0"/>
        <pt x="120" y="607" on="0"/>
        <pt x="181" y="615" on="1"/>
        <pt x="181" y="704" on="1"/>
        <pt x="181" y="724" on="0"/>
        <pt x="215" y="737" on="0"/>
        <pt x="254" y="737" on="1"/>
        <pt x="254" y="616" on="1"/>
        <pt x="305" y="613" on="0"/>
        <pt x="357" y="590" on="0"/>
        <pt x="357" y="581" on="1"/>
        <pt x="357" y="569" on="0"/>
        <pt x="347" y="536" on="0"/>
        <pt x="337" y="525" on="1"/>
        <pt x="326" y="533" on="0"/>
        <pt x="271" y="546" on="0"/>
        <pt x="239" y="546" on="1"/>
        <pt x="142" y="546" on="0"/>
        <pt x="142" y="489" on="1"/>
        <pt x="142" y="469" on="0"/>
        <pt x="162" y="434" on="0"/>
        <pt x="185" y="409" on="1"/>
        <pt x="306" y="288" on="1"/>
      </contour>
    </TTGlyph>
    <TTGlyph name="dotaccent" xMin="92" yMin="570" xMax="178" yMax="692">
      <contour>
        <pt x="92" y="692" on="0"/>
        <pt x="138" y="692" on="1"/>
        <pt x="160" y="692" on="0"/>
        <pt x="178" y="666" on="0"/>
        <pt x="178" y="636" on="1"/>
        <pt x="178" y="570" on="0"/>
        <pt x="132" y="570" on="1"/>
        <pt x="92" y="570" on="0"/>
        <pt x="92" y="630" on="1"/>
      </contour>
    </TTGlyph>
    <TTGlyph name="dotlessi" xMin="47" yMin="0" xMax="128" yMax="500">
      <contour>
        <pt x="128" y="7" on="0"/>
        <pt x="121" y="1" on="0"/>
        <pt x="81" y="0" on="0"/>
        <pt x="47" y="0" on="1"/>
        <pt x="47" y="463" on="1"/>
        <pt x="47" y="482" on="0"/>
        <pt x="60" y="497" on="0"/>
        <pt x="90" y="500" on="0"/>
        <pt x="128" y="500" on="1"/>
        <pt x="128" y="16" on="1"/>
      </contour>
    </TTGlyph>
    <TTGlyph name="dotlessj" xMin="-103" yMin="-196" xMax="134" yMax="500">
      <contour>
        <pt x="134" y="-111" on="0"/>
        <pt x="78" y="-196" on="0"/>
        <pt x="4" y="-196" on="1"/>
        <pt x="-103" y="-196" on="0"/>
        <pt x="-103" y="-143" on="1"/>
        <pt x="-103" y="-117" on="0"/>
        <pt x="-91" y="-102" on="1"/>
        <pt x="-53" y="-122" on="0"/>
        <pt x="-6" y="-122" on="1"/>
        <pt x="31" y="-122" on="0"/>
        <pt x="54" y="-79" on="0"/>
        <pt x="54" y="-24" on="1"/>
        <pt x="54" y="463" on="1"/>
        <pt x="54" y="482" on="0"/>
        <pt x="67" y="497" on="0"/>
        <pt x="96" y="500" on="0"/>
        <pt x="134" y="500" on="1"/>
        <pt x="134" y="-36" on="1"/>
      </contour>
    </TTGlyph>
    <TTGlyph name="e" xMin="30" yMin="-10" xMax="334" yMax="510">
      <contour>
        <pt x="267" y="68" on="0"/>
        <pt x="321" y="100" on="1"/>
        <pt x="328" y="78" on="0"/>
        <pt x="328" y="45" on="1"/>
        <pt x="328" y="22" on="0"/>
        <pt x="247" y="-10" on="0"/>
        <pt x="190" y="-10" on="1"/>
        <pt x="139" y="-10" on="0"/>
        <pt x="70" y="28" on="0"/>
        <pt x="30" y="130" on="0"/>
        <pt x="30" y="224" on="1"/>
        <pt x="30" y="341" on="0"/>
        <pt x="79" y="467" on="0"/>
        <pt x="155" y="510" on="0"/>
        <pt x="207" y="510" on="1"/>
        <pt x="334" y="510" on="0"/>
        <pt x="334" y="350" on="1"/>
        <pt x="334" y="270" on="0"/>
        <pt x="323" y="220" on="1"/>
        <pt x="242" y="204" on="0"/>
        <pt x="113" y="204" on="1"/>
        <pt x="116" y="126" on="0"/>
        <pt x="159" y="68" on="0"/>
        <pt x="207" y="68" on="1"/>
      </contour>
      <contour>
        <pt x="122" y="439" on="0"/>
        <pt x="113" y="269" on="1"/>
        <pt x="204" y="267" on="0"/>
        <pt x="251" y="280" on="1"/>
        <pt x="256" y="303" on="0"/>
        <pt x="256" y="340" on="1"/>
        <pt x="255" y="396" on="0"/>
        <pt x="231" y="439" on="0"/>
        <pt x="198" y="439" on="1"/>
      </contour>
    </TTGlyph>
    <TTGlyph name="eacute" xMin="30" yMin="-10" xMax="334" yMax="722">
      <component glyphName=".ttfautohint" x="30" y="0" flags="0x0"/>
      <component glyphName="e" x="0" y="0" flags="0x1000"/>
      <component glyphName="acute" x="52" y="0" flags="0x1000"/>
    </TTGlyph>
    <TTGlyph name="ecaron" xMin="30" yMin="-10" xMax="334" yMax="719">
      <component glyphName=".ttfautohint" x="30" y="0" flags="0x0"/>
      <component glyphName="e" x="0" y="0" flags="0x1000"/>
      <component glyphName="caron" x="45" y="0" flags="0x1000"/>
    </TTGlyph>
    <TTGlyph name="ecircumflex" xMin="30" yMin="-10" xMax="334" yMax="711">
      <component glyphName=".ttfautohint" x="30" y="0" flags="0x0"/>
      <component glyphName="e" x="0" y="0" flags="0x1000"/>
      <component glyphName="circumflex" x="46" y="0" flags="0x1000"/>
    </TTGlyph>
    <TTGlyph name="edieresis" xMin="30" yMin="-10" xMax="334" yMax="689">
      <component glyphName=".ttfautohint" x="30" y="0" flags="0x0"/>
      <component glyphName="e" x="0" y="0" flags="0x1000"/>
      <component glyphName="dieresis" x="46" y="0" flags="0x1000"/>
    </TTGlyph>
    <TTGlyph name="edotaccent" xMin="30" yMin="-10" xMax="334" yMax="692">
      <component glyphName=".ttfautohint" x="30" y="0" flags="0x0"/>
      <component glyphName="e" x="0" y="0" flags="0x1000"/>
      <component glyphName="dotaccent" x="45" y="0" flags="0x1000"/>
    </TTGlyph>
    <TTGlyph name="egrave" xMin="30" yMin="-10" xMax="334" yMax="716">
      <component glyphName=".ttfautohint" x="30" y="0" flags="0x0"/>
      <component glyphName="e" x="0" y="0" flags="0x1000"/>
      <component glyphName="grave" x="52" y="0" flags="0x1000"/>
    </TTGlyph>
    <TTGlyph name="eight" xMin="32" yMin="-8" xMax="392" yMax="706">
      <contour>
        <pt x="392" y="262" on="0"/>
        <pt x="392" y="182" on="1"/>
        <pt x="392" y="99" on="0"/>
        <pt x="302" y="-8" on="0"/>
        <pt x="218" y="-8" on="1"/>
        <pt x="123" y="-8" on="0"/>
        <pt x="32" y="98" on="0"/>
        <pt x="32" y="183" on="1"/>
        <pt x="32" y="245" on="0"/>
        <pt x="95" y="346" on="0"/>
        <pt x="146" y="376" on="1"/>
        <pt x="101" y="407" on="0"/>
        <pt x="81" y="429" on="1"/>
        <pt x="39" y="468" on="0"/>
        <pt x="39" y="534" on="1"/>
        <pt x="39" y="617" on="0"/>
        <pt x="136" y="706" on="0"/>
        <pt x="210" y="706" on="1"/>
        <pt x="387" y="706" on="0"/>
        <pt x="387" y="544" on="1"/>
        <pt x="387" y="485" on="0"/>
        <pt x="328" y="403" on="0"/>
        <pt x="279" y="369" on="1"/>
        <pt x="317" y="339" on="0"/>
        <pt x="333" y="323" on="1"/>
      </contour>
      <contour>
        <pt x="176" y="630" on="0"/>
        <pt x="119" y="585" on="0"/>
        <pt x="119" y="539" on="1"/>
        <pt x="119" y="489" on="0"/>
        <pt x="159" y="457" on="1"/>
        <pt x="175" y="441" on="0"/>
        <pt x="219" y="411" on="1"/>
        <pt x="313" y="470" on="0"/>
        <pt x="313" y="541" on="1"/>
        <pt x="313" y="585" on="0"/>
        <pt x="259" y="630" on="0"/>
        <pt x="220" y="630" on="1"/>
      </contour>
      <contour>
        <pt x="259" y="69" on="0"/>
        <pt x="313" y="131" on="0"/>
        <pt x="313" y="183" on="1"/>
        <pt x="313" y="220" on="0"/>
        <pt x="290" y="266" on="0"/>
        <pt x="268" y="286" on="1"/>
        <pt x="245" y="309" on="0"/>
        <pt x="210" y="333" on="1"/>
        <pt x="164" y="309" on="0"/>
        <pt x="107" y="235" on="0"/>
        <pt x="107" y="188" on="1"/>
        <pt x="107" y="133" on="0"/>
        <pt x="164" y="69" on="0"/>
        <pt x="213" y="69" on="1"/>
      </contour>
    </TTGlyph>
    <TTGlyph name="ellipsis" xMin="35" yMin="-6" xMax="485" yMax="108">
      <component glyphName=".ttfautohint" x="35" y="0" flags="0x0"/>
      <component glyphName="period" x="-2" y="0" flags="0x1000"/>
      <component glyphName="period" x="168" y="0" flags="0x1000"/>
      <component glyphName="period" x="337" y="0" flags="0x1000"/>
    </TTGlyph>
    <TTGlyph name="emacron" xMin="30" yMin="-10" xMax="334" yMax="663">
      <component glyphName=".ttfautohint" x="30" y="0" flags="0x0"/>
      <component glyphName="e" x="0" y="0" flags="0x1000"/>
      <component glyphName="macron" x="46" y="0" flags="0x1000"/>
    </TTGlyph>
    <TTGlyph name="emdash" xMin="6" yMin="247" xMax="694" yMax="317">
      <contour>
        <pt x="6" y="290" on="0"/>
        <pt x="11" y="317" on="0"/>
        <pt x="22" y="317" on="1"/>
        <pt x="694" y="317" on="1"/>
        <pt x="694" y="275" on="0"/>
        <pt x="689" y="247" on="0"/>
        <pt x="678" y="247" on="1"/>
        <pt x="6" y="247" on="1"/>
      </contour>
    </TTGlyph>
    <TTGlyph name="endash" xMin="37" yMin="247" xMax="387" yMax="317">
      <contour>
        <pt x="37" y="290" on="0"/>
        <pt x="42" y="317" on="0"/>
        <pt x="54" y="317" on="1"/>
        <pt x="387" y="317" on="1"/>
        <pt x="387" y="275" on="0"/>
        <pt x="382" y="247" on="0"/>
        <pt x="371" y="247" on="1"/>
        <pt x="37" y="247" on="1"/>
      </contour>
    </TTGlyph>
    <TTGlyph name="eogonek" xMin="30" yMin="-195" xMax="334" yMax="510">
      <contour>
        <pt x="334" y="510" on="0"/>
        <pt x="334" y="350" on="1"/>
        <pt x="334" y="270" on="0"/>
        <pt x="323" y="220" on="1"/>
        <pt x="243" y="204" on="0"/>
        <pt x="113" y="204" on="1"/>
        <pt x="114" y="149" on="0"/>
        <pt x="136" y="90" on="0"/>
        <pt x="175" y="68" on="0"/>
        <pt x="207" y="68" on="1"/>
        <pt x="267" y="68" on="0"/>
        <pt x="321" y="100" on="1"/>
        <pt x="328" y="78" on="0"/>
        <pt x="328" y="45" on="1"/>
        <pt x="328" y="33" on="0"/>
        <pt x="312" y="19" on="1"/>
        <pt x="288" y="-2" on="0"/>
        <pt x="254" y="-68" on="0"/>
        <pt x="254" y="-100" on="1"/>
        <pt x="254" y="-136" on="0"/>
        <pt x="287" y="-136" on="1"/>
        <pt x="303" y="-136" on="0"/>
        <pt x="316" y="-129" on="1"/>
        <pt x="324" y="-147" on="0"/>
        <pt x="324" y="-159" on="1"/>
        <pt x="324" y="-162" on="1"/>
        <pt x="324" y="-168" on="0"/>
        <pt x="322" y="-174" on="1"/>
        <pt x="312" y="-195" on="0"/>
        <pt x="265" y="-195" on="1"/>
        <pt x="182" y="-195" on="0"/>
        <pt x="182" y="-110" on="1"/>
        <pt x="182" y="-60" on="0"/>
        <pt x="214" y="-7" on="1"/>
        <pt x="202" y="-10" on="0"/>
        <pt x="187" y="-10" on="1"/>
        <pt x="136" y="-9" on="0"/>
        <pt x="69" y="29" on="0"/>
        <pt x="30" y="131" on="0"/>
        <pt x="30" y="224" on="1"/>
        <pt x="30" y="341" on="0"/>
        <pt x="79" y="467" on="0"/>
        <pt x="155" y="510" on="0"/>
        <pt x="207" y="510" on="1"/>
      </contour>
      <contour>
        <pt x="119" y="439" on="0"/>
        <pt x="113" y="269" on="1"/>
        <pt x="211" y="269" on="0"/>
        <pt x="251" y="280" on="1"/>
        <pt x="256" y="303" on="0"/>
        <pt x="256" y="340" on="1"/>
        <pt x="255" y="396" on="0"/>
        <pt x="231" y="439" on="0"/>
        <pt x="198" y="439" on="1"/>
      </contour>
    </TTGlyph>
    <TTGlyph name="equal" xMin="34" yMin="154" xMax="384" yMax="410">
      <contour>
        <pt x="34" y="382" on="0"/>
        <pt x="39" y="410" on="0"/>
        <pt x="51" y="410" on="1"/>
        <pt x="384" y="410" on="1"/>
        <pt x="384" y="367" on="0"/>
        <pt x="379" y="339" on="0"/>
        <pt x="368" y="339" on="1"/>
        <pt x="34" y="339" on="1"/>
      </contour>
      <contour>
        <pt x="34" y="197" on="0"/>
        <pt x="39" y="224" on="0"/>
        <pt x="51" y="224" on="1"/>
        <pt x="384" y="224" on="1"/>
        <pt x="384" y="182" on="0"/>
        <pt x="379" y="154" on="0"/>
        <pt x="368" y="154" on="1"/>
        <pt x="34" y="154" on="1"/>
      </contour>
    </TTGlyph>
    <TTGlyph name="estimated" xMin="70" yMin="18" xMax="740" yMax="621">
      <contour>
        <pt x="192" y="312" on="0"/>
        <pt x="192" y="308" on="1"/>
        <pt x="192" y="144" on="1"/>
        <pt x="192" y="135" on="0"/>
        <pt x="200" y="125" on="1"/>
        <pt x="239" y="83" on="0"/>
        <pt x="346" y="36" on="0"/>
        <pt x="406" y="36" on="1"/>
        <pt x="469" y="36" on="0"/>
        <pt x="582" y="89" on="0"/>
        <pt x="621" y="135" on="1"/>
        <pt x="670" y="135" on="1"/>
        <pt x="624" y="81" on="0"/>
        <pt x="484" y="18" on="0"/>
        <pt x="405" y="18" on="1"/>
        <pt x="314" y="18" on="0"/>
        <pt x="160" y="99" on="0"/>
        <pt x="70" y="237" on="0"/>
        <pt x="70" y="319" on="1"/>
        <pt x="70" y="401" on="0"/>
        <pt x="160" y="540" on="0"/>
        <pt x="314" y="621" on="0"/>
        <pt x="405" y="621" on="1"/>
        <pt x="496" y="621" on="0"/>
        <pt x="650" y="540" on="0"/>
        <pt x="740" y="401" on="0"/>
        <pt x="740" y="319" on="1"/>
        <pt x="740" y="312" on="1"/>
        <pt x="197" y="312" on="1"/>
      </contour>
      <contour>
        <pt x="618" y="509" on="0"/>
        <pt x="609" y="518" on="1"/>
        <pt x="569" y="558" on="0"/>
        <pt x="464" y="603" on="0"/>
        <pt x="406" y="603" on="1"/>
        <pt x="347" y="603" on="0"/>
        <pt x="241" y="556" on="0"/>
        <pt x="201" y="515" on="1"/>
        <pt x="192" y="506" on="0"/>
        <pt x="192" y="495" on="1"/>
        <pt x="192" y="333" on="1"/>
        <pt x="192" y="328" on="0"/>
        <pt x="197" y="328" on="1"/>
        <pt x="613" y="328" on="1"/>
        <pt x="618" y="328" on="0"/>
        <pt x="618" y="333" on="1"/>
        <pt x="618" y="498" on="1"/>
      </contour>
    </TTGlyph>
    <TTGlyph name="eth" xMin="30" yMin="-10" xMax="380" yMax="744">
      <contour>
        <pt x="380" y="504" on="0"/>
        <pt x="380" y="289" on="1"/>
        <pt x="380" y="149" on="0"/>
        <pt x="308" y="-10" on="0"/>
        <pt x="209" y="-10" on="1"/>
        <pt x="116" y="-10" on="0"/>
        <pt x="30" y="113" on="0"/>
        <pt x="30" y="257" on="1"/>
        <pt x="30" y="378" on="0"/>
        <pt x="116" y="509" on="0"/>
        <pt x="190" y="509" on="1"/>
        <pt x="245" y="509" on="0"/>
        <pt x="278" y="479" on="1"/>
        <pt x="261" y="547" on="0"/>
        <pt x="224" y="602" on="1"/>
        <pt x="129" y="565" on="1"/>
        <pt x="111" y="612" on="0"/>
        <pt x="111" y="623" on="1"/>
        <pt x="111" y="633" on="0"/>
        <pt x="119" y="637" on="1"/>
        <pt x="177" y="659" on="1"/>
        <pt x="158" y="679" on="0"/>
        <pt x="125" y="707" on="1"/>
        <pt x="134" y="724" on="0"/>
        <pt x="166" y="744" on="0"/>
        <pt x="183" y="744" on="1"/>
        <pt x="203" y="744" on="0"/>
        <pt x="213" y="732" on="1"/>
        <pt x="233" y="716" on="0"/>
        <pt x="257" y="690" on="1"/>
        <pt x="326" y="717" on="1"/>
        <pt x="344" y="670" on="0"/>
        <pt x="344" y="659" on="1"/>
        <pt x="344" y="649" on="0"/>
        <pt x="336" y="646" on="1"/>
        <pt x="301" y="632" on="1"/>
      </contour>
      <contour>
        <pt x="263" y="58" on="0"/>
        <pt x="298" y="174" on="0"/>
        <pt x="298" y="286" on="1"/>
        <pt x="298" y="346" on="0"/>
        <pt x="294" y="387" on="1"/>
        <pt x="263" y="437" on="0"/>
        <pt x="212" y="437" on="1"/>
        <pt x="163" y="437" on="0"/>
        <pt x="112" y="329" on="0"/>
        <pt x="112" y="244" on="1"/>
        <pt x="112" y="58" on="0"/>
        <pt x="207" y="58" on="1"/>
      </contour>
    </TTGlyph>
    <TTGlyph name="exclam" xMin="42" yMin="-7" xMax="155" yMax="706">
      <contour>
        <pt x="45" y="694" on="0"/>
        <pt x="62" y="704" on="0"/>
        <pt x="104" y="706" on="0"/>
        <pt x="155" y="706" on="1"/>
        <pt x="139" y="251" on="1"/>
        <pt x="138" y="233" on="0"/>
        <pt x="124" y="218" on="0"/>
        <pt x="93" y="213" on="0"/>
        <pt x="59" y="213" on="1"/>
        <pt x="45" y="683" on="1"/>
      </contour>
      <contour>
        <pt x="42" y="74" on="0"/>
        <pt x="72" y="108" on="0"/>
        <pt x="97" y="108" on="1"/>
        <pt x="153" y="108" on="0"/>
        <pt x="153" y="50" on="1"/>
        <pt x="153" y="26" on="0"/>
        <pt x="122" y="-7" on="0"/>
        <pt x="97" y="-7" on="1"/>
        <pt x="42" y="-7" on="0"/>
        <pt x="42" y="50" on="1"/>
      </contour>
    </TTGlyph>
    <TTGlyph name="exclamdown" xMin="45" yMin="-197" xMax="157" yMax="508">
      <contour>
        <pt x="157" y="427" on="0"/>
        <pt x="127" y="394" on="0"/>
        <pt x="102" y="394" on="1"/>
        <pt x="46" y="394" on="0"/>
        <pt x="46" y="451" on="1"/>
        <pt x="46" y="476" on="0"/>
        <pt x="76" y="508" on="0"/>
        <pt x="102" y="508" on="1"/>
        <pt x="157" y="508" on="0"/>
        <pt x="157" y="451" on="1"/>
      </contour>
      <contour>
        <pt x="155" y="-185" on="0"/>
        <pt x="138" y="-195" on="0"/>
        <pt x="96" y="-197" on="0"/>
        <pt x="45" y="-197" on="1"/>
        <pt x="61" y="256" on="1"/>
        <pt x="62" y="274" on="0"/>
        <pt x="76" y="289" on="0"/>
        <pt x="107" y="293" on="0"/>
        <pt x="141" y="293" on="1"/>
        <pt x="155" y="-174" on="1"/>
      </contour>
    </TTGlyph>
    <TTGlyph name="f" xMin="13" yMin="0" xMax="342" yMax="739">
      <contour>
        <pt x="13" y="459" on="0"/>
        <pt x="15" y="492" on="0"/>
        <pt x="22" y="500" on="0"/>
        <pt x="33" y="500" on="1"/>
        <pt x="82" y="500" on="1"/>
        <pt x="82" y="561" on="1"/>
        <pt x="82" y="739" on="0"/>
        <pt x="249" y="739" on="1"/>
        <pt x="294" y="739" on="0"/>
        <pt x="342" y="717" on="0"/>
        <pt x="342" y="698" on="1"/>
        <pt x="342" y="675" on="0"/>
        <pt x="333" y="654" on="1"/>
        <pt x="304" y="666" on="0"/>
        <pt x="262" y="666" on="1"/>
        <pt x="215" y="666" on="0"/>
        <pt x="162" y="626" on="0"/>
        <pt x="162" y="567" on="1"/>
        <pt x="162" y="500" on="1"/>
        <pt x="252" y="500" on="1"/>
        <pt x="252" y="473" on="0"/>
        <pt x="250" y="440" on="0"/>
        <pt x="244" y="432" on="0"/>
        <pt x="235" y="432" on="1"/>
        <pt x="162" y="432" on="1"/>
        <pt x="162" y="16" on="1"/>
        <pt x="162" y="0" on="0"/>
        <pt x="145" y="0" on="1"/>
        <pt x="82" y="0" on="1"/>
        <pt x="82" y="432" on="1"/>
        <pt x="13" y="432" on="1"/>
      </contour>
    </TTGlyph>
    <TTGlyph name="f.ss02" xMin="9" yMin="0" xMax="264" yMax="739">
      <contour>
        <pt x="9" y="468" on="0"/>
        <pt x="11" y="492" on="0"/>
        <pt x="19" y="500" on="0"/>
        <pt x="30" y="500" on="1"/>
        <pt x="78" y="500" on="1"/>
        <pt x="78" y="616" on="1"/>
        <pt x="78" y="739" on="0"/>
        <pt x="191" y="739" on="1"/>
        <pt x="264" y="739" on="0"/>
        <pt x="264" y="702" on="1"/>
        <pt x="264" y="683" on="0"/>
        <pt x="256" y="661" on="1"/>
        <pt x="237" y="670" on="0"/>
        <pt x="209" y="670" on="1"/>
        <pt x="184" y="670" on="0"/>
        <pt x="159" y="644" on="0"/>
        <pt x="159" y="608" on="1"/>
        <pt x="159" y="500" on="1"/>
        <pt x="249" y="500" on="1"/>
        <pt x="249" y="467" on="0"/>
        <pt x="247" y="440" on="0"/>
        <pt x="240" y="432" on="0"/>
        <pt x="232" y="432" on="1"/>
        <pt x="159" y="432" on="1"/>
        <pt x="159" y="16" on="1"/>
        <pt x="159" y="12" on="0"/>
        <pt x="153" y="0" on="0"/>
        <pt x="142" y="0" on="1"/>
        <pt x="78" y="0" on="1"/>
        <pt x="78" y="432" on="1"/>
        <pt x="9" y="432" on="1"/>
      </contour>
    </TTGlyph>
    <TTGlyph name="f_f" xMin="13" yMin="0" xMax="545" yMax="739">
      <contour>
        <pt x="82" y="734" on="0"/>
        <pt x="238" y="734" on="1"/>
        <pt x="294" y="734" on="0"/>
        <pt x="338" y="707" on="1"/>
        <pt x="378" y="739" on="0"/>
        <pt x="452" y="739" on="1"/>
        <pt x="501" y="739" on="0"/>
        <pt x="545" y="716" on="0"/>
        <pt x="545" y="692" on="1"/>
        <pt x="545" y="675" on="0"/>
        <pt x="536" y="654" on="1"/>
        <pt x="507" y="666" on="0"/>
        <pt x="465" y="666" on="1"/>
        <pt x="418" y="666" on="0"/>
        <pt x="365" y="626" on="0"/>
        <pt x="365" y="567" on="1"/>
        <pt x="365" y="500" on="1"/>
        <pt x="455" y="500" on="1"/>
        <pt x="455" y="473" on="0"/>
        <pt x="453" y="440" on="0"/>
        <pt x="447" y="432" on="0"/>
        <pt x="438" y="432" on="1"/>
        <pt x="365" y="432" on="1"/>
        <pt x="365" y="16" on="1"/>
        <pt x="365" y="12" on="0"/>
        <pt x="359" y="0" on="0"/>
        <pt x="348" y="0" on="1"/>
        <pt x="284" y="0" on="1"/>
        <pt x="284" y="432" on="1"/>
        <pt x="162" y="432" on="1"/>
        <pt x="162" y="16" on="1"/>
        <pt x="162" y="12" on="0"/>
        <pt x="156" y="0" on="0"/>
        <pt x="145" y="0" on="1"/>
        <pt x="82" y="0" on="1"/>
        <pt x="82" y="432" on="1"/>
        <pt x="13" y="432" on="1"/>
        <pt x="13" y="459" on="0"/>
        <pt x="15" y="492" on="0"/>
        <pt x="22" y="500" on="0"/>
        <pt x="33" y="500" on="1"/>
        <pt x="82" y="500" on="1"/>
        <pt x="82" y="569" on="1"/>
      </contour>
      <contour>
        <pt x="284" y="612" on="0"/>
        <pt x="299" y="652" on="1"/>
        <pt x="274" y="666" on="0"/>
        <pt x="239" y="666" on="1"/>
        <pt x="162" y="666" on="0"/>
        <pt x="162" y="578" on="1"/>
        <pt x="162" y="500" on="1"/>
        <pt x="284" y="500" on="1"/>
        <pt x="284" y="561" on="1"/>
      </contour>
    </TTGlyph>
    <TTGlyph name="f_f_i" xMin="10" yMin="0" xMax="576" yMax="739">
      <contour>
        <pt x="79" y="734" on="0"/>
        <pt x="236" y="734" on="1"/>
        <pt x="293" y="734" on="0"/>
        <pt x="336" y="706" on="1"/>
        <pt x="379" y="739" on="0"/>
        <pt x="462" y="739" on="1"/>
        <pt x="576" y="739" on="0"/>
        <pt x="576" y="690" on="1"/>
        <pt x="576" y="665" on="0"/>
        <pt x="568" y="643" on="1"/>
        <pt x="524" y="666" on="0"/>
        <pt x="465" y="666" on="1"/>
        <pt x="415" y="666" on="0"/>
        <pt x="362" y="626" on="0"/>
        <pt x="362" y="562" on="1"/>
        <pt x="362" y="500" on="1"/>
        <pt x="432" y="500" on="1"/>
        <pt x="432" y="473" on="0"/>
        <pt x="430" y="440" on="0"/>
        <pt x="424" y="432" on="0"/>
        <pt x="415" y="432" on="1"/>
        <pt x="362" y="432" on="1"/>
        <pt x="362" y="16" on="1"/>
        <pt x="362" y="12" on="0"/>
        <pt x="356" y="0" on="0"/>
        <pt x="346" y="0" on="1"/>
        <pt x="282" y="0" on="1"/>
        <pt x="282" y="432" on="1"/>
        <pt x="242" y="432" on="1"/>
        <pt x="159" y="432" on="1"/>
        <pt x="159" y="16" on="1"/>
        <pt x="159" y="12" on="0"/>
        <pt x="153" y="0" on="0"/>
        <pt x="143" y="0" on="1"/>
        <pt x="79" y="0" on="1"/>
        <pt x="79" y="432" on="1"/>
        <pt x="10" y="432" on="1"/>
        <pt x="10" y="468" on="0"/>
        <pt x="12" y="492" on="0"/>
        <pt x="20" y="500" on="0"/>
        <pt x="31" y="500" on="1"/>
        <pt x="79" y="500" on="1"/>
        <pt x="79" y="569" on="1"/>
      </contour>
      <contour>
        <pt x="282" y="616" on="0"/>
        <pt x="297" y="652" on="1"/>
        <pt x="272" y="666" on="0"/>
        <pt x="236" y="666" on="1"/>
        <pt x="159" y="666" on="0"/>
        <pt x="159" y="578" on="1"/>
        <pt x="159" y="500" on="1"/>
        <pt x="234" y="500" on="1"/>
        <pt x="282" y="500" on="1"/>
        <pt x="282" y="561" on="1"/>
      </contour>
      <contour>
        <pt x="478" y="482" on="0"/>
        <pt x="491" y="497" on="0"/>
        <pt x="521" y="500" on="0"/>
        <pt x="559" y="500" on="1"/>
        <pt x="559" y="16" on="1"/>
        <pt x="559" y="7" on="0"/>
        <pt x="552" y="1" on="0"/>
        <pt x="512" y="0" on="0"/>
        <pt x="478" y="0" on="1"/>
        <pt x="478" y="463" on="1"/>
      </contour>
    </TTGlyph>
    <TTGlyph name="f_f_l" xMin="10" yMin="0" xMax="569" yMax="739">
      <contour>
        <pt x="569" y="7" on="0"/>
        <pt x="562" y="1" on="0"/>
        <pt x="523" y="0" on="0"/>
        <pt x="489" y="0" on="1"/>
        <pt x="489" y="659" on="1"/>
        <pt x="472" y="666" on="0"/>
        <pt x="444" y="666" on="1"/>
        <pt x="407" y="666" on="0"/>
        <pt x="362" y="630" on="0"/>
        <pt x="362" y="572" on="1"/>
        <pt x="362" y="500" on="1"/>
        <pt x="432" y="500" on="1"/>
        <pt x="432" y="467" on="0"/>
        <pt x="430" y="440" on="0"/>
        <pt x="423" y="432" on="0"/>
        <pt x="415" y="432" on="1"/>
        <pt x="362" y="432" on="1"/>
        <pt x="362" y="16" on="1"/>
        <pt x="362" y="12" on="0"/>
        <pt x="356" y="0" on="0"/>
        <pt x="346" y="0" on="1"/>
        <pt x="282" y="0" on="1"/>
        <pt x="282" y="432" on="1"/>
        <pt x="242" y="432" on="1"/>
        <pt x="159" y="432" on="1"/>
        <pt x="159" y="16" on="1"/>
        <pt x="159" y="12" on="0"/>
        <pt x="153" y="0" on="0"/>
        <pt x="143" y="0" on="1"/>
        <pt x="79" y="0" on="1"/>
        <pt x="79" y="432" on="1"/>
        <pt x="10" y="432" on="1"/>
        <pt x="10" y="468" on="0"/>
        <pt x="12" y="492" on="0"/>
        <pt x="20" y="500" on="0"/>
        <pt x="31" y="500" on="1"/>
        <pt x="79" y="500" on="1"/>
        <pt x="79" y="569" on="1"/>
        <pt x="79" y="734" on="0"/>
        <pt x="236" y="734" on="1"/>
        <pt x="289" y="734" on="0"/>
        <pt x="335" y="707" on="1"/>
        <pt x="372" y="739" on="0"/>
        <pt x="439" y="739" on="1"/>
        <pt x="512" y="739" on="0"/>
        <pt x="569" y="706" on="1"/>
        <pt x="569" y="705" on="1"/>
        <pt x="569" y="16" on="1"/>
      </contour>
      <contour>
        <pt x="282" y="615" on="0"/>
        <pt x="296" y="652" on="1"/>
        <pt x="271" y="666" on="0"/>
        <pt x="236" y="666" on="1"/>
        <pt x="159" y="666" on="0"/>
        <pt x="159" y="578" on="1"/>
        <pt x="159" y="500" on="1"/>
        <pt x="241" y="500" on="1"/>
        <pt x="282" y="500" on="1"/>
        <pt x="282" y="561" on="1"/>
      </contour>
    </TTGlyph>
    <TTGlyph name="fi" xMin="10" yMin="0" xMax="374" yMax="739">
      <contour>
        <pt x="10" y="468" on="0"/>
        <pt x="12" y="492" on="0"/>
        <pt x="20" y="500" on="0"/>
        <pt x="31" y="500" on="1"/>
        <pt x="79" y="500" on="1"/>
        <pt x="79" y="561" on="1"/>
        <pt x="79" y="667" on="0"/>
        <pt x="178" y="739" on="0"/>
        <pt x="259" y="739" on="1"/>
        <pt x="374" y="739" on="0"/>
        <pt x="374" y="690" on="1"/>
        <pt x="374" y="664" on="0"/>
        <pt x="365" y="643" on="1"/>
        <pt x="321" y="666" on="0"/>
        <pt x="262" y="666" on="1"/>
        <pt x="230" y="666" on="0"/>
        <pt x="187" y="652" on="0"/>
        <pt x="160" y="606" on="0"/>
        <pt x="160" y="562" on="1"/>
        <pt x="160" y="500" on="1"/>
        <pt x="230" y="500" on="1"/>
        <pt x="230" y="467" on="0"/>
        <pt x="228" y="440" on="0"/>
        <pt x="221" y="432" on="0"/>
        <pt x="213" y="432" on="1"/>
        <pt x="160" y="432" on="1"/>
        <pt x="160" y="16" on="1"/>
        <pt x="160" y="12" on="0"/>
        <pt x="154" y="0" on="0"/>
        <pt x="143" y="0" on="1"/>
        <pt x="79" y="0" on="1"/>
        <pt x="79" y="432" on="1"/>
        <pt x="10" y="432" on="1"/>
      </contour>
      <contour>
        <pt x="357" y="7" on="0"/>
        <pt x="350" y="1" on="0"/>
        <pt x="310" y="0" on="0"/>
        <pt x="275" y="0" on="1"/>
        <pt x="275" y="463" on="1"/>
        <pt x="275" y="482" on="0"/>
        <pt x="288" y="497" on="0"/>
        <pt x="319" y="500" on="0"/>
        <pt x="357" y="500" on="1"/>
        <pt x="357" y="16" on="1"/>
      </contour>
    </TTGlyph>
    <TTGlyph name="firsttonechinese" xMin="1" yMin="587" xMax="268" yMax="663">
      <component glyphName=".ttfautohint" x="1" y="587" flags="0x0"/>
      <component glyphName="macron" x="0" y="0" flags="0x1000"/>
    </TTGlyph>
    <TTGlyph name="five" xMin="34" yMin="-100" xMax="380" yMax="600">
      <contour>
        <pt x="377" y="568" on="0"/>
        <pt x="372" y="539" on="0"/>
        <pt x="354" y="528" on="0"/>
        <pt x="335" y="528" on="1"/>
        <pt x="291" y="528" on="0"/>
        <pt x="166" y="531" on="0"/>
        <pt x="140" y="532" on="1"/>
        <pt x="124" y="381" on="1"/>
        <pt x="159" y="386" on="0"/>
        <pt x="188" y="386" on="1"/>
        <pt x="380" y="386" on="0"/>
        <pt x="380" y="195" on="1"/>
        <pt x="380" y="56" on="0"/>
        <pt x="265" y="-100" on="0"/>
        <pt x="148" y="-100" on="1"/>
        <pt x="111" y="-100" on="0"/>
        <pt x="59" y="-86" on="0"/>
        <pt x="34" y="-67" on="0"/>
        <pt x="34" y="-59" on="1"/>
        <pt x="34" y="-19" on="0"/>
        <pt x="43" y="7" on="1"/>
        <pt x="78" y="-25" on="0"/>
        <pt x="141" y="-25" on="1"/>
        <pt x="218" y="-25" on="0"/>
        <pt x="294" y="92" on="0"/>
        <pt x="294" y="178" on="1"/>
        <pt x="294" y="259" on="0"/>
        <pt x="216" y="319" on="0"/>
        <pt x="139" y="319" on="1"/>
        <pt x="100" y="319" on="0"/>
        <pt x="42" y="306" on="1"/>
        <pt x="71" y="600" on="1"/>
        <pt x="377" y="600" on="1"/>
      </contour>
    </TTGlyph>
    <TTGlyph name="five.001" xMin="34" yMin="-100" xMax="380" yMax="600">
      <contour>
        <pt x="377" y="568" on="0"/>
        <pt x="372" y="539" on="0"/>
        <pt x="354" y="528" on="0"/>
        <pt x="335" y="528" on="1"/>
        <pt x="291" y="528" on="0"/>
        <pt x="166" y="531" on="0"/>
        <pt x="140" y="532" on="1"/>
        <pt x="124" y="381" on="1"/>
        <pt x="159" y="386" on="0"/>
        <pt x="188" y="386" on="1"/>
        <pt x="380" y="386" on="0"/>
        <pt x="380" y="195" on="1"/>
        <pt x="380" y="56" on="0"/>
        <pt x="265" y="-100" on="0"/>
        <pt x="148" y="-100" on="1"/>
        <pt x="111" y="-100" on="0"/>
        <pt x="59" y="-86" on="0"/>
        <pt x="34" y="-67" on="0"/>
        <pt x="34" y="-59" on="1"/>
        <pt x="34" y="-19" on="0"/>
        <pt x="43" y="7" on="1"/>
        <pt x="78" y="-25" on="0"/>
        <pt x="141" y="-25" on="1"/>
        <pt x="218" y="-25" on="0"/>
        <pt x="294" y="92" on="0"/>
        <pt x="294" y="178" on="1"/>
        <pt x="294" y="259" on="0"/>
        <pt x="216" y="319" on="0"/>
        <pt x="139" y="319" on="1"/>
        <pt x="100" y="319" on="0"/>
        <pt x="42" y="306" on="1"/>
        <pt x="71" y="600" on="1"/>
        <pt x="377" y="600" on="1"/>
      </contour>
    </TTGlyph>
    <TTGlyph name="fl" xMin="10" yMin="0" xMax="366" yMax="738">
      <contour>
        <pt x="366" y="12" on="0"/>
        <pt x="360" y="0" on="0"/>
        <pt x="349" y="0" on="1"/>
        <pt x="286" y="0" on="1"/>
        <pt x="286" y="665" on="1"/>
        <pt x="265" y="672" on="0"/>
        <pt x="241" y="672" on="1"/>
        <pt x="206" y="672" on="0"/>
        <pt x="159" y="633" on="0"/>
        <pt x="159" y="573" on="1"/>
        <pt x="159" y="500" on="1"/>
        <pt x="240" y="500" on="1"/>
        <pt x="240" y="473" on="0"/>
        <pt x="238" y="440" on="0"/>
        <pt x="232" y="432" on="0"/>
        <pt x="223" y="432" on="1"/>
        <pt x="159" y="432" on="1"/>
        <pt x="159" y="16" on="1"/>
        <pt x="159" y="12" on="0"/>
        <pt x="153" y="0" on="0"/>
        <pt x="143" y="0" on="1"/>
        <pt x="79" y="0" on="1"/>
        <pt x="79" y="432" on="1"/>
        <pt x="10" y="432" on="1"/>
        <pt x="10" y="468" on="0"/>
        <pt x="12" y="492" on="0"/>
        <pt x="20" y="500" on="0"/>
        <pt x="31" y="500" on="1"/>
        <pt x="79" y="500" on="1"/>
        <pt x="79" y="561" on="1"/>
        <pt x="79" y="738" on="0"/>
        <pt x="236" y="738" on="1"/>
        <pt x="310" y="738" on="0"/>
        <pt x="366" y="704" on="1"/>
        <pt x="366" y="16" on="1"/>
      </contour>
    </TTGlyph>
    <TTGlyph name="florin" xMin="14" yMin="-196" xMax="454" yMax="738">
      <contour>
        <pt x="194" y="638" on="0"/>
        <pt x="242" y="715" on="0"/>
        <pt x="314" y="738" on="0"/>
        <pt x="361" y="738" on="1"/>
        <pt x="454" y="738" on="0"/>
        <pt x="454" y="694" on="1"/>
        <pt x="454" y="674" on="0"/>
        <pt x="445" y="653" on="1"/>
        <pt x="416" y="665" on="0"/>
        <pt x="374" y="665" on="1"/>
        <pt x="342" y="665" on="0"/>
        <pt x="301" y="653" on="0"/>
        <pt x="274" y="612" on="0"/>
        <pt x="274" y="571" on="1"/>
        <pt x="274" y="500" on="1"/>
        <pt x="421" y="500" on="1"/>
        <pt x="421" y="458" on="0"/>
        <pt x="416" y="430" on="0"/>
        <pt x="404" y="430" on="1"/>
        <pt x="274" y="430" on="1"/>
        <pt x="274" y="-23" on="1"/>
        <pt x="274" y="-97" on="0"/>
        <pt x="225" y="-173" on="0"/>
        <pt x="154" y="-196" on="0"/>
        <pt x="106" y="-196" on="1"/>
        <pt x="14" y="-196" on="0"/>
        <pt x="14" y="-153" on="1"/>
        <pt x="14" y="-133" on="0"/>
        <pt x="22" y="-111" on="1"/>
        <pt x="52" y="-124" on="0"/>
        <pt x="93" y="-124" on="1"/>
        <pt x="142" y="-124" on="0"/>
        <pt x="194" y="-88" on="0"/>
        <pt x="194" y="-29" on="1"/>
        <pt x="194" y="430" on="1"/>
        <pt x="71" y="430" on="1"/>
        <pt x="71" y="473" on="0"/>
        <pt x="76" y="500" on="0"/>
        <pt x="87" y="500" on="1"/>
        <pt x="194" y="500" on="1"/>
        <pt x="194" y="564" on="1"/>
      </contour>
    </TTGlyph>
    <TTGlyph name="four" xMin="28" yMin="0" xMax="394" yMax="606">
      <contour>
        <pt x="344" y="206" on="0"/>
        <pt x="384" y="208" on="0"/>
        <pt x="390" y="209" on="1"/>
        <pt x="391" y="208" on="0"/>
        <pt x="394" y="196" on="0"/>
        <pt x="394" y="185" on="1"/>
        <pt x="394" y="131" on="0"/>
        <pt x="367" y="131" on="1"/>
        <pt x="316" y="131" on="1"/>
        <pt x="316" y="26" on="1"/>
        <pt x="316" y="12" on="0"/>
        <pt x="309" y="2" on="0"/>
        <pt x="280" y="0" on="0"/>
        <pt x="235" y="0" on="1"/>
        <pt x="235" y="131" on="1"/>
        <pt x="54" y="131" on="1"/>
        <pt x="28" y="157" on="0"/>
        <pt x="28" y="202" on="1"/>
        <pt x="28" y="227" on="0"/>
        <pt x="103" y="395" on="0"/>
        <pt x="201" y="561" on="0"/>
        <pt x="237" y="592" on="1"/>
        <pt x="254" y="606" on="0"/>
        <pt x="273" y="606" on="1"/>
        <pt x="301" y="606" on="0"/>
        <pt x="316" y="595" on="1"/>
        <pt x="316" y="206" on="1"/>
      </contour>
      <contour>
        <pt x="208" y="450" on="0"/>
        <pt x="114" y="272" on="0"/>
        <pt x="98" y="206" on="1"/>
        <pt x="235" y="206" on="1"/>
        <pt x="247" y="495" on="1"/>
      </contour>
    </TTGlyph>
    <TTGlyph name="four.dnom" xMin="37" yMin="-6" xMax="364" yMax="421">
      <contour>
        <pt x="364" y="130" on="0"/>
        <pt x="364" y="109" on="1"/>
        <pt x="364" y="91" on="0"/>
        <pt x="350" y="70" on="0"/>
        <pt x="339" y="70" on="1"/>
        <pt x="298" y="70" on="1"/>
        <pt x="298" y="19" on="1"/>
        <pt x="298" y="-6" on="0"/>
        <pt x="255" y="-6" on="1"/>
        <pt x="238" y="-6" on="0"/>
        <pt x="222" y="-2" on="1"/>
        <pt x="222" y="70" on="1"/>
        <pt x="51" y="70" on="1"/>
        <pt x="37" y="85" on="0"/>
        <pt x="37" y="110" on="1"/>
        <pt x="37" y="125" on="0"/>
        <pt x="44" y="143" on="1"/>
        <pt x="62" y="202" on="0"/>
        <pt x="152" y="348" on="0"/>
        <pt x="194" y="390" on="1"/>
        <pt x="220" y="421" on="0"/>
        <pt x="264" y="421" on="1"/>
        <pt x="283" y="421" on="0"/>
        <pt x="298" y="416" on="1"/>
        <pt x="298" y="147" on="1"/>
        <pt x="357" y="147" on="1"/>
      </contour>
      <contour>
        <pt x="196" y="303" on="0"/>
        <pt x="125" y="190" on="0"/>
        <pt x="112" y="141" on="1"/>
        <pt x="225" y="141" on="1"/>
        <pt x="229" y="329" on="1"/>
      </contour>
    </TTGlyph>
    <TTGlyph name="four.numr" xMin="37" yMin="283" xMax="364" yMax="710">
      <contour>
        <pt x="364" y="419" on="0"/>
        <pt x="364" y="398" on="1"/>
        <pt x="364" y="380" on="0"/>
        <pt x="350" y="359" on="0"/>
        <pt x="339" y="359" on="1"/>
        <pt x="298" y="359" on="1"/>
        <pt x="298" y="308" on="1"/>
        <pt x="298" y="283" on="0"/>
        <pt x="255" y="283" on="1"/>
        <pt x="238" y="283" on="0"/>
        <pt x="222" y="287" on="1"/>
        <pt x="222" y="359" on="1"/>
        <pt x="51" y="359" on="1"/>
        <pt x="37" y="374" on="0"/>
        <pt x="37" y="399" on="1"/>
        <pt x="37" y="414" on="0"/>
        <pt x="44" y="432" on="1"/>
        <pt x="62" y="491" on="0"/>
        <pt x="152" y="637" on="0"/>
        <pt x="194" y="679" on="1"/>
        <pt x="220" y="710" on="0"/>
        <pt x="264" y="710" on="1"/>
        <pt x="283" y="710" on="0"/>
        <pt x="298" y="705" on="1"/>
        <pt x="298" y="436" on="1"/>
        <pt x="357" y="436" on="1"/>
      </contour>
      <contour>
        <pt x="196" y="592" on="0"/>
        <pt x="125" y="479" on="0"/>
        <pt x="112" y="430" on="1"/>
        <pt x="225" y="430" on="1"/>
        <pt x="229" y="618" on="1"/>
      </contour>
    </TTGlyph>
    <TTGlyph name="foursuperior" xMin="41" yMin="283" xMax="368" yMax="710">
      <contour>
        <pt x="368" y="419" on="0"/>
        <pt x="368" y="398" on="1"/>
        <pt x="368" y="380" on="0"/>
        <pt x="354" y="359" on="0"/>
        <pt x="343" y="359" on="1"/>
        <pt x="301" y="359" on="1"/>
        <pt x="301" y="308" on="1"/>
        <pt x="301" y="283" on="0"/>
        <pt x="259" y="283" on="1"/>
        <pt x="242" y="283" on="0"/>
        <pt x="226" y="287" on="1"/>
        <pt x="226" y="359" on="1"/>
        <pt x="54" y="359" on="1"/>
        <pt x="41" y="375" on="0"/>
        <pt x="41" y="399" on="1"/>
        <pt x="41" y="413" on="0"/>
        <pt x="47" y="432" on="1"/>
        <pt x="65" y="491" on="0"/>
        <pt x="156" y="638" on="0"/>
        <pt x="198" y="679" on="1"/>
        <pt x="224" y="710" on="0"/>
        <pt x="268" y="710" on="1"/>
        <pt x="288" y="710" on="0"/>
        <pt x="301" y="705" on="1"/>
        <pt x="301" y="436" on="1"/>
        <pt x="361" y="436" on="1"/>
      </contour>
      <contour>
        <pt x="200" y="592" on="0"/>
        <pt x="129" y="479" on="0"/>
        <pt x="115" y="430" on="1"/>
        <pt x="228" y="430" on="1"/>
        <pt x="232" y="618" on="1"/>
      </contour>
    </TTGlyph>
    <TTGlyph name="fraction" xMin="-94" yMin="-10" xMax="325" yMax="710">
      <contour>
        <pt x="-20" y="-10" on="0"/>
        <pt x="-38" y="-10" on="1"/>
        <pt x="-51" y="-10" on="0"/>
        <pt x="-82" y="6" on="0"/>
        <pt x="-94" y="19" on="1"/>
        <pt x="242" y="691" on="1"/>
        <pt x="250" y="710" on="0"/>
        <pt x="270" y="710" on="1"/>
        <pt x="300" y="710" on="0"/>
        <pt x="325" y="682" on="1"/>
        <pt x="-14" y="5" on="1"/>
      </contour>
    </TTGlyph>
    <TTGlyph name="g" xMin="23" yMin="-197" xMax="383" yMax="510">
      <contour>
        <pt x="383" y="488" on="0"/>
        <pt x="383" y="464" on="1"/>
        <pt x="383" y="433" on="0"/>
        <pt x="355" y="433" on="1"/>
        <pt x="341" y="433" on="0"/>
        <pt x="319" y="438" on="1"/>
        <pt x="357" y="402" on="0"/>
        <pt x="357" y="329" on="1"/>
        <pt x="357" y="154" on="0"/>
        <pt x="195" y="154" on="1"/>
        <pt x="169" y="154" on="0"/>
        <pt x="150" y="158" on="1"/>
        <pt x="123" y="131" on="0"/>
        <pt x="123" y="114" on="1"/>
        <pt x="123" y="103" on="0"/>
        <pt x="166" y="93" on="0"/>
        <pt x="220" y="85" on="1"/>
        <pt x="242" y="82" on="1"/>
        <pt x="308" y="72" on="0"/>
        <pt x="375" y="21" on="0"/>
        <pt x="375" y="-34" on="1"/>
        <pt x="375" y="-104" on="0"/>
        <pt x="277" y="-197" on="0"/>
        <pt x="183" y="-197" on="1"/>
        <pt x="23" y="-197" on="0"/>
        <pt x="23" y="-88" on="1"/>
        <pt x="23" y="-53" on="0"/>
        <pt x="65" y="10" on="0"/>
        <pt x="99" y="33" on="1"/>
        <pt x="38" y="51" on="0"/>
        <pt x="38" y="86" on="1"/>
        <pt x="38" y="128" on="0"/>
        <pt x="101" y="178" on="1"/>
        <pt x="39" y="217" on="0"/>
        <pt x="39" y="327" on="1"/>
        <pt x="39" y="510" on="0"/>
        <pt x="206" y="510" on="1"/>
        <pt x="231" y="510" on="0"/>
        <pt x="254" y="502" on="1"/>
        <pt x="375" y="502" on="1"/>
      </contour>
      <contour>
        <pt x="276" y="216" on="0"/>
        <pt x="276" y="348" on="1"/>
        <pt x="276" y="402" on="0"/>
        <pt x="240" y="451" on="0"/>
        <pt x="203" y="451" on="1"/>
        <pt x="167" y="451" on="0"/>
        <pt x="124" y="392" on="0"/>
        <pt x="124" y="329" on="1"/>
        <pt x="124" y="271" on="0"/>
        <pt x="155" y="216" on="0"/>
        <pt x="200" y="216" on="1"/>
      </contour>
      <contour>
        <pt x="293" y="-22" on="0"/>
        <pt x="273" y="3" on="0"/>
        <pt x="225" y="16" on="0"/>
        <pt x="180" y="19" on="1"/>
        <pt x="161" y="21" on="1"/>
        <pt x="137" y="4" on="0"/>
        <pt x="106" y="-45" on="0"/>
        <pt x="106" y="-69" on="1"/>
        <pt x="106" y="-96" on="0"/>
        <pt x="142" y="-123" on="0"/>
        <pt x="190" y="-123" on="1"/>
        <pt x="240" y="-123" on="0"/>
        <pt x="293" y="-75" on="0"/>
        <pt x="293" y="-45" on="1"/>
      </contour>
    </TTGlyph>
    <TTGlyph name="g.ss01" xMin="37" yMin="-200" xMax="346" yMax="512">
      <contour>
        <pt x="346" y="-124" on="0"/>
        <pt x="254" y="-200" on="0"/>
        <pt x="176" y="-200" on="1"/>
        <pt x="118" y="-200" on="0"/>
        <pt x="48" y="-166" on="0"/>
        <pt x="48" y="-142" on="1"/>
        <pt x="48" y="-118" on="0"/>
        <pt x="64" y="-93" on="1"/>
        <pt x="90" y="-109" on="0"/>
        <pt x="140" y="-124" on="0"/>
        <pt x="178" y="-124" on="1"/>
        <pt x="212" y="-124" on="0"/>
        <pt x="265" y="-84" on="0"/>
        <pt x="265" y="-36" on="1"/>
        <pt x="265" y="31" on="1"/>
        <pt x="252" y="15" on="0"/>
        <pt x="200" y="-9" on="0"/>
        <pt x="167" y="-9" on="1"/>
        <pt x="122" y="-9" on="0"/>
        <pt x="66" y="36" on="0"/>
        <pt x="37" y="141" on="0"/>
        <pt x="37" y="232" on="1"/>
        <pt x="37" y="512" on="0"/>
        <pt x="242" y="512" on="1"/>
        <pt x="301" y="512" on="0"/>
        <pt x="346" y="479" on="1"/>
        <pt x="346" y="-46" on="1"/>
      </contour>
      <contour>
        <pt x="251" y="445" on="0"/>
        <pt x="220" y="445" on="1"/>
        <pt x="126" y="445" on="0"/>
        <pt x="126" y="240" on="1"/>
        <pt x="126" y="63" on="0"/>
        <pt x="195" y="63" on="1"/>
        <pt x="251" y="63" on="0"/>
        <pt x="267" y="134" on="1"/>
        <pt x="267" y="429" on="1"/>
      </contour>
    </TTGlyph>
    <TTGlyph name="gbreve" xMin="23" yMin="-197" xMax="383" yMax="713">
      <component glyphName=".ttfautohint" x="23" y="0" flags="0x0"/>
      <component glyphName="g" x="0" y="0" flags="0x1000"/>
      <component glyphName="breve" x="66" y="0" flags="0x1000"/>
    </TTGlyph>
</ttFont>
